<svg width="49" height="70" viewBox="0 0 49 70" fill="none" xmlns="http://www.w3.org/2000/svg"><path d="M48.8594 69.5H2.07812V60.2188L24.1562 36.6875C27.1875 33.375 29.4219 30.4844 30.8594 28.0156C32.3281 25.5469 33.0625 23.2031 33.0625 20.9844C33.0625 17.9531 32.2969 15.5781 30.7656 13.8594C29.2344 12.1094 27.0469 11.2344 24.2031 11.2344C21.1406 11.2344 18.7188 12.2969 16.9375 14.4219C15.1875 16.5156 14.3125 19.2812 14.3125 22.7188H0.71875C0.71875 18.5625 1.70312 14.7656 3.67188 11.3281C5.67188 7.89063 8.48438 5.20312 12.1094 3.26562C15.7344 1.29688 19.8438 0.3125 24.4375 0.3125C31.4688 0.3125 36.9219 2 40.7969 5.375C44.7031 8.75 46.6562 13.5156 46.6562 19.6719C46.6562 23.0469 45.7812 26.4844 44.0312 29.9844C42.2812 33.4844 39.2812 37.5625 35.0312 42.2188L19.5156 58.5781H48.8594V69.5Z" fill="#15E9E9"/>
</svg>
