<svg width="48" height="71" viewBox="0 0 48 71" fill="none" xmlns="http://www.w3.org/2000/svg"><path d="M15.8594 29.375H23.0781C26.5156 29.375 29.0625 28.5156 30.7188 26.7969C32.375 25.0781 33.2031 22.7969 33.2031 19.9531C33.2031 17.2031 32.375 15.0625 30.7188 13.5312C29.0938 12 26.8438 11.2344 23.9688 11.2344C21.375 11.2344 19.2031 11.9531 17.4531 13.3906C15.7031 14.7969 14.8281 16.6406 14.8281 18.9219H1.28125C1.28125 15.3594 2.23438 12.1719 4.14062 9.35938C6.07812 6.51562 8.76562 4.29688 12.2031 2.70312C15.6719 1.10938 19.4844 0.3125 23.6406 0.3125C30.8594 0.3125 36.5156 2.04688 40.6094 5.51562C44.7031 8.95312 46.75 13.7031 46.75 19.7656C46.75 22.8906 45.7969 25.7656 43.8906 28.3906C41.9844 31.0156 39.4844 33.0312 36.3906 34.4375C40.2344 35.8125 43.0938 37.875 44.9688 40.625C46.875 43.375 47.8281 46.625 47.8281 50.375C47.8281 56.4375 45.6094 61.2969 41.1719 64.9531C36.7656 68.6094 30.9219 70.4375 23.6406 70.4375C16.8281 70.4375 11.25 68.6406 6.90625 65.0469C2.59375 61.4531 0.4375 56.7031 0.4375 50.7969H13.9844C13.9844 53.3594 14.9375 55.4531 16.8438 57.0781C18.7812 58.7031 21.1562 59.5156 23.9688 59.5156C27.1875 59.5156 29.7031 58.6719 31.5156 56.9844C33.3594 55.2656 34.2812 53 34.2812 50.1875C34.2812 43.375 30.5312 39.9688 23.0312 39.9688H15.8594V29.375Z" fill="#15E9E9"/>
</svg>
