<svg width="320" height="634" viewBox="0 0 320 634" fill="none" xmlns="http://www.w3.org/2000/svg">
    <g filter="url(#filter0_d)">
        <rect x="20" y="16" width="280" height="594" rx="26" fill="#101116"/>
    </g>
    <rect opacity="0.2" x="40" y="150" width="240" height="50" rx="13" fill="#3A3A3A"/>
    <rect opacity="0.2" x="40" y="210" width="240" height="50" rx="13" fill="#3A3A3A"/>
    <rect opacity="0.2" x="40" y="270" width="240" height="50" rx="13" fill="#3A3A3A"/>
    <rect opacity="0.2" x="40" y="330" width="240" height="50" rx="13" fill="#3A3A3A"/>
    <rect opacity="0.2" x="40" y="390" width="240" height="50" rx="13" fill="#3A3A3A"/>
    <rect opacity="0.2" x="40" y="450" width="240" height="50" rx="13" fill="#3A3A3A"/>
    <rect opacity="0.2" x="40" y="510" width="240" height="50" rx="13" fill="#3A3A3A"/>
    <path fill-rule="evenodd" clip-rule="evenodd" d="M172.738 166.266C173.087 166.621 173.087 167.197 172.738 167.552L156.667 183.916C156.496 184.089 156.264 184.185 156.022 184.182C155.781 184.178 155.551 184.075 155.386 183.896L148.243 176.169C147.905 175.803 147.922 175.228 148.281 174.883C148.64 174.539 149.205 174.557 149.543 174.922L156.055 181.967L171.476 166.266C171.824 165.911 172.39 165.911 172.738 166.266Z" fill="#15E9E9" stroke="#15E9E9" stroke-width="2"/>
    <path fill-rule="evenodd" clip-rule="evenodd" d="M172.738 226.266C173.087 226.621 173.087 227.197 172.738 227.552L156.667 243.916C156.496 244.089 156.264 244.185 156.022 244.182C155.781 244.178 155.551 244.075 155.386 243.896L148.243 236.169C147.905 235.803 147.922 235.228 148.281 234.883C148.64 234.539 149.205 234.557 149.543 234.922L156.055 241.967L171.476 226.266C171.824 225.911 172.39 225.911 172.738 226.266Z" fill="#15E9E9" stroke="#15E9E9" stroke-width="2"/>
    <rect x="147" y="415" width="28" height="3" rx="1.5" fill="#DDFFFF" fill-opacity="0.5"/>
    <rect x="147" y="473" width="28" height="3" rx="1.5" fill="#DDFFFF" fill-opacity="0.5"/>
    <rect x="147" y="295" width="28" height="3" rx="1.5" fill="#DDFFFF" fill-opacity="0.5"/>
    <rect x="147" y="534" width="28" height="3" rx="1.5" fill="#DDFFFF" fill-opacity="0.5"/>
    <path d="M60.2381 68.432C66.7181 68.432 69.8501 65.12 69.8501 60.728C69.8501 51.764 56.0621 54.32 56.0621 50.504C56.0621 49.064 57.2861 48.092 59.4821 48.092C61.9301 48.092 64.5221 48.92 66.4661 50.72L69.3101 46.976C66.9341 44.78 63.7661 43.628 59.9501 43.628C54.2981 43.628 50.8421 46.94 50.8421 50.936C50.8421 59.972 64.6661 57.056 64.6661 61.304C64.6661 62.672 63.2981 63.968 60.4901 63.968C57.1781 63.968 54.5501 62.492 52.8581 60.728L50.0861 64.616C52.3181 66.884 55.6301 68.432 60.2381 68.432ZM75.452 48.74C76.964 48.74 78.188 47.516 78.188 46.004C78.188 44.492 76.964 43.304 75.452 43.304C73.976 43.304 72.716 44.492 72.716 46.004C72.716 47.516 73.976 48.74 75.452 48.74ZM77.756 68V50.612H73.184V68H77.756ZM108.461 68V55.436C108.461 51.872 106.553 50.18 103.349 50.18C100.685 50.18 98.3815 51.764 97.3735 53.348C96.7255 51.368 95.1055 50.18 92.5495 50.18C89.8855 50.18 87.5815 51.836 86.8615 52.88V50.612H82.2895V68H86.8615V56.3C87.5455 55.328 88.8775 54.248 90.4615 54.248C92.3335 54.248 93.0535 55.4 93.0535 57.02V68H97.6615V56.264C98.3095 55.328 99.6415 54.248 101.261 54.248C103.133 54.248 103.853 55.4 103.853 57.02V68H108.461ZM122.882 68.432C127.346 68.432 130.586 65.084 130.586 59.288C130.586 53.492 127.346 50.18 122.882 50.18C120.758 50.18 118.85 51.116 117.518 52.808V50.612H112.946V74.624H117.518V65.768C118.922 67.568 120.83 68.432 122.882 68.432ZM121.442 64.364C119.966 64.364 118.274 63.464 117.518 62.384V56.228C118.274 55.112 119.966 54.248 121.442 54.248C124.07 54.248 125.834 56.3 125.834 59.288C125.834 62.312 124.07 64.364 121.442 64.364ZM138.506 68V43.988H133.934V68H138.506ZM151.211 68.432C153.911 68.432 156.647 67.604 158.375 66.02L156.359 63.068C155.243 64.148 153.191 64.796 151.715 64.796C148.763 64.796 146.999 62.96 146.711 60.764H159.635V59.756C159.635 54.068 156.107 50.18 150.923 50.18C145.631 50.18 141.923 54.248 141.923 59.288C141.923 64.868 145.919 68.432 151.211 68.432ZM155.207 57.668H146.639C146.855 55.94 148.079 53.816 150.923 53.816C153.947 53.816 155.099 56.012 155.207 57.668Z" fill="#15E9E9"/>
    <path d="M59.7821 103V98.944H62.0381V97.192H59.7821V86.992H57.0461L50.1821 97.288V98.944H57.7901V103H59.7821ZM57.7901 97.192H52.1741L57.7901 88.84V97.192ZM69.1809 103.288C72.7089 103.288 74.8449 101.344 74.8449 98.68C74.8449 96.112 72.6129 94.864 71.1489 94.744C72.6609 94.48 74.6049 93.328 74.6049 91.024C74.6049 88.312 72.2529 86.752 69.1809 86.752C66.7089 86.752 64.8609 87.832 63.7089 89.224L64.8129 90.472C65.9889 89.2 67.2849 88.528 69.0369 88.528C70.9809 88.528 72.6129 89.488 72.6129 91.264C72.6129 93.112 70.9089 93.904 68.8929 93.904C68.2449 93.904 67.5009 93.904 67.2369 93.88V95.704C67.4769 95.68 68.2209 95.68 68.8929 95.68C71.2449 95.68 72.8769 96.52 72.8769 98.512C72.8769 100.36 71.4609 101.512 69.1329 101.512C67.2369 101.512 65.6049 100.648 64.6689 99.4L63.4929 100.648C64.4769 102.088 66.4689 103.288 69.1809 103.288ZM89.6878 103.288C94.0558 103.288 95.8078 98.896 95.8078 95.008C95.8078 91.096 94.0558 86.752 89.6878 86.752C85.2958 86.752 83.5678 91.096 83.5678 95.008C83.5678 98.896 85.2958 103.288 89.6878 103.288ZM89.6878 101.512C86.6398 101.512 85.6078 98.2 85.6078 95.008C85.6078 91.816 86.6398 88.528 89.6878 88.528C92.7358 88.528 93.7678 91.816 93.7678 95.008C93.7678 98.2 92.7358 101.512 89.6878 101.512ZM104.383 103.288C108.751 103.288 110.503 98.896 110.503 95.008C110.503 91.096 108.751 86.752 104.383 86.752C99.9911 86.752 98.2631 91.096 98.2631 95.008C98.2631 98.896 99.9911 103.288 104.383 103.288ZM104.383 101.512C101.335 101.512 100.303 98.2 100.303 95.008C100.303 91.816 101.335 88.528 104.383 88.528C107.431 88.528 108.463 91.816 108.463 95.008C108.463 98.2 107.431 101.512 104.383 101.512ZM119.078 103.288C123.446 103.288 125.198 98.896 125.198 95.008C125.198 91.096 123.446 86.752 119.078 86.752C114.686 86.752 112.958 91.096 112.958 95.008C112.958 98.896 114.686 103.288 119.078 103.288ZM119.078 101.512C116.03 101.512 114.998 98.2 114.998 95.008C114.998 91.816 116.03 88.528 119.078 88.528C122.126 88.528 123.158 91.816 123.158 95.008C123.158 98.2 122.126 101.512 119.078 101.512ZM134.945 103V99.736H132.857V98.176H134.945V96.04H132.857V94.216H134.945V85.864H139.457C141.553 85.864 143.105 86.288 144.113 87.136C145.137 87.984 145.649 89.216 145.649 90.832C145.649 92.464 145.097 93.744 143.993 94.672C142.889 95.584 141.265 96.04 139.121 96.04H137.105V98.176H141.065V99.736H137.105V103H134.945ZM137.105 94.216H138.809C140.265 94.216 141.393 93.976 142.193 93.496C143.009 93.016 143.417 92.152 143.417 90.904C143.417 89.816 143.081 89.008 142.409 88.48C141.737 87.952 140.689 87.688 139.265 87.688H137.105V94.216Z" fill="#00A0A0"/>
    <path d="M141.9 361V347.66H139.42L135.22 351.88L136.84 353.58L139.06 351.32V361H141.9ZM161.02 361V351.34H157.66L155.32 357.1L152.94 351.34H149.6V361H152.14V354.72L154.74 361H155.9L158.48 354.72V361H161.02ZM168.085 361.24C169.585 361.24 171.105 360.78 172.065 359.9L170.945 358.26C170.325 358.86 169.185 359.22 168.365 359.22C166.725 359.22 165.745 358.2 165.585 356.98H172.765V356.42C172.765 353.26 170.805 351.1 167.925 351.1C164.985 351.1 162.925 353.36 162.925 356.16C162.925 359.26 165.145 361.24 168.085 361.24ZM170.305 355.26H165.545C165.665 354.3 166.345 353.12 167.925 353.12C169.605 353.12 170.245 354.34 170.305 355.26ZM179.1 361.24C181.08 361.24 182.28 360.38 182.92 359.48L181.26 357.94C180.8 358.58 180.1 358.98 179.22 358.98C177.68 358.98 176.6 357.84 176.6 356.16C176.6 354.48 177.68 353.36 179.22 353.36C180.1 353.36 180.8 353.72 181.26 354.4L182.92 352.84C182.28 351.96 181.08 351.1 179.1 351.1C176.12 351.1 173.98 353.2 173.98 356.16C173.98 359.14 176.12 361.24 179.1 361.24Z" fill="#15E9E9"/>
    <defs>
        <filter id="filter0_d" x="0" y="0" width="320" height="634" filterUnits="userSpaceOnUse" color-interpolation-filters="sRGB">
            <feFlood flood-opacity="0" result="BackgroundImageFix"/>
            <feColorMatrix in="SourceAlpha" type="matrix" values="0 0 0 0 0 0 0 0 0 0 0 0 0 0 0 0 0 0 127 0"/>
            <feOffset dy="4"/>
            <feGaussianBlur stdDeviation="10"/>
            <feColorMatrix type="matrix" values="0 0 0 0 0 0 0 0 0 0 0 0 0 0 0 0 0 0 0.25 0"/>
            <feBlend mode="normal" in2="BackgroundImageFix" result="effect1_dropShadow"/>
            <feBlend mode="normal" in="SourceGraphic" in2="effect1_dropShadow" result="shape"/>
        </filter>
    </defs>
</svg>
