<svg width="222" height="93" viewBox="0 0 222 93" fill="none" xmlns="http://www.w3.org/2000/svg">
    <path d="M202.221 56.9897C204.288 57.9383 206.299 58.9842 208.416 59.8201C211.623 61.0834 214.896 62.2102 218.144 63.3933C218.647 63.5549 219.105 63.8205 219.472 64.1639C219.84 64.5072 220.105 64.9162 220.241 65.3504C220.376 65.7845 220.378 66.2286 220.246 66.6385C220.113 67.0485 219.852 67.41 219.486 67.6872C216.578 69.9924 213.66 72.2901 210.733 74.5803C210.354 74.8853 209.88 75.0965 209.353 75.1949C208.913 75.2498 208.447 75.1753 208.031 74.9833C207.615 74.7912 207.272 74.4929 207.059 74.1365C206.839 73.7738 206.756 73.3741 206.821 72.9954C206.885 72.6167 207.095 72.2788 207.418 72.0307C208.565 71.0854 209.77 70.1784 210.947 69.2491C211.254 69.006 211.552 68.7606 212.012 68.3786C209.473 68.5031 207.168 68.6324 204.852 68.7375C183.976 69.7538 162.813 69.0814 141.646 66.7293C133.452 65.7913 125.274 64.5955 117.135 63.057C109.231 61.6528 101.373 59.9094 93.5934 57.834C87.3935 56.1433 81.201 54.398 75.0859 52.4487C67.4903 49.9929 60.0164 47.1961 52.6989 44.071C44.1392 40.4521 35.8073 36.5316 28.097 31.5323C21.767 27.4215 16.0547 22.7766 11.656 17.122C10.1488 15.1896 8.91882 13.1121 7.5958 11.085C7.37907 10.6937 7.20713 10.2892 7.08256 9.87773L7.30343 9.12757C8.8893 7.87196 10.3369 8.17767 11.385 10.0174C15.3867 17.0792 21.391 22.7386 28.5903 27.6441C35.0473 31.9602 41.9767 35.7074 49.2509 38.8168C54.3953 41.0829 59.6143 43.2433 64.8474 45.2377C68.6844 46.7219 72.6111 48.0198 76.5351 49.2673C81.3888 50.8097 86.2562 52.335 91.1789 53.6426C96.8989 55.1637 102.661 56.5128 108.43 57.8074C119.291 60.1955 130.248 62.0007 141.231 63.2117C154.429 64.7021 167.635 65.5125 180.772 65.6385C190.556 65.7498 200.285 65.5142 209.96 64.932L211.371 64.83C209.68 64.1408 208.262 63.5885 206.829 62.968C204.581 61.9872 202.368 60.9459 200.125 59.9805C199.699 59.8231 199.333 59.5545 199.085 59.218C198.837 58.8815 198.723 58.4967 198.76 58.1254C198.757 57.7476 198.908 57.3947 199.188 57.1251C199.468 56.8555 199.86 56.6856 200.299 56.6435C200.418 56.6219 200.534 56.585 200.647 56.5545L202.221 56.9897Z" fill="#01FFFF"/>
</svg>
