<svg width="140" height="138" viewBox="0 0 140 138" fill="none" xmlns="http://www.w3.org/2000/svg">
    <rect x="6.17645" y="4.11938" width="133.824" height="133.881" rx="18" fill="#10C5C5"/>
    <rect width="133.824" height="133.881" rx="18" fill="#15E9E9"/>
    <g opacity="0.8">
        <g clip-path="url(#clip0)">
            <path d="M54.0438 104.984C42.7109 104.99 31.5271 102.421 21.351 97.4722L21.117 97.3396V97.0577C21.117 96.7592 20.298 89.4137 23.9584 85.1357C28.4211 79.896 48.6785 70.4115 49.531 70.0136L49.9822 70.9587C49.7817 71.0582 29.0729 80.7582 24.7607 85.8819C21.7522 89.2976 22.0196 95.3166 22.1199 96.6597C32.3189 101.567 43.5285 104.053 54.8628 103.922C66.1837 103.788 77.3521 101.314 87.6558 96.6597C87.6558 95.2669 87.6558 89.3805 84.7977 85.7824C81.6053 81.7697 64.5736 72.4178 61.398 70.8592L61.8827 69.9141C63.8382 70.8924 82.1569 80.7251 85.7002 85.1855C89.2436 89.6458 88.7924 96.7924 88.7756 97.0743V97.3727L88.5082 97.5054C77.9845 102.344 66.5447 104.91 54.9463 105.033L54.0438 104.984Z" fill="#1D1D1B"/>
            <path d="M55.5982 72.882C49.2134 72.882 39.4357 64.84 39.4357 54.941C39.4357 43.3341 45.1853 37 55.5982 37C69.8052 37 71.4431 47.2307 71.4431 54.941C71.4431 64.6576 61.7155 72.882 55.5982 72.882ZM55.5982 38.0612C42.4609 38.0612 40.5555 48.6401 40.5555 54.9576C40.5555 64.1105 49.8318 71.8374 55.5982 71.8374C61.3645 71.8374 70.3233 64.0939 70.3233 54.941C70.3233 43.2512 65.8272 38.0446 55.5982 38.0446V38.0612Z" fill="#1D1D1B"/>
            <path d="M55.431 93.4428C47.3247 93.4428 42.9289 74.5898 42.7451 73.7939L43.7813 73.5618C43.7813 73.7442 48.1771 92.3981 55.4812 92.3981C62.7852 92.3981 66.8635 73.7607 66.9805 73.5618L68.0168 73.7939C67.766 74.5898 63.6377 93.4428 55.431 93.4428Z" fill="#1D1D1B"/>
            <path d="M42.1934 57.2456C41.3892 57.2107 40.5998 57.0192 39.8702 56.6818L40.0707 56.2507C40.0707 56.2507 42.3104 57.3119 43.4136 56.4165C43.915 56.002 43.9651 54.576 44.032 53.1003C44.1323 50.6131 44.2493 47.7942 46.2382 47.0315C48.2272 46.2688 50.3666 47.3134 52.2887 48.2088C53.2541 48.7575 54.314 49.123 55.4143 49.2866C56.5081 49.1507 57.5551 48.7647 58.473 48.159C60.2321 46.9643 62.3812 46.4728 64.49 46.7828C66.1614 47.1642 66.4623 50.2649 66.713 52.9842C66.8634 54.5263 66.9971 56.1181 67.3983 56.3999C67.7994 56.6818 69.7382 56.2673 70.7411 55.8196L70.9417 56.2507C70.6575 56.3834 68.117 57.4943 67.1309 56.7647C66.596 56.3834 66.4623 55.1066 66.2617 53.0339C66.0444 50.5965 65.7603 47.5455 64.4065 47.2471C62.411 46.9538 60.378 47.4283 58.7237 48.5736C57.7211 49.2271 56.5744 49.631 55.3808 49.7508C54.2046 49.5988 53.0693 49.2215 52.038 48.6399C50.1995 47.7777 48.1102 46.7994 46.3552 47.4792C44.6003 48.159 44.5501 50.7955 44.4498 53.1168C44.4498 54.775 44.3161 56.2341 43.6643 56.7979C43.2469 57.1229 42.7227 57.2825 42.1934 57.2456Z" fill="#1D1D1B"/>
            <path d="M58.6234 91.735C58.2055 90.2592 56.1831 82.8474 56.8016 81.7862C57.0073 81.5422 57.2624 81.3438 57.5503 81.2039C57.8382 81.0639 58.1526 80.9855 58.473 80.9737C59.2585 80.8245 59.643 80.725 59.643 80.327C59.643 79.3321 57.3364 78.1051 55.4477 78.1051C53.559 78.1051 51.0519 79.498 51.0519 80.327C51.0519 80.6918 51.7205 80.8908 52.3723 81.0732C53.0242 81.2556 53.7262 81.4546 54.0437 81.9354C54.2945 82.541 54.2945 83.2201 54.0437 83.8257C53.9575 84.1139 53.8905 84.4075 53.8432 84.7045C53.7429 85.2848 52.4392 91.4365 52.3723 91.7018L51.921 91.6023C51.921 91.6023 53.2749 85.2019 53.3752 84.6216C53.3752 84.29 53.5089 83.9749 53.5757 83.7096C53.7838 83.2106 53.7838 82.65 53.5757 82.151C53.4253 81.8525 52.8069 81.6867 52.2553 81.5209C51.4363 81.2887 50.5839 81.0566 50.5839 80.327C50.5839 79.0668 53.5423 77.6243 55.4644 77.6243C57.3866 77.6243 60.1277 78.9342 60.1277 80.327C60.1277 81.1561 59.292 81.3053 58.5733 81.438C57.8545 81.5706 57.4033 81.637 57.186 82.0183C56.7848 82.6982 58.122 88.2529 59.058 91.5857L58.6234 91.735Z" fill="#1D1D1B"/>
            <path d="M65.5263 94.4708C64.4399 94.4708 63.8549 94.4708 63.7714 94.4708V94.0066C66.5301 94.1531 69.2961 93.93 71.9947 93.3433C74.4684 92.8083 76.8777 92.0135 79.1817 90.9722L79.3823 91.4033C77.0115 92.4552 74.5352 93.2555 71.9947 93.791C69.8689 94.2439 67.7006 94.4718 65.5263 94.4708Z" fill="#1D1D1B"/>
            <path d="M66.0445 97.4719C64.9581 97.4719 64.3731 97.4719 64.2895 97.4719V97.0076C67.0183 97.1728 69.757 96.9664 72.4292 96.3941C74.8985 95.8506 77.3064 95.0618 79.6163 94.0396L79.8169 94.4541C77.4816 95.5082 75.0383 96.3087 72.5295 96.8418C70.3962 97.2777 68.2225 97.4889 66.0445 97.4719Z" fill="#1D1D1B"/>
            <path d="M110.437 66.2991H91.0822V65.3705H110.437C111.411 65.3661 112.344 64.9804 113.032 64.2973C113.721 63.6141 114.11 62.6888 114.114 61.7226V46.4844C114.114 45.5169 113.727 44.589 113.037 43.9049C112.348 43.2208 111.412 42.8365 110.437 42.8365H82.4911C81.5159 42.8365 80.5806 43.2208 79.891 43.9049C79.2014 44.589 78.814 45.5169 78.814 46.4844V61.7226C78.8184 62.6888 79.2073 63.6141 79.8959 64.2973C80.5845 64.9804 81.5173 65.3661 82.4911 65.3705H85.834V66.2991H82.4911C81.2677 66.2991 80.0943 65.8169 79.2292 64.9587C78.3641 64.1004 77.8781 62.9364 77.8781 61.7226V46.4844C77.878 45.2691 78.3635 44.1034 79.2282 43.2425C80.0928 42.3816 81.2661 41.8957 82.4911 41.8914H110.437C111.662 41.8957 112.835 42.3816 113.7 43.2425C114.565 44.1034 115.05 45.2691 115.05 46.4844V61.7226C115.05 62.9364 114.564 64.1004 113.699 64.9587C112.834 65.8169 111.661 66.2991 110.437 66.2991Z" fill="#1D1D1B"/>
            <path d="M109.484 48.1924H83.4104V48.6567H109.484V48.1924Z" fill="#1D1D1B"/>
            <path d="M90.3635 52.3875H83.4104V52.8517H90.3635V52.3875Z" fill="#1D1D1B"/>
            <path d="M109.468 52.3875H93.5725V52.8517H109.468V52.3875Z" fill="#1D1D1B"/>
            <path d="M97.0825 56.2012H83.4104V56.6654H97.0825V56.2012Z" fill="#1D1D1B"/>
            <path d="M109.484 56.2012H99.623V56.6654H109.484V56.2012Z" fill="#1D1D1B"/>
            <path d="M109.484 59.8325H83.4104V60.2968H109.484V59.8325Z" fill="#1D1D1B"/>
            <path d="M83.9117 72.1026H83.8282C83.7354 72.0831 83.6482 72.0431 83.573 71.9857C83.4978 71.9284 83.4365 71.855 83.3936 71.771C82.9423 70.942 84.1792 67.7749 84.948 65.951L85.8172 66.3158C85.1052 67.8386 84.5454 69.4269 84.1457 71.058C86.5606 69.3288 88.8505 67.4338 90.9985 65.3872L91.6337 66.0836C87.3381 70.0631 84.714 72.1026 83.9117 72.1026Z" fill="#1D1D1B"/>
        </g>
    </g>
    <defs>
        <clipPath id="clip0">
            <rect x="21" y="37" width="94" height="68" fill="white"/>
        </clipPath>
    </defs>
</svg>
