<svg width="140" height="138" viewBox="0 0 140 138" fill="none" xmlns="http://www.w3.org/2000/svg">
    <rect x="6.17651" y="4.11938" width="133.824" height="133.881" rx="18" fill="#10C5C5"/>
    <rect width="133.824" height="133.881" rx="18" fill="#15E9E9"/>
    <g opacity="0.7">
        <path d="M90.8357 31.4805H44.1643C37.1593 31.4805 31.4806 37.1592 31.4806 44.1642V90.8356C31.4806 97.8406 37.1593 103.519 44.1643 103.519H90.8357C97.8407 103.519 103.519 97.8406 103.519 90.8356V44.1642C103.519 37.1592 97.8407 31.4805 90.8357 31.4805Z" stroke="#1D1D1B" stroke-width="1.8" stroke-miterlimit="10"/>
        <path d="M88.6313 35.0012H46.6155C40.2465 35.0012 35.0833 40.1643 35.0833 46.5334V88.5491C35.0833 94.9182 40.2465 100.081 46.6155 100.081H88.6313C95.0003 100.081 100.163 94.9182 100.163 88.5491V46.5334C100.163 40.1643 95.0003 35.0012 88.6313 35.0012Z" stroke="#1D1D1B" stroke-width="0.8" stroke-miterlimit="10"/>
        <path d="M63.7714 49H70.8738C71.0721 49 71.0721 49 71.0721 49.2094V50.9353C71.0721 51.0685 71.1031 51.1256 71.258 51.1256C72.1381 51.1256 73.0243 51.1256 73.9106 51.1256C74.5048 51.1162 75.0915 51.2625 75.6149 51.5508C76.1294 51.8507 76.5292 52.3205 76.749 52.8832C76.9331 53.3525 77.0176 53.8564 76.9969 54.3617C76.9969 55.8211 76.9969 57.2804 76.9969 58.7398C76.9969 58.9683 76.966 58.9873 76.7428 58.9873H75.0385C74.834 58.9873 74.8092 58.9873 74.8092 58.7525C74.8092 57.3566 74.8092 55.9607 74.8092 54.5647C74.825 54.3027 74.776 54.0408 74.6667 53.8033C74.5739 53.6401 74.438 53.5071 74.2746 53.4196C74.1113 53.332 73.9271 53.2935 73.7432 53.3084H61.2614C61.0567 53.2827 60.8494 53.3266 60.6714 53.4332C60.4934 53.5398 60.3545 53.7032 60.276 53.8985C60.2031 54.0843 60.1632 54.282 60.1582 54.4822C60.1582 55.9035 60.1582 57.3249 60.1582 58.7462C60.1582 59.0063 60.1582 59 59.9103 59H58.206C58.0263 59 58.0015 59 58.0015 58.7906C58.0015 57.915 58.0015 57.0457 58.0015 56.17C58.0015 55.4911 58.0015 54.8058 58.0015 54.1269C57.9857 53.604 58.0964 53.0852 58.3238 52.6167C58.5485 52.1695 58.8979 51.8007 59.3278 51.5571C59.8361 51.2771 60.4053 51.133 60.9825 51.1383H63.6351C63.7714 51.1383 63.7776 51.0749 63.7776 50.9733V49H63.7714Z" fill="black"/>
        <path d="M67.5738 83.9959C65.3988 83.9959 63.2361 83.9959 61.0487 83.9959C60.2357 84.0183 59.4456 83.7486 58.8489 83.2449C58.4694 82.9245 58.2094 82.504 58.1053 82.0422C58.0394 81.76 58.0041 81.4725 58 81.184C58 79.8514 58 78.5132 58 77.175C58 77.0452 58.0496 77 58.1921 77.0056H60.0015C60.1378 77.0056 60.1936 77.0395 60.1874 77.175C60.1874 77.7736 60.1874 78.3664 60.1874 78.9649C60.1874 79.6651 60.1874 80.3652 60.1874 81.0654C60.166 81.2394 60.2023 81.4154 60.2918 81.5704C60.3813 81.7254 60.5198 81.8524 60.6893 81.9349C60.8587 82.0135 61.0447 82.0578 61.2346 82.0648H73.7828C74.4458 82.0648 74.8362 81.6639 74.8362 80.992V77.192C74.8362 77.0113 74.8362 77 75.0469 77H76.7943C76.9864 77 76.9988 77 76.9988 77.1863C76.9988 78.4737 76.9988 79.7667 76.9988 81.0541C77.0051 81.3373 76.9865 81.6205 76.943 81.901C76.8974 82.2816 76.7437 82.6448 76.497 82.9547C76.2503 83.2646 75.9192 83.5106 75.5364 83.6684C75.2637 83.7813 74.9539 83.8321 74.6751 83.9281C74.4257 83.9934 74.1648 84.0145 73.9067 83.9902L67.5738 83.9959Z" fill="black"/>
        <path d="M47.4971 71.8233C49.4257 71.8233 50.4431 70.6451 50.4431 69.1723C50.4431 67.9352 49.5776 66.919 48.4994 66.757C49.4561 66.5655 50.2457 65.7408 50.2457 64.5037C50.2457 63.1929 49.2587 62 47.3301 62H42V71.8233H47.4971ZM46.8594 65.9323H44.1563V63.7968H46.8594C47.5883 63.7968 48.0438 64.2533 48.0438 64.8719C48.0438 65.4904 47.5883 65.9323 46.8594 65.9323ZM46.9353 70.0118H44.1563V67.729H46.9353C47.7857 67.729 48.2412 68.2592 48.2412 68.8778C48.2412 69.5847 47.7553 70.0118 46.9353 70.0118Z" fill="black"/>
        <path d="M58.3561 71.8233V67.2283C58.3561 65.1811 56.8223 64.5331 55.1519 64.5331C53.9978 64.5331 52.8437 64.8866 51.9478 65.6524L52.6767 66.9043C53.2993 66.3446 54.0282 66.0648 54.8179 66.0648C55.7897 66.0648 56.4275 66.5361 56.4275 67.2577V68.215C55.9416 67.6554 55.076 67.3461 54.1041 67.3461C52.9349 67.3461 51.553 67.9794 51.553 69.6436C51.553 71.2342 52.9349 72 54.1041 72C55.0608 72 55.9264 71.6613 56.4275 71.0869V71.8233H58.3561ZM54.8786 70.7334C54.1193 70.7334 53.4967 70.3505 53.4967 69.6878C53.4967 68.9956 54.1193 68.6127 54.8786 68.6127C55.5012 68.6127 56.1086 68.8189 56.4275 69.2312V70.1149C56.1086 70.5272 55.5012 70.7334 54.8786 70.7334Z" fill="black"/>
        <path d="M62.729 72C63.5339 72 64.0502 71.7938 64.3387 71.5434L63.9287 70.1296C63.8224 70.2327 63.549 70.3358 63.2605 70.3358C62.8353 70.3358 62.5924 69.9971 62.5924 69.5552V66.3446H64.0805V64.7099H62.5924V62.7658H60.6486V64.7099H59.4338V66.3446H60.6486V70.056C60.6486 71.3225 61.3775 72 62.729 72Z" fill="black"/>
        <path d="M67.8601 72C68.6649 72 69.1812 71.7938 69.4697 71.5434L69.0597 70.1296C68.9534 70.2327 68.6801 70.3358 68.3916 70.3358C67.9664 70.3358 67.7234 69.9971 67.7234 69.5552V66.3446H69.2116V64.7099H67.7234V62.7658H65.7797V64.7099H64.5648V66.3446H65.7797V70.056C65.7797 71.3225 66.5086 72 67.8601 72Z" fill="black"/>
        <path d="M75.0867 71.8233C76.8938 71.8233 77.9871 70.8071 77.9871 69.1723C77.9871 68.0088 77.0912 66.919 76.013 66.757C76.9241 66.5803 77.7897 65.7408 77.7897 64.5037C77.7897 62.9573 76.6964 62 74.9956 62H70.8348V71.8233H75.0867ZM74.8893 66.4035H71.7003V62.7658H74.8893C76.1952 62.7658 76.8786 63.5906 76.8786 64.592C76.8786 65.6082 76.1952 66.4035 74.8893 66.4035ZM74.95 71.0574H71.7003V67.1694H74.95C76.3623 67.1694 77.076 68.1119 77.076 69.1134C77.076 70.3063 76.2864 71.0574 74.95 71.0574Z" fill="black"/>
        <path d="M83.23 72C85.4016 72 86.7683 70.3358 86.7683 68.2592C86.7683 66.1826 85.4016 64.5331 83.23 64.5331C81.0889 64.5331 79.707 66.1826 79.707 68.2592C79.707 70.3358 81.0889 72 83.23 72ZM83.23 71.3078C81.5293 71.3078 80.5574 69.8498 80.5574 68.2592C80.5574 66.6834 81.5293 65.2253 83.23 65.2253C84.9612 65.2253 85.9179 66.6834 85.9179 68.2592C85.9179 69.8498 84.9612 71.3078 83.23 71.3078Z" fill="black"/>
        <path d="M94 71.8233L91.0996 68.1708L93.833 64.7099H92.8915L90.6288 67.6406L88.351 64.7099H87.4095L90.1429 68.1708L87.2425 71.8233H88.184L90.6288 68.6863L93.0585 71.8233H94Z" fill="black"/>
    </g>
</svg>
