<svg width="140" height="138" viewBox="0 0 140 138" fill="none" xmlns="http://www.w3.org/2000/svg">
    <rect x="6.17651" y="4.11938" width="133.824" height="133.881" rx="18" fill="#10C5C5"/>
    <rect width="133.824" height="133.881" rx="18" fill="#15E9E9"/>
    <g opacity="0.8">
        <g clip-path="url(#clip0)">
            <path d="M46.5447 59.8355L44.9343 57.8154L83.84 27L96.8515 43.2895L96.0463 43.9308L83.6629 28.4269L46.3675 57.9757L47.3498 59.1942L46.5447 59.8355Z" fill="#1D1D1B"/>
            <path d="M53.147 59.8035L52.68 59.6271C52.9087 59.0145 52.9754 58.3536 52.8739 57.7079C52.7724 57.0622 52.506 56.4533 52.1003 55.9395L51.9393 55.7311L80.2006 33.2849L80.3617 33.4773C80.6625 33.885 81.0458 34.2254 81.4867 34.4767C81.9277 34.728 82.4167 34.8845 82.9221 34.9363C83.9062 35.0208 84.8841 34.7154 85.6436 34.0866L85.8529 33.9262L91.1187 40.4837L90.9255 40.6441C90.5407 40.9585 90.2224 41.3458 89.9889 41.7834C89.7553 42.2211 89.6111 42.7005 89.5647 43.1939C89.5183 43.6873 89.5706 44.185 89.7184 44.6583C89.8663 45.1315 90.1069 45.5708 90.4263 45.951L90.0237 46.2716C89.3279 45.4305 88.9805 44.3567 89.0523 43.2694C89.1241 42.182 89.6097 41.1628 90.4102 40.4196L85.6758 34.6958C84.8478 35.3104 83.8222 35.6014 82.7933 35.5135C81.7209 35.3985 80.7345 34.8758 80.0396 34.0545L52.5673 55.8273C52.9833 56.3922 53.2537 57.0502 53.3548 57.7435C53.4559 58.4367 53.3845 59.1441 53.147 59.8035Z" fill="#1D1D1B"/>
            <path d="M70.2649 55.2019C69.1724 54.9738 68.2111 54.3331 67.583 53.4143C66.9549 52.4955 66.7088 51.3702 66.8963 50.2746C67.0839 49.1789 67.6906 48.1983 68.5889 47.5386C69.4873 46.8789 70.6075 46.5914 71.7142 46.7365C72.2801 46.7986 72.828 46.9723 73.3257 47.2476C73.8234 47.5229 74.2609 47.8942 74.6128 48.3398C75.1424 49.0171 75.4587 49.8353 75.5218 50.6913C75.5848 51.5473 75.3918 52.4028 74.9671 53.1497L74.0814 52.6687C74.414 52.0952 74.5657 51.4354 74.5169 50.775C74.468 50.1145 74.221 49.484 73.8077 48.9651C73.5412 48.6246 73.2085 48.3412 72.8294 48.1318C72.4503 47.9224 72.0327 47.7914 71.6015 47.7466C70.7313 47.6478 69.8572 47.8956 69.1699 48.436C68.4939 48.9847 68.0557 49.7711 67.946 50.6325C67.8983 51.0626 67.9362 51.4979 68.0578 51.9134C68.1794 52.3288 68.3822 52.7163 68.6546 53.0535C69.1139 53.6383 69.7627 54.0463 70.4904 54.2079L70.2649 55.2019Z" fill="#1D1D1B"/>
            <path d="M78.7513 47.1856H78.5098C78.2392 47.1622 77.9764 47.0831 77.738 46.9534C77.4996 46.8237 77.2909 46.6462 77.1249 46.4321C76.9423 46.2105 76.8079 45.9536 76.7303 45.6776C76.6526 45.4016 76.6335 45.1125 76.674 44.8288C76.7041 44.5593 76.788 44.2985 76.9208 44.0617C77.0535 43.8249 77.2324 43.617 77.447 43.4499C77.8812 43.1095 78.433 42.9538 78.9821 43.0169C79.5311 43.08 80.0328 43.3567 80.3778 43.7866C80.7188 44.2164 80.8747 44.7632 80.8113 45.3072C80.7479 45.8513 80.4704 46.348 80.0396 46.6886C79.6833 47.0016 79.2265 47.1779 78.7513 47.1856ZM78.7513 43.5622C78.3955 43.5633 78.0501 43.6817 77.769 43.8989C77.4485 44.1592 77.2409 44.5324 77.1893 44.941C77.1428 45.3528 77.2582 45.7665 77.5114 46.0954C77.7768 46.4181 78.158 46.6251 78.5742 46.6726C78.9845 46.7101 79.3937 46.5896 79.7175 46.3359C80.0355 46.0727 80.2396 45.6978 80.2876 45.2889C80.3356 44.88 80.2237 44.4684 79.9752 44.1394C79.8319 43.9487 79.6476 43.7922 79.4359 43.6812C79.2242 43.5703 78.9904 43.5077 78.7513 43.498V43.5622Z" fill="#1D1D1B"/>
            <path d="M62.5675 58.6489C62.4022 58.527 62.251 58.3872 62.1166 58.2321C61.8961 57.9601 61.7479 57.6373 61.6856 57.2933C61.6232 56.9494 61.6487 56.5954 61.7598 56.2638C61.8708 55.9322 62.0639 55.6338 62.3211 55.396C62.5783 55.1581 62.8914 54.9885 63.2317 54.9027C63.572 54.8169 63.9285 54.8176 64.2685 54.9049C64.6084 54.9922 64.9208 55.1631 65.177 55.4021C65.4331 55.641 65.6249 55.9403 65.7345 56.2723C65.8441 56.6044 65.8681 56.9585 65.8042 57.3022L65.2889 57.206C65.3275 56.9878 65.3202 56.764 65.2675 56.5488C65.2149 56.3335 65.118 56.1315 64.983 55.9554C64.698 55.7215 64.341 55.5922 63.9717 55.5891C63.6024 55.5861 63.2433 55.7096 62.9545 55.9388C62.6658 56.1681 62.4649 56.4892 62.3857 56.8483C62.3064 57.2074 62.3535 57.5828 62.5192 57.9114C62.6168 58.0284 62.7307 58.131 62.8573 58.2161L62.5675 58.6489Z" fill="#1D1D1B"/>
            <path d="M81.3279 73.4955L80.9092 72.5656L113.647 58.0718L105.515 39.8744L61.9717 59.162L62.02 59.2903L61.086 59.7072L60.619 58.649L106.03 38.5276L115 58.5848L81.3279 73.4955Z" fill="#1D1D1B"/>
            <path d="M81.1668 70.6579L80.9575 70.1929L107.029 58.6492C106.638 57.6645 106.615 56.573 106.964 55.5728C107.312 54.5726 108.01 53.73 108.929 53.198L105.885 46.4481C104.91 46.8506 103.818 46.8655 102.832 46.4897C101.846 46.1138 101.043 45.3759 100.587 44.4279L68.5096 58.6332C68.6371 58.9514 68.7185 59.2861 68.7512 59.6272H68.2519C68.209 59.2499 68.1057 58.8818 67.946 58.537L67.8494 58.4087L68.0748 58.3125L100.845 43.8828L100.942 44.1073C101.15 44.5527 101.445 44.9524 101.81 45.2828C102.175 45.6132 102.602 45.8676 103.067 46.0312C104 46.3519 105.022 46.3002 105.918 45.8869L106.159 45.7747L109.605 53.4545L109.364 53.5667C108.458 54.0218 107.766 54.8108 107.435 55.7659C107.104 56.721 107.161 57.7669 107.592 58.6813L107.689 58.9057L107.464 59.0179L81.1668 70.6579Z" fill="#1D1D1B"/>
            <path d="M87.8014 62.9297C87.0969 62.9354 86.4017 62.7693 85.7766 62.4459C85.1514 62.1224 84.6152 61.6515 84.215 61.0743C83.8147 60.4971 83.5624 59.831 83.4802 59.1344C83.398 58.4377 83.4884 57.7316 83.7434 57.0777C84.161 56.0187 84.975 55.1623 86.014 54.6888C86.5375 54.4491 87.1038 54.3159 87.6798 54.2968C88.2557 54.2778 88.8296 54.3733 89.368 54.5779C89.9064 54.7824 90.3983 55.0919 90.8151 55.4881C91.2318 55.8843 91.565 56.3593 91.7951 56.8853C92.0254 57.4021 92.1511 57.959 92.1648 58.5242C92.1785 59.0894 92.0801 59.6518 91.8752 60.179C91.6702 60.7063 91.3628 61.1881 90.9705 61.5968C90.5781 62.0056 90.1087 62.3332 89.5889 62.561C89.0278 62.8138 88.4173 62.9397 87.8014 62.9297ZM87.8014 55.3461C87.1341 55.3479 86.4827 55.549 85.9315 55.9234C85.3803 56.2979 84.9546 56.8285 84.7096 57.4464C84.3793 58.2533 84.3793 59.1568 84.7096 59.9636C84.8862 60.3573 85.1389 60.7126 85.4534 61.0091C85.7679 61.3055 86.1379 61.5374 86.5424 61.6915C86.9469 61.8456 87.3779 61.9189 87.8108 61.9071C88.2437 61.8954 88.6701 61.7988 89.0656 61.623C89.461 61.4472 89.8178 61.1956 90.1156 60.8825C90.4134 60.5694 90.6463 60.201 90.8011 59.7983C90.9558 59.3955 91.0294 58.9664 91.0176 58.5354C91.0058 58.1043 90.9088 57.6798 90.7323 57.2861C90.4843 56.712 90.0734 56.2226 89.5498 55.8779C89.0263 55.5333 88.413 55.3484 87.7853 55.3461H87.8014Z" fill="#1D1D1B"/>
            <path d="M96.6261 56.8053C96.2214 56.8042 95.8255 56.6872 95.4858 56.4683C95.146 56.2494 94.8766 55.9378 94.7098 55.5707C94.5399 55.1955 94.4862 54.7783 94.5558 54.3726C94.6254 53.9668 94.8149 53.591 95.1003 53.2931C95.3856 52.9953 95.7537 52.789 96.1575 52.7006C96.5613 52.6122 96.9823 52.6458 97.3668 52.797C97.6215 52.8924 97.8542 53.0382 98.0507 53.2255C98.2472 53.4129 98.4035 53.638 98.5102 53.8873C98.733 54.3871 98.748 54.9544 98.5519 55.4652C98.3557 55.976 97.9644 56.3886 97.4635 56.6129C97.2018 56.7373 96.916 56.8029 96.6261 56.8053ZM96.6261 53.1658C96.4102 53.1662 96.1966 53.2098 95.9981 53.2941C95.622 53.469 95.3283 53.7818 95.1783 54.1672C95.0282 54.5525 95.0335 54.9807 95.1929 55.3623C95.3715 55.7339 95.6869 56.0228 96.0736 56.169C96.4604 56.3153 96.8889 56.3077 97.2702 56.1479C97.6395 55.9702 97.9268 55.6589 98.0734 55.2776C98.22 54.8962 98.215 54.4735 98.0593 54.0957C97.889 53.716 97.5772 53.4171 97.1897 53.262C97.0081 53.2022 96.8172 53.175 96.6261 53.1818V53.1658Z" fill="#1D1D1B"/>
            <path d="M79.1218 97H26.7215C26.3635 97.0022 26.0087 96.9335 25.6775 96.7981C25.3464 96.6627 25.0455 96.4632 24.7924 96.2112C24.5392 95.9591 24.3389 95.6596 24.2029 95.3299C24.0668 95.0002 23.9979 94.6469 24 94.2905V61.6153C23.9979 61.2581 24.0668 60.904 24.2026 60.5734C24.3384 60.2428 24.5385 59.9422 24.7914 59.6889C25.0444 59.4356 25.3451 59.2346 25.6763 59.0974C26.0076 58.9603 26.3628 58.8896 26.7215 58.8896H79.1218C79.4805 58.8896 79.8358 58.9603 80.167 59.0974C80.4982 59.2346 80.799 59.4356 81.0519 59.6889C81.3048 59.9422 81.5049 60.2428 81.6407 60.5734C81.7766 60.904 81.8454 61.2581 81.8433 61.6153V94.2905C81.8454 94.6469 81.7765 95.0002 81.6405 95.3299C81.5044 95.6596 81.3041 95.9591 81.0509 96.2112C80.7978 96.4632 80.4969 96.6627 80.1658 96.7981C79.8346 96.9335 79.4798 97.0022 79.1218 97ZM26.7215 60.012C26.2944 60.012 25.8848 60.1809 25.5828 60.4816C25.2808 60.7822 25.1112 61.19 25.1112 61.6153V94.2905C25.1112 94.7157 25.2808 95.1235 25.5828 95.4242C25.8848 95.7249 26.2944 95.8938 26.7215 95.8938H79.1218C79.5489 95.8938 79.9585 95.7249 80.2605 95.4242C80.5625 95.1235 80.7321 94.7157 80.7321 94.2905V61.6153C80.7321 61.19 80.5625 60.7822 80.2605 60.4816C79.9585 60.1809 79.5489 60.012 79.1218 60.012H26.7215Z" fill="#1D1D1B"/>
            <path d="M31.7457 85.5364H30.7795V86.0494H31.7457V85.5364Z" fill="#1D1D1B"/>
            <path d="M71.988 86.0655H70.0717V85.5525H71.988V86.0655ZM67.5112 86.0655H65.5949V85.5525H67.5112V86.0655ZM63.0345 86.0655H61.1987V85.5525H63.115L63.0345 86.0655ZM58.5578 86.0655H56.6415V85.5525H58.5578V86.0655ZM54.0972 86.0655H52.1809V85.5525H54.0972V86.0655ZM49.6204 86.0655H47.7041V85.5525H49.6204V86.0655ZM45.1437 86.0655H43.2274V85.5525H45.0954L45.1437 86.0655ZM40.667 86.0655H38.7507V85.5525H40.667V86.0655ZM36.2063 86.0655H34.29V85.5525H36.2063V86.0655Z" fill="#1D1D1B"/>
            <path d="M75.5146 85.5364H74.5484V86.0494H75.5146V85.5364Z" fill="#1D1D1B"/>
            <path d="M52.9216 89.9614H30.8762V90.4745H52.9216V89.9614Z" fill="#1D1D1B"/>
            <path d="M45.0954 76.0449H32.7119C32.0713 76.0449 31.4569 75.7916 31.0039 75.3405C30.5509 74.8895 30.2964 74.2778 30.2964 73.64V68.6537C30.2964 68.0159 30.5509 67.4042 31.0039 66.9532C31.4569 66.5022 32.0713 66.2488 32.7119 66.2488H45.0954C45.736 66.2488 46.3504 66.5022 46.8034 66.9532C47.2564 67.4042 47.5109 68.0159 47.5109 68.6537V73.5598C47.5217 73.8823 47.4672 74.2037 47.3506 74.5048C47.2341 74.8059 47.0579 75.0806 46.8325 75.3124C46.6071 75.5443 46.3372 75.7287 46.0387 75.8545C45.7403 75.9804 45.4195 76.0451 45.0954 76.0449ZM32.7119 67.3871C32.3745 67.3871 32.0509 67.5206 31.8123 67.7581C31.5738 67.9956 31.4397 68.3178 31.4397 68.6537V73.5598C31.444 73.893 31.5799 74.211 31.818 74.4451C32.0561 74.6792 32.3773 74.8104 32.7119 74.8104H45.0954C45.4285 74.8104 45.748 74.6786 45.9835 74.4441C46.2191 74.2096 46.3514 73.8915 46.3514 73.5598V68.6537C46.3535 68.4882 46.3226 68.3238 46.2605 68.1702C46.1983 68.0166 46.1061 67.8769 45.9893 67.7591C45.8724 67.6412 45.7332 67.5477 45.5798 67.4838C45.4263 67.42 45.2617 67.3871 45.0954 67.3871H32.7119Z" fill="#1D1D1B"/>
            <path d="M76.674 94.2742H28.992C28.6756 94.2764 28.3619 94.2161 28.0689 94.097C27.7759 93.9779 27.5095 93.8023 27.285 93.5802C27.0605 93.3582 26.8823 93.0941 26.7607 92.8032C26.6391 92.5124 26.5765 92.2004 26.5765 91.8853V63.7154C26.5765 63.4003 26.6391 63.0884 26.7607 62.7975C26.8823 62.5066 27.0605 62.2425 27.285 62.0205C27.5095 61.7984 27.7759 61.6228 28.0689 61.5037C28.3619 61.3846 28.6756 61.3244 28.992 61.3265H76.674C77.3104 61.3265 77.9207 61.5782 78.3707 62.0262C78.8207 62.4742 79.0734 63.0818 79.0734 63.7154V91.8853C79.0734 92.5189 78.8207 93.1265 78.3707 93.5746C77.9207 94.0226 77.3104 94.2742 76.674 94.2742ZM28.992 61.8235C28.4909 61.8277 28.0117 62.0289 27.6588 62.3833C27.3059 62.7376 27.1079 63.2164 27.1079 63.7154V91.8853C27.1079 92.3828 27.3065 92.86 27.6598 93.2118C28.0131 93.5636 28.4923 93.7612 28.992 93.7612H76.674C76.9215 93.7612 77.1665 93.7127 77.3951 93.6184C77.6236 93.5241 77.8313 93.386 78.0063 93.2118C78.1813 93.0376 78.32 92.8308 78.4147 92.6032C78.5094 92.3756 78.5581 92.1317 78.5581 91.8853V63.7154C78.5603 63.4677 78.5131 63.222 78.4194 62.9926C78.3256 62.7632 78.1872 62.5545 78.012 62.3786C77.8369 62.2027 77.6284 62.0631 77.3988 61.9678C77.1692 61.8725 76.9228 61.8235 76.674 61.8235H28.992Z" fill="#1D1D1B"/>
            <path d="M75.5951 89.9614H63.0023V90.4745H75.5951V89.9614Z" fill="#1D1D1B"/>
        </g>
    </g>
    <defs>
        <clipPath id="clip0">
            <rect x="24" y="27" width="91" height="70" fill="white"/>
        </clipPath>
    </defs>
</svg>
