<svg width="57" height="63" viewBox="0 0 57 63" fill="none" xmlns="http://www.w3.org/2000/svg">
    <g clip-path="url(#clip0)">
        <path d="M2.79435 39.4723C2.79518 40.0768 2.89072 40.7352 2.7864 41.2769C2.62587 42.0959 2.33626 42.839 2.09922 43.6136C2.04596 43.7211 2.08904 43.8867 2.22419 44.0939C2.35934 44.3011 2.58185 44.5426 2.86962 44.7945C3.15738 45.0464 3.50038 45.2998 3.86453 45.5297C4.22868 45.7596 4.60131 45.9579 4.94538 46.1049C7.76098 47.3314 10.5741 48.5533 13.3848 49.7707C13.7551 49.9331 14.0869 50.0391 14.3498 50.0791C14.5485 50.097 14.6561 50.0402 14.6552 49.9179C14.6544 49.7956 14.5451 49.6149 14.3451 49.405C14.1423 49.1913 13.8626 48.9607 13.5466 48.7466C13.2307 48.5324 12.8949 48.346 12.5882 48.2143C11.4498 47.71 10.3204 47.2293 9.18364 46.7349C8.88698 46.6056 8.59133 46.4747 8.13253 46.2708C9.12957 46.2642 10.0476 46.2674 10.9506 46.2565C19.1443 46.1979 26.1332 45.1669 31.8238 43.1771C34.0054 42.3912 35.982 41.4586 37.6794 40.3317C39.3976 39.2886 40.8368 38.0534 41.9913 36.6311C42.883 35.4767 43.7298 34.2913 44.3914 32.9919C45.1863 31.3582 45.6742 29.5335 45.8526 27.5264C46.0897 25.1994 46.0126 22.7073 44.8803 19.6187C43.9457 17.0792 42.3786 14.2539 39.5642 10.8925C38.6038 9.74372 37.4327 8.52053 36.3338 7.32336C36.1079 7.09339 35.8559 6.85733 35.5818 6.61871L34.923 6.19739C33.3887 5.52939 33.1116 5.74812 34.1632 6.83001C38.2073 10.9822 40.4558 14.3954 41.6969 17.415C42.7453 20.0754 43.1859 22.4257 43.0107 24.4226C42.9387 25.8731 42.7585 27.2656 42.4448 28.5638C42.2317 29.5281 41.8427 30.3888 41.4156 31.2208C40.8868 32.2494 40.3399 33.2687 39.605 34.1655C38.7523 35.2084 37.7517 36.1546 36.7063 37.0698C34.7002 38.7648 32.2093 40.1301 29.2494 41.1571C25.7194 42.4113 21.6609 43.2778 17.097 43.7515C13.7116 44.1143 10.0772 44.2775 6.19375 44.2412L5.61411 44.2262C5.68079 43.7812 5.75673 43.4226 5.78519 43.0247C5.82388 42.3963 5.80325 41.7343 5.85239 41.1148C5.88168 41.0119 5.80381 40.8475 5.63131 40.6479C5.45881 40.4483 5.20171 40.2252 4.90139 40.0145C4.61018 39.7988 4.28348 39.602 3.97554 39.4567C3.6676 39.3115 3.39695 39.2265 3.20851 39.2159C3.14948 39.2073 3.08001 39.1897 3.01627 39.1757L2.79435 39.4723Z" fill="#01FFFF"/>
    </g>
    <defs>
        <clipPath id="clip0">
            <rect width="50.8831" height="34" transform="matrix(-0.538773 0.842451 0.842451 0.538773 27.4146 0.974854)" fill="white"/>
        </clipPath>
    </defs>
</svg>
