<svg width="320" height="648" viewBox="0 0 320 648" fill="none" xmlns="http://www.w3.org/2000/svg">
    <g filter="url(#filter0_d)">
        <rect x="20" y="16" width="280" height="608" rx="26" fill="#15E9E9"/>
    </g>
    <rect opacity="0.2" x="40" y="164" width="240" height="50" rx="13" fill="black"/>
    <rect opacity="0.2" x="40" y="224" width="240" height="50" rx="13" fill="black"/>
    <rect opacity="0.2" x="40" y="284" width="240" height="50" rx="13" fill="black"/>
    <path fill-rule="evenodd" clip-rule="evenodd" d="M171.738 297.266C172.087 297.621 172.087 298.197 171.738 298.552L155.667 314.916C155.496 315.089 155.264 315.185 155.022 315.182C154.781 315.178 154.551 315.075 154.386 314.896L147.243 307.169C146.905 306.803 146.922 306.228 147.281 305.883C147.64 305.539 148.205 305.557 148.543 305.922L155.055 312.967L170.476 297.266C170.824 296.911 171.39 296.911 171.738 297.266Z" fill="black" stroke="black" stroke-width="2"/>
    <rect opacity="0.2" x="40" y="344" width="240" height="50" rx="13" fill="black"/>
    <rect opacity="0.2" x="40" y="404" width="240" height="50" rx="13" fill="black"/>
    <path fill-rule="evenodd" clip-rule="evenodd" d="M172.738 419.266C173.087 419.621 173.087 420.197 172.738 420.552L156.667 436.916C156.496 437.089 156.264 437.185 156.022 437.182C155.781 437.178 155.551 437.075 155.386 436.896L148.243 429.169C147.905 428.803 147.922 428.228 148.281 427.883C148.64 427.539 149.205 427.557 149.543 427.922L156.055 434.967L171.476 419.266C171.824 418.911 172.39 418.911 172.738 419.266Z" fill="black" stroke="black" stroke-width="2"/>
    <rect opacity="0.2" x="40" y="464" width="240" height="50" rx="13" fill="black"/>
    <rect opacity="0.2" x="40" y="524" width="240" height="50" rx="13" fill="black"/>
    <path fill-rule="evenodd" clip-rule="evenodd" d="M172.738 180.266C173.087 180.621 173.087 181.197 172.738 181.552L156.667 197.916C156.496 198.089 156.264 198.185 156.022 198.182C155.781 198.178 155.551 198.075 155.386 197.896L148.243 190.169C147.905 189.803 147.922 189.228 148.281 188.883C148.64 188.539 149.205 188.557 149.543 188.922L156.055 195.967L171.476 180.266C171.824 179.911 172.39 179.911 172.738 180.266Z" fill="black" stroke="black" stroke-width="2"/>
    <path fill-rule="evenodd" clip-rule="evenodd" d="M171.738 240.266C172.087 240.621 172.087 241.197 171.738 241.552L155.667 257.916C155.496 258.089 155.264 258.185 155.022 258.182C154.781 258.178 154.551 258.075 154.386 257.896L147.243 250.169C146.905 249.803 146.922 249.228 147.281 248.883C147.64 248.539 148.205 248.557 148.543 248.922L155.055 255.967L170.476 240.266C170.824 239.911 171.39 239.911 171.738 240.266Z" fill="black" stroke="black" stroke-width="2"/>
    <rect x="147" y="487" width="28" height="3" rx="1.5" fill="#363737"/>
    <rect x="146" y="548" width="28" height="3" rx="1.5" fill="#363737"/>
    <path d="M64.408 73C68.98 73 71.392 70.12 71.392 66.52C71.392 63.496 69.34 61.012 66.784 60.616C69.052 60.148 70.924 58.132 70.924 55.108C70.924 51.904 68.584 48.988 64.012 48.988H51.376V73H64.408ZM62.896 58.6H56.488V53.38H62.896C64.624 53.38 65.704 54.496 65.704 56.008C65.704 57.52 64.624 58.6 62.896 58.6ZM63.076 68.572H56.488V62.992H63.076C65.092 62.992 66.172 64.288 66.172 65.8C66.172 67.528 65.02 68.572 63.076 68.572ZM79.7111 73V48.988H75.1391V73H79.7111ZM99.2566 73V61.768C99.2566 56.764 95.6206 55.18 91.6606 55.18C88.9246 55.18 86.1886 56.044 84.0646 57.916L85.7926 60.976C87.2686 59.608 88.9966 58.924 90.8686 58.924C93.1726 58.924 94.6846 60.076 94.6846 61.84V64.18C93.5326 62.812 91.4806 62.056 89.1766 62.056C86.4046 62.056 83.1286 63.604 83.1286 67.672C83.1286 71.56 86.4046 73.432 89.1766 73.432C91.4446 73.432 93.4966 72.604 94.6846 71.2V73H99.2566ZM91.0126 70.336C89.2126 70.336 87.7366 69.4 87.7366 67.78C87.7366 66.088 89.2126 65.152 91.0126 65.152C92.4886 65.152 93.9286 65.656 94.6846 66.664V68.824C93.9286 69.832 92.4886 70.336 91.0126 70.336ZM111.891 73.432C115.455 73.432 117.615 71.884 118.767 70.264L115.779 67.492C114.951 68.644 113.691 69.364 112.107 69.364C109.335 69.364 107.391 67.312 107.391 64.288C107.391 61.264 109.335 59.248 112.107 59.248C113.691 59.248 114.951 59.896 115.779 61.12L118.767 58.312C117.615 56.728 115.455 55.18 111.891 55.18C106.527 55.18 102.675 58.96 102.675 64.288C102.675 69.652 106.527 73.432 111.891 73.432ZM138.748 73L131.656 63.496L138.532 55.612H132.916L126.328 63.352V48.988H121.756V73H126.328V68.536L128.416 66.304L133.024 73H138.748Z" fill="black"/>
    <path d="M59.6298 109H57.6378V104.944H50.0298V103.288L56.8938 92.992H59.6298V103.192H61.8858V104.944H59.6298V109ZM57.6378 103.192V94.84L52.0218 103.192H57.6378Z" fill="#075E5E"/>
    <path d="M69.1006 109.264C67.2606 109.264 65.7806 108.624 64.6606 107.344L65.6686 105.856C66.5966 106.944 67.7406 107.488 69.1006 107.488C70.1246 107.488 70.9886 107.168 71.6926 106.528C72.3966 105.888 72.8926 105.112 73.1806 104.2C73.4686 103.288 73.6126 102.296 73.6126 101.224C73.6126 100.936 73.6046 100.72 73.5886 100.576C73.1886 101.216 72.5726 101.792 71.7406 102.304C70.9086 102.816 70.0206 103.072 69.0766 103.072C67.5566 103.072 66.3006 102.632 65.3086 101.752C64.3166 100.856 63.8206 99.592 63.8206 97.96C63.8206 96.52 64.3326 95.288 65.3566 94.264C66.3806 93.24 67.7326 92.728 69.4126 92.728C70.5006 92.728 71.4526 92.952 72.2686 93.4C73.0846 93.848 73.7246 94.464 74.1886 95.248C74.6686 96.032 75.0206 96.904 75.2446 97.864C75.4846 98.824 75.6046 99.872 75.6046 101.008C75.6046 102.512 75.3806 103.872 74.9326 105.088C74.4846 106.288 73.7566 107.288 72.7486 108.088C71.7566 108.872 70.5406 109.264 69.1006 109.264ZM69.5326 101.344C70.3166 101.344 71.0686 101.128 71.7886 100.696C72.5246 100.264 73.1006 99.688 73.5166 98.968C73.4206 97.784 73.0446 96.744 72.3886 95.848C71.7326 94.952 70.7726 94.504 69.5086 94.504C68.3726 94.504 67.4766 94.856 66.8206 95.56C66.1646 96.264 65.8366 97.04 65.8366 97.888C65.8366 99.008 66.1806 99.864 66.8686 100.456C67.5566 101.048 68.4446 101.344 69.5326 101.344Z" fill="#075E5E"/>
    <path d="M89.4678 109.264C87.6278 109.264 86.1478 108.624 85.0278 107.344L86.0358 105.856C86.9638 106.944 88.1078 107.488 89.4678 107.488C90.4918 107.488 91.3558 107.168 92.0598 106.528C92.7638 105.888 93.2598 105.112 93.5478 104.2C93.8358 103.288 93.9798 102.296 93.9798 101.224C93.9798 100.936 93.9718 100.72 93.9558 100.576C93.5558 101.216 92.9398 101.792 92.1078 102.304C91.2758 102.816 90.3878 103.072 89.4438 103.072C87.9238 103.072 86.6678 102.632 85.6758 101.752C84.6838 100.856 84.1878 99.592 84.1878 97.96C84.1878 96.52 84.6998 95.288 85.7238 94.264C86.7478 93.24 88.0998 92.728 89.7798 92.728C90.8678 92.728 91.8198 92.952 92.6358 93.4C93.4518 93.848 94.0918 94.464 94.5558 95.248C95.0358 96.032 95.3878 96.904 95.6118 97.864C95.8518 98.824 95.9718 99.872 95.9718 101.008C95.9718 102.512 95.7478 103.872 95.2998 105.088C94.8518 106.288 94.1238 107.288 93.1158 108.088C92.1238 108.872 90.9078 109.264 89.4678 109.264ZM89.8998 101.344C90.6838 101.344 91.4358 101.128 92.1558 100.696C92.8918 100.264 93.4678 99.688 93.8838 98.968C93.7878 97.784 93.4118 96.744 92.7558 95.848C92.0998 94.952 91.1398 94.504 89.8758 94.504C88.7398 94.504 87.8438 94.856 87.1878 95.56C86.5318 96.264 86.2038 97.04 86.2038 97.888C86.2038 99.008 86.5478 99.864 87.2358 100.456C87.9238 101.048 88.8118 101.344 89.8998 101.344Z" fill="#075E5E"/>
    <path d="M104.535 109.288C103.479 109.288 102.543 109.048 101.727 108.568C100.927 108.072 100.287 107.416 99.8075 106.6C99.3435 105.784 98.9915 104.904 98.7515 103.96C98.5275 103.016 98.4155 102.032 98.4155 101.008C98.4155 99.984 98.5275 99 98.7515 98.056C98.9915 97.112 99.3435 96.24 99.8075 95.44C100.287 94.624 100.927 93.976 101.727 93.496C102.543 93 103.479 92.752 104.535 92.752C105.575 92.752 106.503 93 107.319 93.496C108.135 93.976 108.775 94.624 109.239 95.44C109.719 96.24 110.071 97.112 110.295 98.056C110.535 99 110.655 99.984 110.655 101.008C110.655 102.032 110.535 103.016 110.295 103.96C110.071 104.904 109.719 105.784 109.239 106.6C108.775 107.416 108.135 108.072 107.319 108.568C106.503 109.048 105.575 109.288 104.535 109.288ZM102.135 106.528C102.775 107.184 103.575 107.512 104.535 107.512C105.495 107.512 106.295 107.184 106.935 106.528C107.575 105.856 108.015 105.056 108.255 104.128C108.495 103.2 108.615 102.16 108.615 101.008C108.615 99.856 108.495 98.816 108.255 97.888C108.015 96.96 107.575 96.168 106.935 95.512C106.295 94.856 105.495 94.528 104.535 94.528C103.575 94.528 102.775 94.856 102.135 95.512C101.495 96.168 101.055 96.96 100.815 97.888C100.575 98.816 100.455 99.856 100.455 101.008C100.455 102.16 100.575 103.2 100.815 104.128C101.055 105.056 101.495 105.856 102.135 106.528Z" fill="#075E5E"/>
    <path d="M119.231 109.288C118.175 109.288 117.239 109.048 116.423 108.568C115.623 108.072 114.983 107.416 114.503 106.6C114.039 105.784 113.687 104.904 113.447 103.96C113.223 103.016 113.111 102.032 113.111 101.008C113.111 99.984 113.223 99 113.447 98.056C113.687 97.112 114.039 96.24 114.503 95.44C114.983 94.624 115.623 93.976 116.423 93.496C117.239 93 118.175 92.752 119.231 92.752C120.271 92.752 121.199 93 122.015 93.496C122.831 93.976 123.471 94.624 123.935 95.44C124.415 96.24 124.767 97.112 124.991 98.056C125.231 99 125.351 99.984 125.351 101.008C125.351 102.032 125.231 103.016 124.991 103.96C124.767 104.904 124.415 105.784 123.935 106.6C123.471 107.416 122.831 108.072 122.015 108.568C121.199 109.048 120.271 109.288 119.231 109.288ZM116.831 106.528C117.471 107.184 118.271 107.512 119.231 107.512C120.191 107.512 120.991 107.184 121.631 106.528C122.271 105.856 122.711 105.056 122.951 104.128C123.191 103.2 123.311 102.16 123.311 101.008C123.311 99.856 123.191 98.816 122.951 97.888C122.711 96.96 122.271 96.168 121.631 95.512C120.991 94.856 120.191 94.528 119.231 94.528C118.271 94.528 117.471 94.856 116.831 95.512C116.191 96.168 115.751 96.96 115.511 97.888C115.271 98.816 115.151 99.856 115.151 101.008C115.151 102.16 115.271 103.2 115.511 104.128C115.751 105.056 116.191 105.856 116.831 106.528Z" fill="#075E5E"/>
    <path d="M135.098 109V105.736H133.01V104.176H135.098V102.04H133.01V100.216H135.098V91.864H139.61C141.706 91.864 143.258 92.288 144.266 93.136C145.29 93.984 145.802 95.216 145.802 96.832C145.802 98.464 145.25 99.744 144.146 100.672C143.042 101.584 141.418 102.04 139.274 102.04H137.258V104.176H141.218V105.736H137.258V109H135.098ZM137.258 100.216H138.962C140.418 100.216 141.546 99.976 142.346 99.496C143.162 99.016 143.57 98.152 143.57 96.904C143.57 95.816 143.234 95.008 142.562 94.48C141.89 93.952 140.842 93.688 139.418 93.688H137.258V100.216Z" fill="#075E5E"/>
    <path d="M141.44 375.24C144.48 375.24 146.54 373.26 146.54 370.66C146.54 367.82 144.4 366.32 142 366.32C140.54 366.32 139.2 367.14 138.58 368.04C138.56 367.94 138.56 367.86 138.56 367.76C138.56 365.64 139.94 363.98 141.9 363.98C143.08 363.98 143.84 364.34 144.56 365.02L145.84 362.84C144.88 362.02 143.52 361.46 141.9 361.46C137.96 361.46 135.68 364.32 135.68 368.36C135.68 372.12 137.38 375.24 141.44 375.24ZM141.28 372.72C139.42 372.72 138.7 371.3 138.58 370.02C139.22 369.22 140.18 368.76 141.18 368.76C142.46 368.76 143.66 369.36 143.66 370.76C143.66 371.7 142.82 372.72 141.28 372.72ZM164.965 375V365.34H161.605L159.265 371.1L156.885 365.34H153.545V375H156.085V368.72L158.685 375H159.845L162.425 368.72V375H164.965ZM172.03 375.24C173.53 375.24 175.05 374.78 176.01 373.9L174.89 372.26C174.27 372.86 173.13 373.22 172.31 373.22C170.67 373.22 169.69 372.2 169.53 370.98H176.71V370.42C176.71 367.26 174.75 365.1 171.87 365.1C168.93 365.1 166.87 367.36 166.87 370.16C166.87 373.26 169.09 375.24 172.03 375.24ZM174.25 369.26H169.49C169.61 368.3 170.29 367.12 171.87 367.12C173.55 367.12 174.19 368.34 174.25 369.26ZM183.045 375.24C185.025 375.24 186.225 374.38 186.865 373.48L185.205 371.94C184.745 372.58 184.045 372.98 183.165 372.98C181.625 372.98 180.545 371.84 180.545 370.16C180.545 368.48 181.625 367.36 183.165 367.36C184.045 367.36 184.745 367.72 185.205 368.4L186.865 366.84C186.225 365.96 185.025 365.1 183.045 365.1C180.065 365.1 177.925 367.2 177.925 370.16C177.925 373.14 180.065 375.24 183.045 375.24Z" fill="black"/>
    <defs>
        <filter id="filter0_d" x="0" y="0" width="320" height="648" filterUnits="userSpaceOnUse" color-interpolation-filters="sRGB">
            <feFlood flood-opacity="0" result="BackgroundImageFix"/>
            <feColorMatrix in="SourceAlpha" type="matrix" values="0 0 0 0 0 0 0 0 0 0 0 0 0 0 0 0 0 0 127 0"/>
            <feOffset dy="4"/>
            <feGaussianBlur stdDeviation="10"/>
            <feColorMatrix type="matrix" values="0 0 0 0 0 0 0 0 0 0 0 0 0 0 0 0 0 0 0.25 0"/>
            <feBlend mode="normal" in2="BackgroundImageFix" result="effect1_dropShadow"/>
            <feBlend mode="normal" in="SourceGraphic" in2="effect1_dropShadow" result="shape"/>
        </filter>
    </defs>
</svg>
