<svg width="152" height="328" viewBox="0 0 152 328" fill="none" xmlns="http://www.w3.org/2000/svg">
    <g filter="url(#filter0_d)">
        <rect x="20" y="16" width="112" height="288" rx="10" fill="#15E9E9"/>
    </g>
    <rect opacity="0.2" x="28" y="72" width="96" height="24" rx="4" fill="black"/>
    <rect opacity="0.2" x="28" y="104" width="96" height="24" rx="4" fill="black"/>
    <rect opacity="0.2" x="28" y="136" width="96" height="24" rx="4" fill="black"/>
    <path fill-rule="evenodd" clip-rule="evenodd" d="M84.2082 141.145C84.4051 141.338 84.4051 141.652 84.2082 141.845L75.1313 150.758C75.0349 150.853 74.9035 150.905 74.7671 150.903C74.6307 150.901 74.501 150.845 74.4075 150.747L70.3734 146.538C70.1825 146.339 70.1922 146.026 70.395 145.838C70.5978 145.651 70.9169 145.661 71.1078 145.86L74.7857 149.697L83.495 141.145C83.6919 140.952 84.0112 140.952 84.2082 141.145Z" fill="black" stroke="black"/>
    <rect opacity="0.2" x="28" y="168" width="96" height="24" rx="4" fill="black"/>
    <rect opacity="0.2" x="28" y="200" width="96" height="24" rx="4" fill="black"/>
    <path fill-rule="evenodd" clip-rule="evenodd" d="M84.2082 206.145C84.4051 206.338 84.4051 206.652 84.2082 206.845L75.1313 215.758C75.0349 215.853 74.9035 215.905 74.7671 215.903C74.6307 215.901 74.501 215.845 74.4075 215.747L70.3734 211.538C70.1825 211.339 70.1922 211.026 70.395 210.838C70.5978 210.651 70.9169 210.661 71.1078 210.86L74.7857 214.697L83.495 206.145C83.6919 205.952 84.0112 205.952 84.2082 206.145Z" fill="black" stroke="black"/>
    <rect opacity="0.2" x="28" y="232" width="96" height="24" rx="4" fill="black"/>
    <rect opacity="0.2" x="28" y="264" width="96" height="24" rx="4" fill="black"/>
    <path fill-rule="evenodd" clip-rule="evenodd" d="M84.2082 77.145C84.4051 77.3384 84.4051 77.6519 84.2082 77.8453L75.1313 86.7578C75.0349 86.8525 74.9035 86.9048 74.7671 86.9028C74.6307 86.9007 74.501 86.8446 74.4075 86.747L70.3734 82.5383C70.1825 82.3392 70.1922 82.0258 70.395 81.8384C70.5978 81.651 70.9169 81.6605 71.1078 81.8596L74.7857 85.6967L83.495 77.145C83.6919 76.9517 84.0112 76.9517 84.2082 77.145Z" fill="black" stroke="black"/>
    <path fill-rule="evenodd" clip-rule="evenodd" d="M84.0675 109.683C84.2645 109.876 84.2645 110.19 84.0675 110.383L74.9907 119.296C74.8943 119.391 74.7629 119.443 74.6265 119.441C74.4901 119.439 74.3604 119.383 74.2669 119.286L70.2328 115.077C70.0419 114.878 70.0516 114.564 70.2544 114.377C70.4572 114.189 70.7763 114.199 70.9672 114.398L74.6451 118.235L83.3544 109.683C83.5513 109.49 83.8706 109.49 84.0675 109.683Z" fill="black" stroke="black"/>
    <rect x="69" y="241" width="15.35" height="1.63399" rx="0.816994" fill="#363737"/>
    <rect x="69" y="275" width="15.35" height="1.63399" rx="0.816994" fill="#363737"/>
    <path d="M35.9485 42.0784C38.455 42.0784 39.7773 40.5098 39.7773 38.549C39.7773 36.902 38.6523 35.549 37.2511 35.3333C38.4944 35.0784 39.5207 33.9804 39.5207 32.3333C39.5207 30.5882 38.2379 29 35.7314 29H28.8042V42.0784H35.9485ZM35.1196 34.2353H31.6067V31.3922H35.1196C36.0669 31.3922 36.659 32 36.659 32.8235C36.659 33.6471 36.0669 34.2353 35.1196 34.2353ZM35.2183 39.6667H31.6067V36.6275H35.2183C36.3235 36.6275 36.9156 37.3333 36.9156 38.1569C36.9156 39.098 36.284 39.6667 35.2183 39.6667Z" fill="black"/>
    <path d="M44.3379 42.0784V29H41.8315V42.0784H44.3379Z" fill="black"/>
    <path d="M55.053 42.0784V35.9608C55.053 33.2353 53.0597 32.3726 50.8888 32.3726C49.3889 32.3726 47.8889 32.8431 46.7245 33.8627L47.6718 35.5294C48.481 34.7843 49.4283 34.4118 50.4546 34.4118C51.7177 34.4118 52.5466 35.0392 52.5466 36V37.2745C51.915 36.5294 50.7901 36.1177 49.527 36.1177C48.0074 36.1177 46.2114 36.9608 46.2114 39.1765C46.2114 41.2941 48.0074 42.3137 49.527 42.3137C50.7704 42.3137 51.8953 41.8628 52.5466 41.098V42.0784H55.053ZM50.5335 40.6275C49.5467 40.6275 48.7376 40.1177 48.7376 39.2353C48.7376 38.3137 49.5467 37.8039 50.5335 37.8039C51.3427 37.8039 52.1321 38.0784 52.5466 38.6275V39.8039C52.1321 40.3529 51.3427 40.6275 50.5335 40.6275Z" fill="black"/>
    <path d="M61.9796 42.3137C63.9335 42.3137 65.1176 41.4706 65.7491 40.5882L64.1111 39.0784C63.6572 39.7059 62.9664 40.098 62.098 40.098C60.5784 40.098 59.5127 38.9804 59.5127 37.3333C59.5127 35.6863 60.5784 34.5882 62.098 34.5882C62.9664 34.5882 63.6572 34.9412 64.1111 35.6078L65.7491 34.0784C65.1176 33.2157 63.9335 32.3726 61.9796 32.3726C59.039 32.3726 56.9273 34.4314 56.9273 37.3333C56.9273 40.2549 59.039 42.3137 61.9796 42.3137Z" fill="black"/>
    <path d="M76.7029 42.0784L72.815 36.902L76.5845 32.6078H73.5057L69.8941 36.8235V29H67.3877V42.0784H69.8941V39.6471L71.0388 38.4314L73.5649 42.0784H76.7029Z" fill="black"/>
    <path d="M65.1577 183.505C66.8243 183.505 67.9536 182.427 67.9536 181.011C67.9536 179.464 66.7804 178.647 65.4647 178.647C64.6643 178.647 63.9297 179.094 63.5898 179.584C63.5789 179.529 63.5789 179.486 63.5789 179.431C63.5789 178.277 64.3354 177.373 65.4099 177.373C66.0568 177.373 66.4734 177.569 66.8681 177.939L67.5699 176.752C67.0436 176.305 66.298 176 65.4099 176C63.2499 176 62 177.558 62 179.758C62 181.806 62.932 183.505 65.1577 183.505ZM65.07 182.133C64.0503 182.133 63.6556 181.359 63.5898 180.662C63.9407 180.227 64.467 179.976 65.0152 179.976C65.7169 179.976 66.3747 180.303 66.3747 181.065C66.3747 181.577 65.9142 182.133 65.07 182.133Z" fill="black"/>
    <path d="M78.0545 183.375V178.113H76.2125L74.9297 181.251L73.625 178.113H71.7939V183.375H73.1864V179.954L74.6118 183.375H75.2477L76.6621 179.954V183.375H78.0545Z" fill="black"/>
    <path d="M81.9278 183.505C82.7502 183.505 83.5834 183.255 84.1097 182.776L83.4957 181.882C83.1558 182.209 82.5309 182.405 82.0813 182.405C81.1823 182.405 80.645 181.85 80.5573 181.185H84.4935V180.88C84.4935 179.159 83.419 177.983 81.8401 177.983C80.2284 177.983 79.0991 179.214 79.0991 180.739C79.0991 182.427 80.3161 183.505 81.9278 183.505ZM83.1449 180.248H80.5354C80.6012 179.725 80.9739 179.083 81.8401 179.083C82.7611 179.083 83.112 179.747 83.1449 180.248Z" fill="black"/>
    <path d="M87.9663 183.505C89.0517 183.505 89.7096 183.037 90.0604 182.547L89.1504 181.708C88.8982 182.057 88.5145 182.275 88.032 182.275C87.1878 182.275 86.5957 181.654 86.5957 180.739C86.5957 179.824 87.1878 179.214 88.032 179.214C88.5145 179.214 88.8982 179.41 89.1504 179.78L90.0604 178.93C89.7096 178.451 89.0517 177.983 87.9663 177.983C86.3326 177.983 85.1594 179.126 85.1594 180.739C85.1594 182.362 86.3326 183.505 87.9663 183.505Z" fill="black"/>
    <defs>
        <filter id="filter0_d" x="0" y="0" width="152" height="328" filterUnits="userSpaceOnUse" color-interpolation-filters="sRGB">
            <feFlood flood-opacity="0" result="BackgroundImageFix"/>
            <feColorMatrix in="SourceAlpha" type="matrix" values="0 0 0 0 0 0 0 0 0 0 0 0 0 0 0 0 0 0 127 0"/>
            <feOffset dy="4"/>
            <feGaussianBlur stdDeviation="10"/>
            <feColorMatrix type="matrix" values="0 0 0 0 0 0 0 0 0 0 0 0 0 0 0 0 0 0 0.25 0"/>
            <feBlend mode="normal" in2="BackgroundImageFix" result="effect1_dropShadow"/>
            <feBlend mode="normal" in="SourceGraphic" in2="effect1_dropShadow" result="shape"/>
        </filter>
    </defs>
</svg>
