<svg width="122" height="61" viewBox="0 0 122 61" fill="none" xmlns="http://www.w3.org/2000/svg">
    <path d="M119.79 44.0198C122.75 44.0198 121.881 41.4191 121.881 38.2546V20.5683C121.881 17.3654 122.75 14.7646 119.79 14.7646H114.406V44.0198H119.79Z" fill="#F2F2F2"/>
    <path d="M103.762 60.2143H6.6648C4.9011 60.2126 3.20985 59.5263 1.96089 58.3055C0.711932 57.0847 0.00690885 55.4287 0 53.6996L0 6.52748C0.00345842 4.79622 0.706959 3.13693 1.95629 1.91334C3.20562 0.689747 4.89884 0.00169234 6.6648 0H103.762C105.528 -8.32269e-07 107.222 0.68751 108.472 1.91147C109.722 3.13542 110.425 4.7957 110.427 6.52748V53.6996C110.421 55.4292 109.717 57.0862 108.468 58.3074C107.218 59.5285 105.526 60.2143 103.762 60.2143ZM6.6648 2.10109C5.46733 2.10109 4.3189 2.56744 3.47216 3.39755C2.62542 4.22766 2.14972 5.35353 2.14972 6.52748V53.6996C2.14972 54.8736 2.62542 55.9994 3.47216 56.8295C4.3189 57.6597 5.46733 58.126 6.6648 58.126H103.762C104.958 58.1243 106.105 57.6572 106.95 56.8273C107.796 55.9974 108.27 54.8725 108.27 53.6996V6.52748C108.27 5.35464 107.796 4.22974 106.95 3.39982C106.105 2.56989 104.958 2.10279 103.762 2.10109H6.6648Z" fill="#F2F2F2"/>
    <rect x="5" y="5" width="100" height="50" rx="3" fill="#01FFFF"/>
</svg>
