<svg width="322" height="634" viewBox="0 0 322 634" fill="none" xmlns="http://www.w3.org/2000/svg">
    <g filter="url(#filter0_d)">
        <rect x="20" y="16" width="282" height="594" rx="26" fill="#101116"/>
    </g>
    <rect opacity="0.2" x="41" y="150" width="240" height="50" rx="13" fill="#3A3A3A"/>
    <rect opacity="0.2" x="40" y="210" width="240" height="50" rx="13" fill="#3A3A3A"/>
    <rect opacity="0.2" x="41" y="270" width="240" height="50" rx="13" fill="#3A3A3A"/>
    <path fill-rule="evenodd" clip-rule="evenodd" d="M172.738 284.266C173.087 284.621 173.087 285.197 172.738 285.552L156.667 301.916C156.496 302.089 156.264 302.185 156.022 302.182C155.781 302.178 155.551 302.075 155.386 301.896L148.243 294.169C147.905 293.803 147.922 293.228 148.281 292.883C148.64 292.539 149.205 292.557 149.543 292.922L156.055 299.967L171.476 284.266C171.824 283.911 172.39 283.911 172.738 284.266Z" fill="url(#paint0_linear)" stroke="url(#paint1_linear)" stroke-width="2"/>
    <rect opacity="0.2" x="40" y="330" width="240" height="50" rx="13" fill="#3A3A3A"/>
    <rect opacity="0.2" x="41" y="390" width="240" height="50" rx="13" fill="#3A3A3A"/>
    <path fill-rule="evenodd" clip-rule="evenodd" d="M173.738 406.266C174.087 406.621 174.087 407.197 173.738 407.552L157.667 423.916C157.496 424.089 157.264 424.185 157.022 424.182C156.781 424.178 156.551 424.075 156.386 423.896L149.243 416.169C148.905 415.803 148.922 415.228 149.281 414.883C149.64 414.539 150.205 414.557 150.543 414.922L157.055 421.967L172.476 406.266C172.824 405.911 173.39 405.911 173.738 406.266Z" fill="url(#paint2_linear)" stroke="url(#paint3_linear)" stroke-width="2"/>
    <rect opacity="0.2" x="41" y="450" width="240" height="50" rx="13" fill="#3A3A3A"/>
    <path fill-rule="evenodd" clip-rule="evenodd" d="M173.738 462.266C174.087 462.621 174.087 463.197 173.738 463.552L157.667 479.916C157.496 480.089 157.264 480.185 157.022 480.182C156.781 480.178 156.551 480.075 156.386 479.896L149.243 472.169C148.905 471.803 148.922 471.228 149.281 470.883C149.64 470.539 150.205 470.557 150.543 470.922L157.055 477.967L172.476 462.266C172.824 461.911 173.39 461.911 173.738 462.266Z" fill="url(#paint4_linear)" stroke="url(#paint5_linear)" stroke-width="2"/>
    <rect opacity="0.2" x="41" y="510" width="240" height="50" rx="13" fill="#3A3A3A"/>
    <path fill-rule="evenodd" clip-rule="evenodd" d="M172.738 523.266C173.087 523.621 173.087 524.197 172.738 524.552L156.667 540.916C156.496 541.089 156.264 541.185 156.022 541.182C155.781 541.178 155.551 541.075 155.386 540.896L148.243 533.169C147.905 532.803 147.922 532.228 148.281 531.883C148.64 531.539 149.205 531.557 149.543 531.922L156.055 538.967L171.476 523.266C171.824 522.911 172.39 522.911 172.738 523.266Z" fill="url(#paint6_linear)" stroke="url(#paint7_linear)" stroke-width="2"/>
    <path fill-rule="evenodd" clip-rule="evenodd" d="M173.738 166.266C174.087 166.621 174.087 167.197 173.738 167.552L157.667 183.916C157.496 184.089 157.264 184.185 157.022 184.182C156.781 184.178 156.551 184.075 156.386 183.896L149.243 176.169C148.905 175.803 148.922 175.228 149.281 174.883C149.64 174.539 150.205 174.557 150.543 174.922L157.055 181.967L172.476 166.266C172.824 165.911 173.39 165.911 173.738 166.266Z" fill="url(#paint8_linear)" stroke="url(#paint9_linear)" stroke-width="2"/>
    <path fill-rule="evenodd" clip-rule="evenodd" d="M171.738 226.266C172.087 226.621 172.087 227.197 171.738 227.552L155.667 243.916C155.496 244.089 155.264 244.185 155.022 244.182C154.781 244.178 154.551 244.075 154.386 243.896L147.243 236.169C146.905 235.803 146.922 235.228 147.281 234.883C147.64 234.539 148.205 234.557 148.543 234.922L155.055 241.967L170.476 226.266C170.824 225.911 171.39 225.911 171.738 226.266Z" fill="url(#paint10_linear)" stroke="url(#paint11_linear)" stroke-width="2"/>
    <g filter="url(#filter1_i)">
        <path d="M64.004 68.468C68.36 68.468 71.78 66.668 74.228 63.932V54.716H62.78V59.18H69.116V62.06C68.144 62.96 66.128 63.896 64.004 63.896C59.648 63.896 56.48 60.548 56.48 56.012C56.48 51.476 59.648 48.128 64.004 48.128C66.56 48.128 68.612 49.568 69.692 51.26L73.94 48.956C72.14 46.112 69.008 43.592 64.004 43.592C56.984 43.592 51.224 48.416 51.224 56.012C51.224 63.572 56.984 68.468 64.004 68.468Z" fill="url(#paint12_linear)"/>
        <path d="M86.2422 68.432C92.0022 68.432 95.4582 64.256 95.4582 59.288C95.4582 54.356 92.0022 50.18 86.2422 50.18C80.5182 50.18 77.0622 54.356 77.0622 59.288C77.0622 64.256 80.5182 68.432 86.2422 68.432ZM86.2422 64.364C83.3982 64.364 81.8142 62.024 81.8142 59.288C81.8142 56.588 83.3982 54.248 86.2422 54.248C89.0862 54.248 90.7062 56.588 90.7062 59.288C90.7062 62.024 89.0862 64.364 86.2422 64.364Z" fill="url(#paint13_linear)"/>
        <path d="M103.422 68V43.988H98.85V68H103.422Z" fill="url(#paint14_linear)"/>
        <path d="M124.516 68V43.988H119.908V52.844C118.54 51.08 116.596 50.18 114.544 50.18C110.116 50.18 106.84 53.636 106.84 59.324C106.84 65.12 110.152 68.432 114.544 68.432C116.632 68.432 118.54 67.496 119.908 65.768V68H124.516ZM115.948 64.364C113.356 64.364 111.556 62.312 111.556 59.324C111.556 56.3 113.356 54.248 115.948 54.248C117.495 54.248 119.152 55.076 119.908 56.228V62.384C119.152 63.536 117.495 64.364 115.948 64.364Z" fill="url(#paint15_linear)"/>
    </g>
    <g filter="url(#filter2_i)">
        <path d="M57.3529 103.288C60.5689 103.288 63.0409 101.272 63.0409 98.008C63.0409 94.72 60.6169 92.896 57.9529 92.896C56.3449 92.896 54.9769 93.568 54.2089 94.336V88.768H62.0089V86.992H52.2169V95.632L53.6809 96.136C54.7609 95.08 55.9609 94.624 57.3769 94.624C59.5369 94.624 61.0489 95.968 61.0489 98.08C61.0489 100.024 59.5369 101.512 57.3529 101.512C55.3849 101.512 53.9929 100.744 52.9369 99.4L51.7129 100.72C52.9129 102.304 54.6409 103.288 57.3529 103.288Z" fill="url(#paint16_linear)"/>
        <path d="M71.5091 103.288C74.7251 103.288 77.1971 101.272 77.1971 98.008C77.1971 94.72 74.7731 92.896 72.1091 92.896C70.5011 92.896 69.1331 93.568 68.3651 94.336V88.768H76.1651V86.992H66.3731V95.632L67.8371 96.136C68.9171 95.08 70.1171 94.624 71.5331 94.624C73.6931 94.624 75.2051 95.968 75.2051 98.08C75.2051 100.024 73.6931 101.512 71.5091 101.512C69.5411 101.512 68.1491 100.744 67.0931 99.4L65.8691 100.72C67.0691 102.304 68.7971 103.288 71.5091 103.288Z" fill="url(#paint17_linear)"/>
        <path d="M91.9729 103.288C96.3409 103.288 98.0929 98.896 98.0929 95.008C98.0929 91.096 96.3409 86.752 91.9729 86.752C87.5809 86.752 85.8529 91.096 85.8529 95.008C85.8529 98.896 87.5809 103.288 91.9729 103.288ZM91.9729 101.512C88.9249 101.512 87.8929 98.2 87.8929 95.008C87.8929 91.816 88.9249 88.528 91.9729 88.528C95.0209 88.528 96.0529 91.816 96.0529 95.008C96.0529 98.2 95.0209 101.512 91.9729 101.512Z" fill="url(#paint18_linear)"/>
        <path d="M106.668 103.288C111.036 103.288 112.788 98.896 112.788 95.008C112.788 91.096 111.036 86.752 106.668 86.752C102.276 86.752 100.548 91.096 100.548 95.008C100.548 98.896 102.276 103.288 106.668 103.288ZM106.668 101.512C103.62 101.512 102.588 98.2 102.588 95.008C102.588 91.816 103.62 88.528 106.668 88.528C109.716 88.528 110.748 91.816 110.748 95.008C110.748 98.2 109.716 101.512 106.668 101.512Z" fill="url(#paint19_linear)"/>
        <path d="M121.364 103.288C125.732 103.288 127.484 98.896 127.484 95.008C127.484 91.096 125.732 86.752 121.364 86.752C116.972 86.752 115.244 91.096 115.244 95.008C115.244 98.896 116.972 103.288 121.364 103.288ZM121.364 101.512C118.316 101.512 117.284 98.2 117.284 95.008C117.284 91.816 118.316 88.528 121.364 88.528C124.412 88.528 125.444 91.816 125.444 95.008C125.444 98.2 124.412 101.512 121.364 101.512Z" fill="url(#paint20_linear)"/>
        <path d="M137.23 103V99.736H135.142V98.176H137.23V96.04H135.142V94.216H137.23V85.864H141.742C143.838 85.864 145.39 86.288 146.398 87.136C147.422 87.984 147.934 89.216 147.934 90.832C147.934 92.464 147.382 93.744 146.278 94.672C145.174 95.584 143.55 96.04 141.406 96.04H139.39V98.176H143.35V99.736H139.39V103H137.23ZM139.39 94.216H141.094C142.55 94.216 143.678 93.976 144.478 93.496C145.294 93.016 145.702 92.152 145.702 90.904C145.702 89.816 145.366 89.008 144.694 88.48C144.022 87.952 142.974 87.688 141.55 87.688H139.39V94.216Z" fill="url(#paint21_linear)"/>
    </g>
    <path d="M136.9 361V347.66H134.42L130.22 351.88L131.84 353.58L134.06 351.32V361H136.9ZM149.203 361V358.5H143.763C147.223 355.98 149.103 354 149.103 351.72C149.103 349.06 146.843 347.46 144.003 347.46C142.143 347.46 140.163 348.14 138.863 349.64L140.483 351.52C141.383 350.58 142.543 349.98 144.063 349.98C145.163 349.98 146.223 350.56 146.223 351.72C146.223 353.36 144.623 354.74 139.163 358.78V361H149.203ZM168.012 361V351.34H164.652L162.312 357.1L159.932 351.34H156.592V361H159.132V354.72L161.732 361H162.892L165.472 354.72V361H168.012ZM175.077 361.24C176.577 361.24 178.097 360.78 179.057 359.9L177.937 358.26C177.317 358.86 176.177 359.22 175.357 359.22C173.717 359.22 172.737 358.2 172.577 356.98H179.757V356.42C179.757 353.26 177.797 351.1 174.917 351.1C171.977 351.1 169.917 353.36 169.917 356.16C169.917 359.26 172.137 361.24 175.077 361.24ZM177.297 355.26H172.537C172.657 354.3 173.337 353.12 174.917 353.12C176.597 353.12 177.237 354.34 177.297 355.26ZM186.092 361.24C188.072 361.24 189.272 360.38 189.912 359.48L188.252 357.94C187.792 358.58 187.092 358.98 186.212 358.98C184.672 358.98 183.592 357.84 183.592 356.16C183.592 354.48 184.672 353.36 186.212 353.36C187.092 353.36 187.792 353.72 188.252 354.4L189.912 352.84C189.272 351.96 188.072 351.1 186.092 351.1C183.112 351.1 180.972 353.2 180.972 356.16C180.972 359.14 183.112 361.24 186.092 361.24Z" fill="url(#paint22_linear)"/>
    <defs>
        <filter id="filter0_d" x="0" y="0" width="322" height="634" filterUnits="userSpaceOnUse" color-interpolation-filters="sRGB">
            <feFlood flood-opacity="0" result="BackgroundImageFix"/>
            <feColorMatrix in="SourceAlpha" type="matrix" values="0 0 0 0 0 0 0 0 0 0 0 0 0 0 0 0 0 0 127 0"/>
            <feOffset dy="4"/>
            <feGaussianBlur stdDeviation="10"/>
            <feColorMatrix type="matrix" values="0 0 0 0 0 0 0 0 0 0 0 0 0 0 0 0 0 0 0.25 0"/>
            <feBlend mode="normal" in2="BackgroundImageFix" result="effect1_dropShadow"/>
            <feBlend mode="normal" in="SourceGraphic" in2="effect1_dropShadow" result="shape"/>
        </filter>
        <filter id="filter1_i" x="51.224" y="43.592" width="73.2915" height="24.876" filterUnits="userSpaceOnUse" color-interpolation-filters="sRGB">
            <feFlood flood-opacity="0" result="BackgroundImageFix"/>
            <feBlend mode="normal" in="SourceGraphic" in2="BackgroundImageFix" result="shape"/>
            <feColorMatrix in="SourceAlpha" type="matrix" values="0 0 0 0 0 0 0 0 0 0 0 0 0 0 0 0 0 0 127 0" result="hardAlpha"/>
            <feOffset/>
            <feGaussianBlur stdDeviation="1"/>
            <feComposite in2="hardAlpha" operator="arithmetic" k2="-1" k3="1"/>
            <feColorMatrix type="matrix" values="0 0 0 0 0 0 0 0 0 0 0 0 0 0 0 0 0 0 0.25 0"/>
            <feBlend mode="normal" in2="shape" result="effect1_innerShadow"/>
        </filter>
        <filter id="filter2_i" x="51.7129" y="85.864" width="96.2214" height="17.424" filterUnits="userSpaceOnUse" color-interpolation-filters="sRGB">
            <feFlood flood-opacity="0" result="BackgroundImageFix"/>
            <feBlend mode="normal" in="SourceGraphic" in2="BackgroundImageFix" result="shape"/>
            <feColorMatrix in="SourceAlpha" type="matrix" values="0 0 0 0 0 0 0 0 0 0 0 0 0 0 0 0 0 0 127 0" result="hardAlpha"/>
            <feOffset/>
            <feGaussianBlur stdDeviation="2"/>
            <feComposite in2="hardAlpha" operator="arithmetic" k2="-1" k3="1"/>
            <feColorMatrix type="matrix" values="0 0 0 0 0 0 0 0 0 0 0 0 0 0 0 0 0 0 0.25 0"/>
            <feBlend mode="normal" in2="shape" result="effect1_innerShadow"/>
        </filter>
        <linearGradient id="paint0_linear" x1="149.629" y1="284.298" x2="170.354" y2="290.472" gradientUnits="userSpaceOnUse">
            <stop stop-color="#E9D415"/>
            <stop offset="0.528899" stop-color="#DEA106"/>
            <stop offset="0.703125" stop-color="#FFE695"/>
            <stop offset="1" stop-color="#F0CF22"/>
        </linearGradient>
        <linearGradient id="paint1_linear" x1="149.629" y1="284.298" x2="170.354" y2="290.472" gradientUnits="userSpaceOnUse">
            <stop stop-color="#E9D415"/>
            <stop offset="0.528899" stop-color="#DEA106"/>
            <stop offset="0.703125" stop-color="#FFE695"/>
            <stop offset="1" stop-color="#F0CF22"/>
        </linearGradient>
        <linearGradient id="paint2_linear" x1="150.629" y1="406.298" x2="171.354" y2="412.472" gradientUnits="userSpaceOnUse">
            <stop stop-color="#E9D415"/>
            <stop offset="0.528899" stop-color="#DEA106"/>
            <stop offset="0.703125" stop-color="#FFE695"/>
            <stop offset="1" stop-color="#F0CF22"/>
        </linearGradient>
        <linearGradient id="paint3_linear" x1="150.629" y1="406.298" x2="171.354" y2="412.472" gradientUnits="userSpaceOnUse">
            <stop stop-color="#E9D415"/>
            <stop offset="0.528899" stop-color="#DEA106"/>
            <stop offset="0.703125" stop-color="#FFE695"/>
            <stop offset="1" stop-color="#F0CF22"/>
        </linearGradient>
        <linearGradient id="paint4_linear" x1="150.629" y1="462.298" x2="171.354" y2="468.472" gradientUnits="userSpaceOnUse">
            <stop stop-color="#E9D415"/>
            <stop offset="0.528899" stop-color="#DEA106"/>
            <stop offset="0.703125" stop-color="#FFE695"/>
            <stop offset="1" stop-color="#F0CF22"/>
        </linearGradient>
        <linearGradient id="paint5_linear" x1="150.629" y1="462.298" x2="171.354" y2="468.472" gradientUnits="userSpaceOnUse">
            <stop stop-color="#E9D415"/>
            <stop offset="0.528899" stop-color="#DEA106"/>
            <stop offset="0.703125" stop-color="#FFE695"/>
            <stop offset="1" stop-color="#F0CF22"/>
        </linearGradient>
        <linearGradient id="paint6_linear" x1="149.629" y1="523.298" x2="170.354" y2="529.472" gradientUnits="userSpaceOnUse">
            <stop stop-color="#E9D415"/>
            <stop offset="0.528899" stop-color="#DEA106"/>
            <stop offset="0.703125" stop-color="#FFE695"/>
            <stop offset="1" stop-color="#F0CF22"/>
        </linearGradient>
        <linearGradient id="paint7_linear" x1="149.629" y1="523.298" x2="170.354" y2="529.472" gradientUnits="userSpaceOnUse">
            <stop stop-color="#E9D415"/>
            <stop offset="0.528899" stop-color="#DEA106"/>
            <stop offset="0.703125" stop-color="#FFE695"/>
            <stop offset="1" stop-color="#F0CF22"/>
        </linearGradient>
        <linearGradient id="paint8_linear" x1="150.629" y1="166.298" x2="171.354" y2="172.472" gradientUnits="userSpaceOnUse">
            <stop stop-color="#E9D415"/>
            <stop offset="0.528899" stop-color="#DEA106"/>
            <stop offset="0.703125" stop-color="#FFE695"/>
            <stop offset="1" stop-color="#F0CF22"/>
        </linearGradient>
        <linearGradient id="paint9_linear" x1="150.629" y1="166.298" x2="171.354" y2="172.472" gradientUnits="userSpaceOnUse">
            <stop stop-color="#E9D415"/>
            <stop offset="0.528899" stop-color="#DEA106"/>
            <stop offset="0.703125" stop-color="#FFE695"/>
            <stop offset="1" stop-color="#F0CF22"/>
        </linearGradient>
        <linearGradient id="paint10_linear" x1="148.629" y1="226.298" x2="169.354" y2="232.472" gradientUnits="userSpaceOnUse">
            <stop stop-color="#E9D415"/>
            <stop offset="0.528899" stop-color="#DEA106"/>
            <stop offset="0.703125" stop-color="#FFE695"/>
            <stop offset="1" stop-color="#F0CF22"/>
        </linearGradient>
        <linearGradient id="paint11_linear" x1="148.629" y1="226.298" x2="169.354" y2="232.472" gradientUnits="userSpaceOnUse">
            <stop stop-color="#E9D415"/>
            <stop offset="0.528899" stop-color="#DEA106"/>
            <stop offset="0.703125" stop-color="#FFE695"/>
            <stop offset="1" stop-color="#F0CF22"/>
        </linearGradient>
        <linearGradient id="paint12_linear" x1="56" y1="44" x2="103" y2="74" gradientUnits="userSpaceOnUse">
            <stop stop-color="#E9D415"/>
            <stop offset="0.528899" stop-color="#DEA106"/>
            <stop offset="0.703125" stop-color="#FFE695"/>
            <stop offset="1" stop-color="#F0CF22"/>
        </linearGradient>
        <linearGradient id="paint13_linear" x1="56" y1="44" x2="103" y2="74" gradientUnits="userSpaceOnUse">
            <stop stop-color="#E9D415"/>
            <stop offset="0.528899" stop-color="#DEA106"/>
            <stop offset="0.703125" stop-color="#FFE695"/>
            <stop offset="1" stop-color="#F0CF22"/>
        </linearGradient>
        <linearGradient id="paint14_linear" x1="56" y1="44" x2="103" y2="74" gradientUnits="userSpaceOnUse">
            <stop stop-color="#E9D415"/>
            <stop offset="0.528899" stop-color="#DEA106"/>
            <stop offset="0.703125" stop-color="#FFE695"/>
            <stop offset="1" stop-color="#F0CF22"/>
        </linearGradient>
        <linearGradient id="paint15_linear" x1="56" y1="44" x2="103" y2="74" gradientUnits="userSpaceOnUse">
            <stop stop-color="#E9D415"/>
            <stop offset="0.528899" stop-color="#DEA106"/>
            <stop offset="0.703125" stop-color="#FFE695"/>
            <stop offset="1" stop-color="#F0CF22"/>
        </linearGradient>
        <linearGradient id="paint16_linear" x1="57.9831" y1="86.1498" x2="93.7015" y2="128.883" gradientUnits="userSpaceOnUse">
            <stop stop-color="#E9D415"/>
            <stop offset="0.528899" stop-color="#FFF1CE"/>
            <stop offset="1" stop-color="#F0CF22"/>
        </linearGradient>
        <linearGradient id="paint17_linear" x1="57.9831" y1="86.1498" x2="93.7015" y2="128.883" gradientUnits="userSpaceOnUse">
            <stop stop-color="#E9D415"/>
            <stop offset="0.528899" stop-color="#FFF1CE"/>
            <stop offset="1" stop-color="#F0CF22"/>
        </linearGradient>
        <linearGradient id="paint18_linear" x1="57.9831" y1="86.1498" x2="93.7015" y2="128.883" gradientUnits="userSpaceOnUse">
            <stop stop-color="#E9D415"/>
            <stop offset="0.528899" stop-color="#FFF1CE"/>
            <stop offset="1" stop-color="#F0CF22"/>
        </linearGradient>
        <linearGradient id="paint19_linear" x1="57.9831" y1="86.1498" x2="93.7015" y2="128.883" gradientUnits="userSpaceOnUse">
            <stop stop-color="#E9D415"/>
            <stop offset="0.528899" stop-color="#FFF1CE"/>
            <stop offset="1" stop-color="#F0CF22"/>
        </linearGradient>
        <linearGradient id="paint20_linear" x1="57.9831" y1="86.1498" x2="93.7015" y2="128.883" gradientUnits="userSpaceOnUse">
            <stop stop-color="#E9D415"/>
            <stop offset="0.528899" stop-color="#FFF1CE"/>
            <stop offset="1" stop-color="#F0CF22"/>
        </linearGradient>
        <linearGradient id="paint21_linear" x1="57.9831" y1="86.1498" x2="93.7015" y2="128.883" gradientUnits="userSpaceOnUse">
            <stop stop-color="#E9D415"/>
            <stop offset="0.528899" stop-color="#FFF1CE"/>
            <stop offset="1" stop-color="#F0CF22"/>
        </linearGradient>
        <linearGradient id="paint22_linear" x1="134.04" y1="343.492" x2="180.654" y2="364.363" gradientUnits="userSpaceOnUse">
            <stop stop-color="#E9D415"/>
            <stop offset="0.528899" stop-color="#DEA106"/>
            <stop offset="0.703125" stop-color="#FFE695"/>
            <stop offset="1" stop-color="#F0CF22"/>
        </linearGradient>
    </defs>
</svg>
