<svg width="215" height="210" viewBox="0 0 215 210" fill="none" xmlns="http://www.w3.org/2000/svg">
    <rect x="9.48535" y="6.26866" width="205.515" height="203.731" rx="18" fill="#10C5C5"/>
    <rect width="205.515" height="203.731" rx="18" fill="#15E9E9"/>
    <g clip-path="url(#clip0)">
        <path opacity="0.7" d="M172.815 158.064L165.242 144.904C165.125 144.697 164.955 144.525 164.75 144.406C164.544 144.287 164.31 144.225 164.072 144.227C163.837 144.224 163.606 144.285 163.403 144.404L162.164 145.119C161.356 143.435 160.625 141.827 160.263 140.973C159.798 139.274 159.438 137.548 159.185 135.805C158.231 130.482 156.923 123.206 154.768 119.653C153.752 117.976 143.901 100.916 143.801 100.739L143.739 100.647L141.053 96.032C140.16 94.4937 136.982 92.7478 133.842 92.7478C133.222 92.7431 132.604 92.8155 132.002 92.9631C131.074 93.1883 130.211 93.6239 129.478 94.236C128.745 94.8482 128.163 95.6206 127.777 96.4935C127.66 96.7535 127.567 97.0239 127.5 97.3011C125.541 95.4337 122.97 94.3404 120.266 94.2245C119.584 94.2214 118.905 94.2988 118.242 94.4553C117.154 94.7544 116.149 95.295 115.3 96.0369C114.451 96.7787 113.781 97.7025 113.339 98.7394C113.144 99.1879 113.015 99.6619 112.954 100.147C111.683 99.1664 110.251 98.4143 108.721 97.9241V43.4606C108.721 41.2167 107.829 39.0647 106.242 37.4781C104.654 35.8914 102.501 35 100.256 35H59.4658C57.2205 35 55.0672 35.8914 53.4796 37.4781C51.8919 39.0647 51 41.2167 51 43.4606V141.912C51 144.156 51.8919 146.308 53.4796 147.894C55.0672 149.481 57.2205 150.372 59.4658 150.372H100.256C101.183 150.37 102.104 150.214 102.98 149.911C104.165 150.596 105.389 151.319 106.674 152.08C116.679 158.025 117.449 158.325 121.374 159.248C124.288 159.878 126.871 161.549 128.639 163.948C128.716 164.056 128.785 164.163 128.855 164.271L127.031 165.325C126.877 165.412 126.742 165.53 126.634 165.67C126.526 165.81 126.446 165.97 126.4 166.141C126.355 166.312 126.343 166.49 126.367 166.666C126.39 166.841 126.449 167.01 126.538 167.163L134.119 180.323C134.236 180.53 134.406 180.701 134.612 180.82C134.818 180.939 135.051 181.001 135.289 181C135.523 180.999 135.754 180.938 135.958 180.823L172.33 159.91C172.484 159.822 172.619 159.705 172.727 159.565C172.836 159.425 172.915 159.264 172.961 159.094C173.006 158.923 173.018 158.744 172.994 158.569C172.971 158.393 172.912 158.224 172.823 158.072L172.815 158.064ZM100.256 149.026H59.4658C57.5784 149.024 55.7688 148.274 54.4342 146.94C53.0996 145.607 52.3489 143.798 52.3468 141.912V43.4606C52.3489 41.5744 53.0996 39.7659 54.4342 38.4321C55.7688 37.0983 57.5784 36.348 59.4658 36.346H100.256C102.143 36.348 103.953 37.0983 105.287 38.4321C106.622 39.7659 107.373 41.5744 107.375 43.4606V97.578C107.059 97.5165 106.736 97.4703 106.413 97.4396V43.4606C106.413 41.8287 105.764 40.2636 104.609 39.1097C103.455 37.9557 101.889 37.3074 100.256 37.3074H59.4658C57.8329 37.3074 56.2668 37.9557 55.1122 39.1097C53.9575 40.2636 53.3089 41.8287 53.3089 43.4606V141.912C53.3089 143.544 53.9575 145.109 55.1122 146.263C56.2668 147.417 57.8329 148.065 59.4658 148.065H99.7631C100.271 148.35 100.787 148.642 101.302 148.95C100.955 148.998 100.606 149.024 100.256 149.026ZM79.8607 72.0192C77.0515 72.0296 74.3517 73.1087 72.3101 75.0372C70.2685 76.9657 69.0384 79.5988 68.8699 82.4013C68.7013 85.2037 69.6069 87.9651 71.4026 90.1242C73.1983 92.2833 75.7492 93.6779 78.537 94.0245L82.3466 101.07C81.5233 101.19 80.6926 101.251 79.8607 101.255C75.7364 101.267 71.7297 99.8821 68.4938 97.3266C65.2578 94.7711 62.9836 91.1954 62.0417 87.1826C61.0999 83.1697 61.5461 78.9563 63.3076 75.2294C65.069 71.5024 68.0419 68.4818 71.7414 66.6598C75.4409 64.8379 79.6488 64.3222 83.6792 65.1968C87.7096 66.0714 91.3246 68.2847 93.935 71.4759C96.5453 74.6671 97.9969 78.6478 98.0532 82.7692C98.1095 86.8906 96.7671 90.9095 94.2449 94.1707L90.1967 86.9638C90.6885 85.7242 90.9493 84.4052 90.9663 83.0719C90.9643 81.6171 90.6753 80.177 90.1159 78.8339C89.5565 77.4908 88.7377 76.2711 87.7062 75.2446C86.6748 74.2181 85.451 73.4048 84.1048 72.8514C82.7585 72.2979 81.3164 72.0151 79.8607 72.0192ZM79.7299 75.7649C78.6195 75.7697 77.5305 76.0697 76.5744 76.6341C73.1804 78.58 72.38 82.8796 74.6581 86.833L77.7366 92.5016C75.9526 92.0987 74.3189 91.2001 73.0237 89.9095C71.7286 88.6188 70.8247 86.9887 70.4163 85.207C70.0079 83.4253 70.1116 81.5645 70.7154 79.8392C71.3193 78.1138 72.3987 76.5941 73.8292 75.4552C75.2597 74.3163 76.9832 73.6045 78.8009 73.402C80.6186 73.1995 82.4566 73.5145 84.103 74.3106C85.7494 75.1067 87.1372 76.3515 88.1064 77.9016C89.0756 79.4517 89.5868 81.244 89.581 83.0719C89.5807 83.8502 89.4824 84.6255 89.2885 85.3793L86.4025 80.1414C84.8017 77.4186 82.3158 75.7649 79.7299 75.7649ZM82.5544 78.6569C83.5868 80.3633 84.1719 82.3024 84.2552 84.2948C84.2552 85.9869 83.7242 87.2407 82.716 87.8098C80.6072 89.0251 77.0901 86.8868 74.8813 83.0565L74.7197 82.6873C74.6306 81.7226 74.8212 80.7528 75.2689 79.8935C75.7165 79.0342 76.4022 78.3219 77.244 77.8416C77.9978 77.3986 78.8554 77.1625 79.7299 77.1571C80.495 77.1657 81.2489 77.3416 81.9387 77.6724C82.1619 77.9724 82.3774 78.3108 82.5544 78.6569ZM98.6394 83.0719C98.6394 79.36 97.5381 75.7316 95.4746 72.6453C93.4112 69.5591 90.4784 67.1536 87.047 65.7332C83.6156 64.3127 79.8399 63.9411 76.1972 64.6652C72.5545 65.3894 69.2084 67.1768 66.5822 69.8014C63.9559 72.4261 62.1674 75.7701 61.4428 79.4105C60.7183 83.051 61.0901 86.8245 62.5115 90.2538C63.9328 93.683 66.3397 96.6141 69.4278 98.6763C72.516 100.738 76.1466 101.839 79.8607 101.839C80.791 101.831 81.7195 101.757 82.639 101.616L99.1243 132.082C94.3757 130.036 88.4189 128.067 83.0315 128.067C80.7239 127.994 78.4372 128.525 76.3974 129.605C71.5411 132.405 72.5493 136.612 73.0804 137.512C73.4344 138.128 74.2425 138.281 75.851 138.512C78.6155 138.917 81.3345 139.586 83.9705 140.512C88.9626 142.359 93.7877 144.628 98.3931 147.296H59.4658C58.037 147.296 56.6667 146.729 55.6564 145.719C54.6461 144.709 54.0785 143.34 54.0785 141.912V43.3837C54.0785 41.9558 54.6461 40.5863 55.6564 39.5766C56.6667 38.5669 58.037 37.9997 59.4658 37.9997H65.6228V39.4995C65.6228 41.3301 66.8003 42.6915 68.4319 42.6915H91.2742C92.9288 42.6915 94.0987 41.3609 94.0987 39.4995V37.9997H100.256C101.684 37.9997 103.055 38.5669 104.065 39.5766C105.075 40.5863 105.643 41.9558 105.643 43.3837V97.3934C105.127 97.3911 104.612 97.4349 104.104 97.5242C103.033 97.722 102.025 98.169 101.16 98.8292C100.294 99.4893 99.5972 100.344 99.1243 101.324C98.9835 101.622 98.8726 101.934 98.7933 102.254L94.5527 94.7091C97.1976 91.4063 98.6388 87.3021 98.6394 83.0719ZM75.0737 132.428C75.8703 132.49 76.6621 132.603 77.4441 132.767C79.505 133.162 81.4574 133.993 83.1701 135.205C84.54 136.259 85.1788 137.366 84.971 138.343C84.8888 138.693 84.7101 139.012 84.4553 139.266C81.7442 138.314 78.948 137.623 76.105 137.205C75.4781 137.137 74.8594 137.009 74.2579 136.82C73.9765 136.084 73.9038 135.284 74.0477 134.509C74.1917 133.735 74.5467 133.014 75.0737 132.428ZM66.3924 39.6149V37.9997H93.3906V39.6149C93.3906 40.7225 92.8596 42.007 91.3511 42.007H68.4319C67.2313 41.9685 66.3924 40.984 66.3924 39.6149ZM121.682 157.933C117.949 157.056 117.21 156.764 107.359 150.926C97.762 145.227 91.4589 141.796 85.0402 139.474C85.2813 139.181 85.45 138.836 85.5328 138.466C85.7945 137.258 85.0787 135.936 83.5164 134.751C81.7397 133.485 79.7105 132.616 77.5672 132.205C76.9116 132.064 76.2488 131.959 75.5816 131.89C76.0344 131.46 76.5385 131.088 77.0824 130.782C78.9143 129.824 80.965 129.36 83.0315 129.436C89.1885 129.436 96.4768 132.313 100.394 134.12C100.522 134.179 100.666 134.196 100.804 134.168C100.942 134.14 101.068 134.07 101.164 133.966C101.259 133.865 101.32 133.736 101.338 133.598C101.356 133.46 101.33 133.32 101.264 133.197L75.8664 86.2023C75.496 85.5808 75.2014 84.9172 74.989 84.2256C76.8592 86.9791 79.3912 88.6943 81.4538 88.6943C82.0094 88.7039 82.5573 88.5631 83.0392 88.2867C84.2244 87.6098 84.8709 86.1792 84.8555 84.264C84.7696 82.1721 84.1582 80.1354 83.0777 78.3416C83.9486 79.0106 84.6761 79.8476 85.2173 80.8029L105.15 116.084C105.23 116.225 105.358 116.332 105.511 116.386C105.664 116.44 105.831 116.436 105.982 116.376L106.135 116.315C106.231 116.273 106.317 116.213 106.388 116.138C106.46 116.062 106.515 115.973 106.551 115.876C106.585 115.786 106.597 115.689 106.588 115.593C106.578 115.497 106.547 115.405 106.497 115.322L100.34 104.554C100.135 104.145 100.028 103.692 100.029 103.234C100.031 102.776 100.14 102.324 100.348 101.916C100.725 101.127 101.282 100.437 101.974 99.9026C102.667 99.3681 103.475 99.004 104.335 98.8394C104.767 98.7684 105.205 98.735 105.643 98.7394C109.068 98.7394 112.408 100.985 113.208 102.37L118.088 110.884C118.186 111.014 118.323 111.11 118.48 111.157C118.636 111.204 118.803 111.2 118.957 111.146H119.011C119.101 111.11 119.182 111.056 119.249 110.986C119.316 110.916 119.367 110.833 119.398 110.741C119.43 110.65 119.441 110.553 119.431 110.457C119.422 110.361 119.391 110.268 119.342 110.184L114.486 101.724C114.31 101.345 114.224 100.931 114.233 100.514C114.242 100.096 114.347 99.6868 114.54 99.3163C114.893 98.4645 115.433 97.7029 116.121 97.0878C116.808 96.4727 117.625 96.0199 118.511 95.7628C119.087 95.6369 119.676 95.5775 120.266 95.5859C123.344 95.5859 126.33 97.6396 126.992 98.7856L131.14 105.993C131.22 106.133 131.348 106.241 131.501 106.295C131.654 106.348 131.821 106.345 131.972 106.285L132.079 106.239C132.17 106.204 132.252 106.151 132.319 106.082C132.387 106.013 132.439 105.93 132.472 105.839C132.503 105.747 132.515 105.649 132.505 105.552C132.496 105.455 132.466 105.362 132.418 105.277L129.009 99.3471C128.841 98.9732 128.758 98.567 128.766 98.1574C128.774 97.7478 128.873 97.3451 129.055 96.9781C129.356 96.3005 129.808 95.7004 130.376 95.2233C130.944 94.7462 131.614 94.4046 132.333 94.2245C132.837 94.0988 133.354 94.0394 133.873 94.0476C136.651 94.0476 139.306 95.5859 139.922 96.655L142.654 101.408L142.723 101.508C143.608 103.047 152.651 118.699 153.652 120.345C155.676 123.691 157.007 131.113 157.885 136.043C158.145 137.878 158.533 139.693 159.047 141.473C159.409 142.381 160.194 144.05 161.025 145.788L130.024 163.602L129.747 163.186C127.785 160.516 124.919 158.649 121.682 157.933ZM135.281 179.654L127.7 166.525L164.072 145.611L171.653 158.772L135.281 179.654ZM161.04 151.965C160.461 151.964 159.89 152.096 159.371 152.352C158.851 152.607 158.398 152.979 158.045 153.437C157.692 153.896 157.45 154.43 157.337 154.997C157.224 155.565 157.243 156.15 157.393 156.709C157.543 157.268 157.819 157.785 158.201 158.22C158.583 158.654 159.06 158.996 159.595 159.216C160.13 159.437 160.709 159.532 161.286 159.494C161.864 159.455 162.425 159.285 162.926 158.995C163.355 158.748 163.732 158.42 164.034 158.027C164.337 157.635 164.559 157.187 164.687 156.709C164.816 156.231 164.849 155.732 164.785 155.242C164.72 154.751 164.559 154.278 164.311 153.849C163.982 153.276 163.508 152.799 162.937 152.465C162.365 152.132 161.717 151.954 161.055 151.949L161.04 151.965ZM162.641 158.502C162.158 158.785 161.608 158.934 161.048 158.933C160.267 158.937 159.511 158.656 158.921 158.144C158.332 157.632 157.949 156.923 157.844 156.149C157.74 155.376 157.92 154.59 158.352 153.94C158.784 153.29 159.438 152.818 160.192 152.615C160.946 152.411 161.749 152.488 162.45 152.832C163.151 153.176 163.703 153.763 164.003 154.484C164.303 155.205 164.33 156.01 164.079 156.75C163.829 157.489 163.317 158.112 162.641 158.502ZM71.3949 145.758H88.3265C88.4286 145.758 88.5265 145.717 88.5986 145.645C88.6708 145.573 88.7113 145.475 88.7113 145.373C88.7113 145.271 88.6708 145.173 88.5986 145.101C88.5265 145.029 88.4286 144.988 88.3265 144.988H71.3949C71.2928 144.988 71.195 145.029 71.1228 145.101C71.0506 145.173 71.0101 145.271 71.0101 145.373C71.0101 145.475 71.0506 145.573 71.1228 145.645C71.195 145.717 71.2928 145.758 71.3949 145.758Z" fill="black"/>
        <path d="M99.8708 131.659C99.8708 131.659 102.434 136.528 109.876 145.242" stroke="#798183" stroke-width="0.75" stroke-miterlimit="10" stroke-linecap="round"/>
    </g>
    <defs>
        <clipPath id="clip0">
            <rect x="51" y="35" width="122" height="146" fill="white"/>
        </clipPath>
    </defs>
</svg>
