<svg width="140" height="138" viewBox="0 0 140 138" fill="none" xmlns="http://www.w3.org/2000/svg">
    <rect x="6.17651" y="4.11938" width="133.824" height="133.881" rx="18" fill="#10C5C5"/>
    <rect width="133.824" height="133.881" rx="18" fill="#15E9E9"/>
    <g opacity="0.7">
        <path d="M97.4122 46.2941C97.1836 45.6466 96.7666 45.0821 96.2148 44.6734C95.663 44.2646 95.0016 44.0301 94.3155 44L24.3959 44C23.7605 44 23.1511 44.2524 22.7018 44.7017C22.2524 45.1511 22 45.7605 22 46.3959L22 88.9239C22 89.5593 22.2524 90.1687 22.7018 90.6181C23.1511 91.0674 23.7605 91.3198 24.3959 91.3198L94.3095 91.3198C94.9929 91.2899 95.6512 91.0542 96.1985 90.6438C96.7457 90.2334 97.1562 89.6674 97.3763 89.0197C97.3763 89.0197 97.7716 87.666 101.863 87.666C105.954 87.666 106.157 88.9598 106.157 88.9598C106.298 89.61 106.651 90.1948 107.161 90.6221C107.67 91.0495 108.308 91.2949 108.973 91.3198H111.824C112.459 91.3198 113.069 91.0674 113.518 90.6181C113.967 90.1687 114.22 89.5593 114.22 88.9239L114.22 46.3959C114.22 45.7605 113.967 45.1511 113.518 44.7017C113.069 44.2524 112.459 44 111.824 44H108.955C108.271 44.0304 107.612 44.2661 107.064 44.6764C106.516 45.0866 106.104 45.6524 105.882 46.3001C105.882 46.3001 105.469 47.7137 101.641 47.7137C97.8136 47.7137 97.4122 46.2941 97.4122 46.2941ZM101.665 48.7619C105.942 48.7619 106.762 47.1027 106.912 46.5936C107.069 46.1628 107.348 45.787 107.715 45.5125C108.082 45.238 108.521 45.0766 108.979 45.0482H111.848C112.205 45.0482 112.548 45.1902 112.801 45.4429C113.054 45.6957 113.196 46.0385 113.196 46.3959L113.196 88.9239C113.196 89.2813 113.054 89.6241 112.801 89.8769C112.548 90.1296 112.205 90.2716 111.848 90.2716H108.997C108.575 90.2537 108.171 90.0981 107.847 89.8287C107.522 89.5594 107.295 89.191 107.2 88.7801C107.08 88.1272 106.331 86.6178 101.845 86.6178C97.3583 86.6178 96.4958 88.2291 96.3521 88.7262C96.1965 89.1566 95.9187 89.5321 95.5526 89.8066C95.1865 90.0812 94.7482 90.2428 94.2915 90.2716L24.3959 90.2716C24.0385 90.2716 23.6957 90.1296 23.443 89.8769C23.1902 89.6241 23.0482 89.2813 23.0482 88.9239L23.0482 46.3959C23.0482 46.0385 23.1902 45.6957 23.443 45.4429C23.6957 45.1902 24.0385 45.0482 24.3959 45.0482L94.3155 45.0482C94.7764 45.0778 95.2189 45.24 95.5898 45.5152C95.9607 45.7905 96.2441 46.167 96.406 46.5996C96.5138 46.959 97.2865 48.7619 101.665 48.7619ZM94.3155 45.767L24.3959 45.767C24.2371 45.767 24.0847 45.8301 23.9724 45.9424C23.8601 46.0548 23.797 46.2071 23.797 46.366L23.797 88.9239C23.797 89.0827 23.8601 89.2351 23.9724 89.3474C24.0847 89.4598 24.2371 89.5229 24.3959 89.5229L94.3095 89.5229C94.6038 89.4938 94.8844 89.3847 95.121 89.2072C95.3576 89.0298 95.541 88.7909 95.6512 88.5166C95.8848 87.7199 96.957 85.8691 101.863 85.8691C106.768 85.8691 107.769 87.6121 107.954 88.6484C108.019 88.8826 108.153 89.0917 108.339 89.2479C108.525 89.4041 108.755 89.5 108.997 89.5229H111.848C112.007 89.5229 112.159 89.4598 112.271 89.3474C112.384 89.2351 112.447 89.0827 112.447 88.9239L112.447 46.3959C112.447 46.2371 112.384 46.0847 112.271 45.9724C112.159 45.86 112.007 45.7969 111.848 45.7969H108.979C108.684 45.8269 108.403 45.9363 108.166 46.1135C107.928 46.2908 107.743 46.5292 107.631 46.8032C107.445 47.4382 106.433 49.5106 101.641 49.5106C96.8492 49.5106 95.8549 47.4441 95.6512 46.8152C95.5388 46.5423 95.3559 46.3043 95.1212 46.1253C94.8865 45.9464 94.6084 45.8331 94.3155 45.7969V45.767ZM94.3155 46.366C94.4866 46.3967 94.6482 46.4668 94.7875 46.5708C94.9268 46.6747 95.04 46.8097 95.1181 46.965C95.3398 47.6957 96.4659 49.9599 101.665 49.9599C106.864 49.9599 107.99 47.6778 108.206 46.965C108.278 46.8113 108.386 46.6769 108.521 46.5729C108.655 46.4688 108.812 46.3979 108.979 46.366H111.848L111.848 88.9239H108.997C108.894 88.9052 108.798 88.86 108.718 88.7927C108.638 88.7255 108.577 88.6386 108.541 88.5405C108.326 87.3426 107.17 85.33 101.863 85.33C96.7414 85.33 95.4116 87.1988 95.0762 88.3249C95.0043 88.4778 94.8974 88.6117 94.7643 88.7158C94.6311 88.8198 94.4753 88.8911 94.3095 88.9239L24.3959 88.9239L24.3959 46.3959L94.3155 46.366Z" fill="black"/>
        <path d="M95.0762 44.0179V45.0662H107.655V44.0179H95.0762Z" fill="black"/>
        <path d="M95.0763 90.1759V91.2241H108.577V90.1759H95.0763Z" fill="black"/>
        <path d="M36.4657 53.4941V55.2911V55.3689H35.088C34.81 55.3689 34.5434 55.4794 34.3468 55.676C34.1502 55.8725 34.0398 56.1392 34.0398 56.4172V60.5442H35.088V56.4291H45.5103L45.5103 60.5442H46.5586L46.5586 56.4291C46.5586 56.1511 46.4481 55.8845 46.2515 55.6879C46.055 55.4914 45.7883 55.3809 45.5103 55.3809H44.0069V53.4941C44.0069 52.8951 42.9587 52.4459 42.9587 52.4459H37.5139C37.2359 52.4459 36.9693 52.5563 36.7727 52.7529C36.5761 52.9495 36.4657 53.2161 36.4657 53.4941ZM42.9646 53.4941V55.3809H37.5139V53.4941H42.9646ZM35.088 79.3403H45.5103C45.7883 79.3403 46.055 79.2299 46.2515 79.0333C46.4481 78.8367 46.5586 78.5701 46.5586 78.2921V74.6203H45.5103V78.2921H35.088V74.6203H34.0398V78.2921C34.0398 78.5701 34.1502 78.8367 34.3468 79.0333C34.5434 79.2299 34.81 79.3403 35.088 79.3403ZM40.0476 70.2657L38.9215 73.9495L43.8631 67.9596H41.4672L42.9646 62.6466H39.8978L37.1066 70.2657H40.0476Z" fill="black"/>
        <path d="M46.0553 63.5329C46.8051 63.4242 47.5618 63.3701 48.3194 63.3712C49.1098 63.3035 49.9035 63.4548 50.6135 63.8085C50.8943 63.9513 51.1292 64.1703 51.2913 64.4405C51.4534 64.7106 51.5361 65.0209 51.53 65.3359C51.5205 65.7092 51.3914 66.0695 51.1617 66.3639C50.9321 66.6583 50.6139 66.8712 50.2541 66.9711C50.6896 67.0609 51.0806 67.2983 51.3611 67.6432C51.6417 67.9881 51.7944 68.4193 51.7935 68.8639C51.7959 69.1826 51.7247 69.4976 51.5855 69.7843C51.4463 70.0711 51.2428 70.3218 50.9909 70.5171C50.4278 70.9663 49.4874 71.2179 47.948 71.2179C47.3153 71.2223 46.6829 71.1843 46.0553 71.1041V63.5329ZM47.7923 69.9241C47.96 69.9241 48.1697 69.9241 48.4692 69.9241C49.2598 69.9241 49.9546 69.6186 49.9546 68.804C49.9546 67.9894 49.2598 67.7258 48.3853 67.7258H47.7863L47.7923 69.9241ZM47.7923 66.4919H48.3613C49.2898 66.4919 49.775 66.1146 49.775 65.5395C49.775 64.9645 49.3257 64.6471 48.5351 64.6471C48.2868 64.6439 48.0386 64.6579 47.7923 64.689V66.4919Z" fill="black"/>
        <path d="M57.6397 69.8043C57.6258 70.2574 57.6559 70.7108 57.7295 71.158H56.1542L56.0464 70.601H56.0164C55.8155 70.8274 55.5666 71.0062 55.2879 71.1243C55.0092 71.2424 54.7076 71.2969 54.4052 71.2838C54.1727 71.2952 53.9404 71.2591 53.7224 71.1778C53.5044 71.0964 53.3052 70.9715 53.1371 70.8107C52.9689 70.6498 52.8353 70.4564 52.7444 70.2421C52.6535 70.0279 52.6071 69.7974 52.6082 69.5647C52.6082 68.1092 53.914 67.4204 55.9026 67.4204V67.3605C55.9026 67.049 55.7409 66.6237 54.8784 66.6237C54.3352 66.6299 53.8028 66.7764 53.333 67.049L53.0095 65.9229C53.6842 65.5795 54.4329 65.4067 55.1898 65.4198C57.0587 65.4198 57.6457 66.5219 57.6457 67.8516L57.6397 69.8043ZM55.9506 68.5105C55.0341 68.5105 54.3213 68.7322 54.3213 69.391C54.3148 69.4824 54.3283 69.574 54.3608 69.6596C54.3934 69.7452 54.4442 69.8227 54.5098 69.8865C54.5754 69.9504 54.6542 69.9992 54.7406 70.0295C54.827 70.0598 54.919 70.0709 55.0102 70.0619C55.2095 70.0615 55.4037 69.999 55.5658 69.883C55.7279 69.7671 55.8498 69.6035 55.9146 69.415C55.9391 69.3191 55.9512 69.2205 55.9506 69.1215V68.5105Z" fill="black"/>
        <path d="M60.8803 64.0362V65.5636H62.1262V66.8334H60.8803V68.864C60.8803 69.5409 61.048 69.8523 61.5631 69.8523C61.7382 69.8584 61.9132 69.8423 62.0842 69.8044V71.1282C61.7185 71.2344 61.3389 71.2848 60.9581 71.2779C60.4723 71.2949 59.9992 71.1207 59.6404 70.7927C59.2793 70.3282 59.11 69.743 59.1672 69.1575V66.8574H58.4244V65.5636H59.1672V64.5214L60.8803 64.0362Z" fill="black"/>
        <path d="M65.085 64.0362V65.5637H66.3369V66.8335H65.085V68.8641C65.085 69.5409 65.2587 69.8524 65.7738 69.8524C65.9469 69.8585 66.12 69.8424 66.289 69.8045V71.1282C65.9254 71.235 65.5477 71.2855 65.1689 71.278C64.6828 71.2963 64.2092 71.1219 63.8511 70.7928C63.49 70.3283 63.3207 69.7431 63.3779 69.1576V66.8575H62.6351V65.5637H63.3779V64.5214L65.085 64.0362Z" fill="black"/>
        <path d="M67.4031 63.5329C68.1509 63.4243 68.9057 63.3703 69.6613 63.3712C70.4517 63.3029 71.2456 63.4542 71.9554 63.8085C72.2369 63.951 72.4726 64.1698 72.6357 64.4399C72.7988 64.71 72.8827 65.0204 72.8779 65.3359C72.8684 65.7092 72.7393 66.0695 72.5096 66.3639C72.2799 66.6583 71.9618 66.8712 71.602 66.9711C72.0369 67.0619 72.4273 67.2996 72.7077 67.6443C72.988 67.989 73.1411 68.4196 73.1414 68.8639C73.1437 69.1826 73.0726 69.4976 72.9333 69.7843C72.7941 70.0711 72.5907 70.3218 72.3388 70.5171C71.7757 70.9663 70.8353 71.2179 69.2959 71.2179C68.6632 71.2223 68.0308 71.1843 67.4031 71.1041V63.5329ZM69.1342 69.9241C69.3079 69.9241 69.5175 69.9241 69.8111 69.9241C70.6017 69.9241 71.3025 69.6186 71.3025 68.804C71.3025 67.9894 70.6017 67.7258 69.7332 67.7258H69.1342V69.9241ZM69.1342 66.4919H69.7332C70.6616 66.4919 71.1468 66.1146 71.1468 65.5395C71.1468 64.9645 70.6975 64.6471 69.9069 64.6471C69.6567 64.644 69.4065 64.658 69.1582 64.689L69.1342 66.4919Z" fill="black"/>
        <path d="M79.886 68.2951C79.9125 68.6952 79.8532 69.0964 79.712 69.4718C79.5709 69.8471 79.3512 70.188 79.0676 70.4716C78.784 70.7551 78.4432 70.9749 78.0678 71.116C77.6924 71.2572 77.2913 71.3165 76.8911 71.29C76.5058 71.3115 76.1202 71.2517 75.7595 71.1144C75.3988 70.9771 75.0711 70.7654 74.7976 70.493C74.5242 70.2207 74.3111 69.8939 74.1723 69.5337C74.0335 69.1736 73.9721 68.7883 73.992 68.4029C73.9646 68.0025 74.0232 67.6009 74.164 67.2251C74.3048 66.8493 74.5245 66.508 74.8082 66.2242C75.092 65.9404 75.4333 65.7207 75.8091 65.5799C76.1849 65.4391 76.5866 65.3805 76.987 65.408C77.373 65.3835 77.7598 65.4414 78.1218 65.5777C78.4838 65.714 78.8127 65.9256 79.0868 66.1985C79.3609 66.4715 79.5739 66.7995 79.7116 67.1609C79.8494 67.5224 79.9089 67.9089 79.886 68.2951ZM75.8249 68.349C75.8249 69.3134 76.2262 70.0381 76.969 70.0381C77.7117 70.0381 78.0831 69.3613 78.0831 68.337C78.0831 67.5104 77.7596 66.6658 76.969 66.6658C76.1783 66.6658 75.8249 67.5224 75.8249 68.349Z" fill="black"/>
        <path d="M82.0184 65.5637L82.5695 66.5041L83.0247 67.3426C83.1744 67.0312 83.3122 66.7437 83.4619 66.4801L83.995 65.5637H85.8878L84.043 68.2351L85.9118 71.1702H83.9411L83.3781 70.1639C83.2164 69.8883 83.0786 69.6008 82.9408 69.3133H82.9049C82.7671 69.6128 82.6234 69.9123 82.4856 70.1639L81.9525 71.1702H80.0417L81.9465 68.319L80.0837 65.5637H82.0184Z" fill="black"/>
        <path d="M29.7988 48.3969L26.678 51.5176L29.7928 54.6264L29.05 55.3811L25.5699 51.901C25.5199 51.8529 25.4801 51.7953 25.453 51.7314C25.4258 51.6676 25.4118 51.599 25.4118 51.5296C25.4118 51.4603 25.4258 51.3916 25.453 51.3278C25.4801 51.264 25.5199 51.2063 25.5699 51.1583L29.056 47.6722L29.7988 48.3969Z" fill="black"/>
        <path d="M30.464 53.3323L30.1465 53.6438L28.1755 51.6788C28.1543 51.6581 28.1374 51.6334 28.1259 51.6062C28.1144 51.5789 28.1085 51.5496 28.1085 51.52C28.1085 51.4904 28.1144 51.4611 28.1259 51.4339C28.1374 51.4066 28.1543 51.3819 28.1755 51.3612L30.1345 49.3902L30.452 49.7077L28.6547 51.505L30.464 53.3323Z" fill="black"/>
        <path d="M29.7987 64.5693L26.678 67.69L29.7927 70.7987L29.05 71.5535L25.5699 68.0734C25.5198 68.0253 25.4801 67.9676 25.4529 67.9038C25.4257 67.84 25.4117 67.7713 25.4117 67.702C25.4117 67.6326 25.4257 67.564 25.4529 67.5002C25.4801 67.4364 25.5198 67.3787 25.5699 67.3306L29.0559 63.8445L29.7987 64.5693Z" fill="black"/>
        <path d="M30.4641 69.5049L30.1465 69.8164L28.1755 67.8514C28.1543 67.8307 28.1375 67.806 28.126 67.7788C28.1145 67.7515 28.1086 67.7222 28.1086 67.6926C28.1086 67.663 28.1145 67.6337 28.126 67.6065C28.1375 67.5792 28.1543 67.5545 28.1755 67.5339L30.1346 65.5628L30.4521 65.8803L28.6548 67.6776L30.4641 69.5049Z" fill="black"/>
        <path d="M29.7994 80.7414L26.6787 83.8621L29.7934 86.9709L29.0507 87.7256L25.5706 84.2455C25.5206 84.1974 25.4808 84.1397 25.4536 84.0759C25.4264 84.0121 25.4124 83.9435 25.4124 83.8741C25.4124 83.8048 25.4264 83.7361 25.4536 83.6723C25.4808 83.6085 25.5206 83.5508 25.5706 83.5027L29.0566 80.0166L29.7994 80.7414Z" fill="black"/>
        <path d="M30.464 85.6772L30.1465 85.9888L28.1754 84.0237C28.1542 84.0031 28.1374 83.9784 28.1259 83.9511C28.1144 83.9239 28.1085 83.8946 28.1085 83.865C28.1085 83.8354 28.1144 83.8061 28.1259 83.7788C28.1374 83.7516 28.1542 83.7269 28.1754 83.7062L30.1345 81.7352L30.452 82.0527L28.6547 83.85L30.464 85.6772Z" fill="black"/>
        <path d="M107.655 55.3807H109.452V79.9391H107.655V55.3807ZM106.607 55.3807V79.9391C106.607 80.2171 106.717 80.4837 106.914 80.6803C107.11 80.8769 107.377 80.9873 107.655 80.9873H109.452C109.73 80.9873 109.997 80.8769 110.193 80.6803C110.39 80.4837 110.5 80.2171 110.5 79.9391V55.3807C110.5 55.1027 110.39 54.8361 110.193 54.6395C109.997 54.4429 109.73 54.3325 109.452 54.3325H107.655C107.377 54.3325 107.11 54.4429 106.914 54.6395C106.717 54.8361 106.607 55.1027 106.607 55.3807Z" fill="black"/>
        <path d="M88.9366 67.9594C88.9366 67.4559 89.0859 66.9637 89.3656 66.5451C89.6453 66.1265 90.0429 65.8002 90.5081 65.6075C90.9732 65.4148 91.4851 65.3644 91.9789 65.4627C92.4727 65.5609 92.9263 65.8033 93.2823 66.1593C93.6384 66.5154 93.8808 66.969 93.979 67.4628C94.0773 67.9566 94.0269 68.4684 93.8342 68.9336C93.6415 69.3988 93.3152 69.7964 92.8966 70.0761C92.4779 70.3558 91.9858 70.5051 91.4823 70.5051C90.8076 70.5035 90.161 70.2348 89.6839 69.7577C89.2069 69.2807 88.9382 68.6341 88.9366 67.9594ZM88.4874 67.9594C88.4874 68.5518 88.663 69.1308 88.9921 69.6233C89.3212 70.1158 89.7889 70.4997 90.3362 70.7264C90.8834 70.9531 91.4856 71.0124 92.0666 70.8968C92.6475 70.7812 93.1812 70.496 93.6 70.0772C94.0189 69.6583 94.3041 69.1247 94.4197 68.5437C94.5352 67.9627 94.4759 67.3606 94.2492 66.8133C94.0225 66.2661 93.6387 65.7983 93.1462 65.4692C92.6537 65.1401 92.0746 64.9645 91.4823 64.9645C90.688 64.9645 89.9262 65.28 89.3645 65.8417C88.8029 66.4033 88.4874 67.1651 88.4874 67.9594Z" fill="black"/>
        <path d="M88.9366 77.5432C88.9366 77.0397 89.0859 76.5475 89.3656 76.1288C89.6453 75.7102 90.0429 75.3839 90.5081 75.1912C90.9732 74.9986 91.4851 74.9482 91.9789 75.0464C92.4727 75.1446 92.9263 75.3871 93.2823 75.7431C93.6383 76.0991 93.8808 76.5527 93.979 77.0465C94.0772 77.5403 94.0268 78.0522 93.8342 78.5173C93.6415 78.9825 93.3152 79.3801 92.8966 79.6598C92.4779 79.9395 91.9857 80.0888 91.4822 80.0888C90.8076 80.0873 90.161 79.8186 89.6839 79.3415C89.2069 78.8644 88.9381 78.2178 88.9366 77.5432ZM88.4873 77.5432C88.4873 78.1355 88.663 78.7145 88.9921 79.2071C89.3211 79.6996 89.7889 80.0834 90.3361 80.3101C90.8834 80.5368 91.4856 80.5961 92.0665 80.4805C92.6475 80.365 93.1811 80.0797 93.6 79.6609C94.0188 79.242 94.3041 78.7084 94.4196 78.1274C94.5352 77.5465 94.4759 76.9443 94.2492 76.3971C94.0225 75.8498 93.6387 75.3821 93.1461 75.053C92.6536 74.7239 92.0746 74.5482 91.4822 74.5482C90.6879 74.5482 89.9262 74.8638 89.3645 75.4254C88.8029 75.9871 88.4873 76.7489 88.4873 77.5432Z" fill="black"/>
        <path d="M88.9366 58.3757C88.9366 57.8722 89.0859 57.38 89.3656 56.9614C89.6453 56.5427 90.0429 56.2164 90.5081 56.0238C90.9733 55.8311 91.4851 55.7807 91.9789 55.8789C92.4727 55.9771 92.9263 56.2196 93.2824 56.5756C93.6384 56.9316 93.8808 57.3852 93.9791 57.879C94.0773 58.3729 94.0269 58.8847 93.8342 59.3499C93.6415 59.815 93.3152 60.2126 92.8966 60.4923C92.478 60.7721 91.9858 60.9214 91.4823 60.9214C90.8076 60.9198 90.161 60.6511 89.684 60.174C89.2069 59.6969 88.9382 59.0503 88.9366 58.3757ZM88.4874 58.3757C88.4874 58.968 88.663 59.5471 88.9921 60.0396C89.3212 60.5321 89.7889 60.916 90.3362 61.1426C90.8834 61.3693 91.4856 61.4286 92.0666 61.3131C92.6475 61.1975 93.1812 60.9123 93.6 60.4934C94.0189 60.0746 94.3041 59.5409 94.4197 58.96C94.5352 58.379 94.4759 57.7768 94.2492 57.2296C94.0226 56.6823 93.6387 56.2146 93.1462 55.8855C92.6537 55.5564 92.0746 55.3807 91.4823 55.3807C90.688 55.3807 89.9262 55.6963 89.3645 56.2579C88.8029 56.8196 88.4874 57.5814 88.4874 58.3757Z" fill="black"/>
    </g>
</svg>
