<svg width="140" height="138" viewBox="0 0 140 138" fill="none" xmlns="http://www.w3.org/2000/svg">
    <rect x="6.17651" y="4.11938" width="133.824" height="133.881" rx="18" fill="#10C5C5"/>
    <rect width="133.824" height="133.881" rx="18" fill="#15E9E9"/>
    <g opacity="0.8">
        <g clip-path="url(#clip0)">
            <path d="M51.134 81.4869C45.1576 81.5163 39.2578 80.1499 33.9102 77.4979L33.673 77.3891V77.1171C33.4086 74.851 33.9579 72.565 35.2239 70.6621C37.5958 67.8697 48.2512 62.8834 48.7074 62.6658L49.1635 63.6449C49.054 63.6449 38.2161 68.7582 36.0449 71.3511C34.9914 72.9605 34.5275 74.8814 34.7312 76.7907C40.0048 79.2636 45.7779 80.5041 51.6084 80.4172C57.4415 80.3626 63.2024 79.1287 68.5403 76.7907C68.6285 74.8715 68.1188 72.9719 67.0807 71.3511C65.4386 69.284 56.5712 64.4065 54.8926 63.5543L55.3853 62.5933C55.4765 62.5933 65.8947 68.0329 67.9382 70.6802C69.165 72.5897 69.7466 74.8383 69.5986 77.099V77.3891L69.3432 77.5341C63.8022 80.1164 57.7647 81.4772 51.6449 81.5232L51.134 81.4869Z" fill="#1D1D1B"/>
            <path d="M51.9733 64.6968C48.5249 64.6968 43.2337 60.3633 43.2337 55.0143C43.2337 48.8675 46.4267 45.3499 51.9733 45.3499C57.52 45.3499 60.5488 48.3779 60.5488 54.9599C60.5488 60.3089 55.3488 64.6968 51.9733 64.6968ZM51.9733 46.4197C45.6604 46.4197 44.3284 51.0977 44.3284 55.0143C44.3284 59.6742 49.0175 63.6089 51.9733 63.6089C54.9291 63.6089 59.454 59.6742 59.454 55.0143C59.454 49.0125 57.1368 46.3653 51.9733 46.3653V46.4197Z" fill="#1D1D1B"/>
            <path d="M51.8821 75.4311C47.5032 75.4311 45.2225 65.9842 44.9853 64.9144L46.0435 64.6787C46.6456 67.3623 48.9081 74.3613 51.8821 74.3613C54.8561 74.3613 57.0456 67.3804 57.6295 64.6968L58.6877 64.9326C58.4505 65.9842 56.261 75.4311 51.8821 75.4311Z" fill="#1D1D1B"/>
            <path d="M44.9488 56.3015C44.5036 56.291 44.0667 56.1793 43.6716 55.9751L43.8905 55.5581C44.2007 55.7031 45.0765 56.0114 45.4779 55.6669C45.7117 55.137 45.8058 54.5567 45.7516 53.9806C45.7516 52.7113 45.8793 51.1338 46.9923 50.6987C47.5519 50.5859 48.1284 50.5838 48.6889 50.6927C49.2493 50.8016 49.7826 51.0193 50.2583 51.3333C50.745 51.605 51.2762 51.7891 51.8274 51.8773C52.3838 51.8106 52.9158 51.6116 53.3783 51.297C54.331 50.659 55.4902 50.4001 56.626 50.5717C57.593 50.7893 57.739 52.385 57.8667 53.9262C57.8778 54.5072 57.9825 55.0826 58.1768 55.6306C58.414 55.8119 59.2898 55.54 59.8007 55.3224L60.0014 55.7575C59.746 55.8663 58.4505 56.4284 57.8849 56.0114C57.3193 55.5944 57.5018 55.1229 57.3923 53.9625C57.2828 52.802 57.1368 51.1701 56.5165 51.0432C55.4959 50.8843 54.4534 51.1319 53.6154 51.7322C53.0636 52.0756 52.439 52.2866 51.7909 52.3487C51.1483 52.2735 50.5277 52.07 49.9663 51.7503C49.1186 51.1899 48.0861 50.9756 47.0835 51.152C46.2807 51.4602 46.226 52.8201 46.1712 53.9987C46.1165 55.1773 46.1712 55.7031 45.7151 56.0295C45.497 56.202 45.2275 56.2977 44.9488 56.3015Z" fill="#1D1D1B"/>
            <path d="M53.4147 74.3068C52.8154 72.5975 52.4951 70.8039 52.466 68.9941C52.5839 68.8469 52.7338 68.7281 52.9044 68.6465C53.075 68.5649 53.2619 68.5225 53.4512 68.5226C53.8526 68.5226 53.9621 68.3957 53.9621 68.2869C53.9621 67.8699 52.8491 67.2352 51.8821 67.2352C50.9151 67.2352 49.6926 67.9968 49.6926 68.2869C49.6926 68.577 50.0758 68.5045 50.2947 68.577C50.4817 68.5745 50.666 68.6213 50.8288 68.7126C50.9916 68.8039 51.1272 68.9364 51.2218 69.0967C51.3163 69.257 51.3665 69.4394 51.3671 69.6252C51.3677 69.811 51.3188 69.9936 51.2253 70.1545L51.1158 70.6078C51.1158 70.9161 50.386 74.2342 50.3495 74.2342L49.8751 74.1254C50.1305 72.965 50.6049 70.7166 50.6414 70.499L50.7509 69.9913C50.8421 69.6649 50.8968 69.4474 50.7509 69.266C50.6049 69.0847 50.3677 69.0666 50.1305 68.9941C49.8933 68.9215 49.1818 68.7221 49.1818 68.2506C49.1818 67.7792 50.7691 66.7275 51.8456 66.7275C52.9221 66.7275 54.4 67.4528 54.4 68.2506C54.4 69.0484 53.8709 68.8853 53.4877 68.9578C53.1046 69.0303 52.9404 69.0485 52.8491 69.2116C52.9812 70.8825 53.312 72.5319 53.8344 74.1254L53.4147 74.3068Z" fill="#1D1D1B"/>
            <path d="M57.1733 75.8298C56.626 75.8298 56.2793 75.8298 56.2428 75.8298V75.3583C57.6881 75.4349 59.1371 75.3129 60.5488 74.9957C61.8074 74.7206 63.0314 74.3071 64.1979 73.7627L64.4168 74.1979C63.184 74.7592 61.893 75.1848 60.567 75.4671C59.4512 75.7026 58.314 75.8242 57.1733 75.8298Z" fill="#1D1D1B"/>
            <path d="M57.447 77.3891C56.8996 77.3891 56.5347 77.3891 56.5165 77.3891V76.9177C57.9298 76.9979 59.3475 76.8881 60.7312 76.5913C62.0162 76.3133 63.2694 75.9063 64.4716 75.3765L64.6905 75.7935C63.4562 76.3512 62.1657 76.7766 60.8407 77.0628C59.725 77.295 58.5869 77.4045 57.447 77.3891Z" fill="#1D1D1B"/>
            <path d="M98.4814 52.0042H78.7944V51.0432H98.4814C99.4734 51.0432 100.425 50.6516 101.126 49.9545C101.828 49.2574 102.222 48.312 102.222 47.3261V31.6781C102.198 30.7081 101.793 29.7857 101.094 29.1081C100.396 28.4305 99.4578 28.0514 98.4814 28.0517H70.073C69.1124 28.0747 68.1977 28.4641 67.5183 29.1393C66.8389 29.8145 66.447 30.7235 66.4238 31.6781V47.2355C66.4236 48.2058 66.8051 49.1378 67.4869 49.8323C68.1688 50.5268 69.0969 50.9289 70.073 50.9526H73.4484V52.0042H70.073C68.826 51.9994 67.6314 51.505 66.7497 50.6288C65.8679 49.7525 65.3704 48.5654 65.3656 47.3261V31.6781C65.3656 30.4374 65.8616 29.2475 66.7444 28.3702C67.6272 27.4929 68.8245 27 70.073 27H98.4814C99.7299 27 100.927 27.4929 101.81 28.3702C102.693 29.2475 103.189 30.4374 103.189 31.6781V47.2355C103.198 47.8567 103.084 48.4737 102.852 49.0507C102.62 49.6277 102.275 50.1532 101.837 50.5967C101.399 51.0403 100.877 51.3931 100.301 51.6347C99.7252 51.8763 99.1066 52.0019 98.4814 52.0042Z" fill="#1D1D1B"/>
            <path d="M97.5509 33.4189H70.9853V33.8904H97.5509V33.4189Z" fill="#1D1D1B"/>
            <path d="M78.0646 37.698H70.9853V38.1694H78.0646V37.698Z" fill="#1D1D1B"/>
            <path d="M97.5509 37.698H81.3488V38.1694H97.5509V37.698Z" fill="#1D1D1B"/>
            <path d="M84.9249 41.5964H70.9853V42.0679H84.9249V41.5964Z" fill="#1D1D1B"/>
            <path d="M97.5509 41.5964H87.5158V42.0679H97.5509V41.5964Z" fill="#1D1D1B"/>
            <path d="M97.5509 45.2954H70.9853V45.7668H97.5509V45.2954Z" fill="#1D1D1B"/>
            <path d="M71.4961 57.8247C71.3984 57.8066 71.3062 57.766 71.227 57.7061C71.1478 57.6463 71.0838 57.569 71.04 57.4802C70.5839 56.6461 71.8428 53.4005 72.6274 51.551L73.5032 51.9318C72.8048 53.4812 72.2668 55.0973 71.8975 56.7549C74.3331 54.9872 76.638 53.0481 78.7944 50.9526L79.4512 51.6598C74.9993 55.7577 72.3354 57.8247 71.4961 57.8247Z" fill="#1D1D1B"/>
            <path d="M103.864 70.0457H77.2982V70.5171H103.864V70.0457Z" fill="#1D1D1B"/>
            <path d="M84.3776 73.1282H77.2982V73.5996H84.3776V73.1282Z" fill="#1D1D1B"/>
            <path d="M103.864 73.1282H87.6617V73.5996H103.864V73.1282Z" fill="#1D1D1B"/>
            <path d="M91.2379 75.8298H77.2982V76.3013H91.2379V75.8298Z" fill="#1D1D1B"/>
            <path d="M103.864 75.8298H93.8288V76.3013H103.864V75.8298Z" fill="#1D1D1B"/>
            <path d="M103.864 78.332H77.2982V78.8035H103.864V78.332Z" fill="#1D1D1B"/>
            <path d="M91.2379 67.4709H77.2982V67.9424H91.2379V67.4709Z" fill="#1D1D1B"/>
            <path d="M103.864 67.4709H93.8288V67.9424H103.864V67.4709Z" fill="#1D1D1B"/>
            <path d="M84.3776 64.9504H77.2982V65.4219H84.3776V64.9504Z" fill="#1D1D1B"/>
            <path d="M103.864 64.9504H87.6617V65.4219H103.864V64.9504Z" fill="#1D1D1B"/>
            <path d="M77.4077 93.5088H63.3039L61.4793 90.0093H79.1228L77.4077 93.5088ZM63.5958 93.0192H77.0976L78.3565 90.4988H62.2639L63.5958 93.0192Z" fill="#1D1D1B"/>
            <path d="M116.855 97.3708H23.7839V97.8423H116.855V97.3708Z" fill="#1D1D1B"/>
            <path d="M115.176 90.7888H25.8821V42.2853C25.8821 41.0959 26.3563 39.9548 27.201 39.112C28.0456 38.2693 29.1919 37.7934 30.3888 37.7886H65.84V38.8765H30.3705C29.4608 38.8765 28.5883 39.2356 27.945 39.8749C27.3017 40.5142 26.9403 41.3813 26.9403 42.2853V89.719H114.1V42.2853C114.1 41.3813 113.738 40.5142 113.095 39.8749C112.452 39.2356 111.579 38.8765 110.669 38.8765H102.696V37.7886H110.669C111.866 37.7934 113.013 38.2693 113.857 39.112C114.702 39.9548 115.176 41.0959 115.176 42.2853V90.7888Z" fill="#1D1D1B"/>
            <path d="M112.841 86.1651H28.3635V43.3733C28.3635 42.6423 28.6557 41.9413 29.1758 41.4244C29.6959 40.9076 30.4013 40.6172 31.1368 40.6172H65.8035V41.1249H31.1368C30.5286 41.1296 29.9466 41.3719 29.5165 41.7993C29.0864 42.2267 28.8427 42.8051 28.8379 43.4095V85.6756H112.366V43.3733C112.352 42.7751 112.104 42.206 111.675 41.7863C111.246 41.3667 110.669 41.1294 110.067 41.1249H102.769V40.6535H110.067C110.803 40.6535 111.508 40.9438 112.028 41.4607C112.549 41.9776 112.841 42.6786 112.841 43.4095V86.1651Z" fill="#1D1D1B"/>
            <path d="M117.712 100H22.233C21.0958 100 20.0052 99.5512 19.2011 98.7521C18.397 97.953 17.9453 96.8692 17.9453 95.7391V91.3693C17.9453 90.9316 18.1202 90.512 18.4316 90.2025C18.7429 89.8931 19.1653 89.7192 19.6056 89.7192H120.34C120.78 89.7192 121.202 89.8931 121.514 90.2025C121.825 90.512 122 90.9316 122 91.3693V95.7391C121.995 96.8677 121.542 97.9488 120.739 98.7469C119.936 99.5449 118.848 99.9954 117.712 100ZM19.6604 90.789C19.5055 90.789 19.357 90.8502 19.2475 90.959C19.138 91.0678 19.0765 91.2154 19.0765 91.3693V95.7391C19.0764 96.5744 19.4078 97.3761 19.9988 97.9701C20.5897 98.5642 21.3925 98.9027 22.233 98.9122H117.658C118.504 98.9122 119.317 98.5779 119.915 97.9829C120.514 97.3878 120.851 96.5807 120.851 95.7391V91.3693C120.853 91.2939 120.84 91.2189 120.813 91.1486C120.785 91.0783 120.744 91.0142 120.691 90.96C120.639 90.9059 120.576 90.8629 120.506 90.8335C120.436 90.8041 120.361 90.789 120.285 90.789H19.6604Z" fill="#1D1D1B"/>
        </g>
    </g>
    <defs>
        <clipPath id="clip0">
            <rect x="18" y="27" width="104" height="73" fill="white"/>
        </clipPath>
    </defs>
</svg>
