<svg width="140" height="138" viewBox="0 0 140 138" fill="none" xmlns="http://www.w3.org/2000/svg">
    <rect x="6.17651" y="4.11938" width="133.824" height="133.881" rx="18" fill="#10C5C5"/>
    <rect width="133.824" height="133.881" rx="18" fill="#15E9E9"/>
    <g opacity="0.7">
        <g clip-path="url(#clip0)">
            <path d="M75.4403 55.1658H71.7271V56.7681H75.4403V55.1658Z" fill="#1D1D1B"/>
            <path d="M68.3653 56.7682H66.2413C65.3254 56.7682 64.447 56.4048 63.7993 55.758C63.1517 55.1113 62.7878 54.2341 62.7878 53.3194V43.5071C62.7878 42.5925 63.1517 41.7152 63.7993 41.0685C64.447 40.4217 65.3254 40.0583 66.2413 40.0583H84.0739C84.9898 40.0583 85.8682 40.4217 86.5159 41.0685C87.1635 41.7152 87.5274 42.5925 87.5274 43.5071V51.3508H85.9229V43.5071C85.9229 43.0174 85.7281 42.5478 85.3813 42.2015C85.0346 41.8552 84.5643 41.6607 84.0739 41.6607H66.2413C65.7509 41.6607 65.2806 41.8552 64.9339 42.2015C64.5871 42.5478 64.3923 43.0174 64.3923 43.5071V53.3194C64.3923 53.8091 64.5871 54.2788 64.9339 54.625C65.2806 54.9713 65.7509 55.1659 66.2413 55.1659H68.3653V56.7682Z" fill="#1D1D1B"/>
            <path d="M67.1887 60.5069H67.0053C66.8747 60.4837 66.7509 60.432 66.6426 60.3555C66.5343 60.279 66.4442 60.1796 66.3788 60.0644C66.2413 59.8355 65.9051 59.2709 66.822 56.2494L68.35 56.7224C68.1819 57.287 68.0291 57.8669 67.9374 58.3552C68.9154 57.638 70.4588 56.3867 71.7882 55.3032L72.8273 56.5088C68.6098 60.0644 67.6166 60.5069 67.1887 60.5069Z" fill="#1D1D1B"/>
            <path d="M100.042 69.8154H97.5362V68.2894H100.042C100.666 68.2894 101.265 68.0418 101.706 67.6011C102.148 67.1604 102.396 66.5626 102.396 65.9394V54.1585C102.391 53.5379 102.142 52.9441 101.701 52.5067C101.26 52.0692 100.664 51.8237 100.042 51.8237H78.8785C78.257 51.8237 77.6607 52.0692 77.2199 52.5067C76.779 52.9441 76.5293 53.5379 76.5252 54.1585V65.8173C76.5252 66.4405 76.7732 67.0383 77.2145 67.479C77.6558 67.9197 78.2543 68.1673 78.8785 68.1673H93.5327V69.6933H78.8785C77.8288 69.6933 76.8221 69.2769 76.0799 68.5357C75.3377 67.7945 74.9207 66.7892 74.9207 65.741V54.1585C74.9248 53.113 75.3435 52.1116 76.0853 51.3737C76.8271 50.6357 77.8314 50.2214 78.8785 50.2214H100.042C101.089 50.2214 102.094 50.6357 102.835 51.3737C103.577 52.1116 103.996 53.113 104 54.1585V65.8173C104.006 66.3401 103.908 66.859 103.712 67.3438C103.516 67.8287 103.225 68.2698 102.857 68.6417C102.489 69.0135 102.051 69.3088 101.567 69.5102C101.084 69.7117 100.566 69.8155 100.042 69.8154Z" fill="#1D1D1B"/>
            <path d="M98.9268 74.195C98.4531 74.195 97.3223 73.7067 92.3255 69.4033L93.3646 68.1978C95.0913 69.7238 97.1084 71.2498 98.2545 72.1196C98.1092 71.3416 97.9205 70.5723 97.6891 69.8153L99.2172 69.3423C100.287 72.8674 99.8895 73.5235 99.752 73.7524C99.683 73.8663 99.5921 73.9654 99.4846 74.044C99.3771 74.1225 99.255 74.179 99.1255 74.2102L98.9268 74.195Z" fill="#1D1D1B"/>
            <path d="M100.317 55.1353H79.1688V55.8525H100.317V55.1353Z" fill="#1D1D1B"/>
            <path d="M84.8074 58.5688H79.1688V59.2861H84.8074V58.5688Z" fill="#1D1D1B"/>
            <path d="M100.317 58.5688H87.4204V59.2861H100.317V58.5688Z" fill="#1D1D1B"/>
            <path d="M90.2626 61.6819H79.1688V62.3991H90.2626V61.6819Z" fill="#1D1D1B"/>
            <path d="M100.302 61.6819H92.3102V62.3991H100.302V61.6819Z" fill="#1D1D1B"/>
            <path d="M100.317 64.6423H79.1688V65.3596H100.317V64.6423Z" fill="#1D1D1B"/>
            <path d="M83.7225 44.5906H66.5775V45.3078H83.7225V44.5906Z" fill="#1D1D1B"/>
            <path d="M71.1464 47.261H66.5775V47.9782H71.1464V47.261Z" fill="#1D1D1B"/>
            <path d="M83.7377 47.261H73.2704V47.9782H83.7377V47.261Z" fill="#1D1D1B"/>
            <path d="M76.1127 49.7026H66.5775V50.4199H76.1127V49.7026Z" fill="#1D1D1B"/>
            <path d="M75.7154 52.0222H66.5775V52.7394H75.7154V52.0222Z" fill="#1D1D1B"/>
            <path d="M79.4897 100C71.3298 100 59.7317 92.5531 51.6482 85.5639C42.9687 78.0407 36.2758 63.1926 35.6645 56.6613C35.6269 55.0683 35.9258 53.4853 36.5419 52.0155C37.1581 50.5457 38.0775 49.222 39.2402 48.1309C41.9449 45.2467 45.6123 43.2476 48.1183 43.3392C49.4478 43.3392 50.9911 44.4074 52.7026 46.3912C56.2171 50.4809 60.1443 58.4467 59.8387 60.8731C59.6247 62.6585 58.0355 64.0319 56.645 65.2375C55.6365 66.1073 54.5974 67.0076 54.4904 67.7554C54.2612 69.1441 57.5466 73.2643 60.8472 76.3163C62.4975 77.5371 66.9595 80.7112 68.9002 81.1538C69.5572 81.3064 69.9392 80.9096 70.8408 79.6278C71.866 78.0615 73.3339 76.8346 75.0583 76.1027C76.7239 75.477 79.4439 76.3468 83.1265 78.7122C86.8092 81.0775 92.295 85.7165 92.4478 87.502C92.2172 90.3377 91.1027 93.0301 89.2609 95.2006C87.419 97.3712 84.9424 98.9109 82.1791 99.6032C81.3027 99.8471 80.3992 99.9804 79.4897 100ZM47.9808 44.9415C45.9179 44.9415 42.7548 46.7269 40.3404 49.2296C39.0416 50.6183 36.9023 53.4109 37.1926 56.5087C37.7886 62.7806 44.2523 77.0946 52.6414 84.3431C62.0544 92.492 74.6916 99.9084 81.6748 98.0772C84.0836 97.4843 86.2493 96.1611 87.8746 94.2894C89.4999 92.4176 90.5049 90.0892 90.7516 87.6241C90.4918 86.6169 84.9602 81.3827 79.8717 78.7427C77.274 77.4456 76.0974 77.4456 75.639 77.6745C74.1838 78.3111 72.9577 79.3758 72.1244 80.7265C71.2075 81.932 70.2601 83.1681 68.5181 82.7561C65.9968 82.1609 60.4652 78.0865 59.854 77.6134H59.7775C59.0288 76.9115 52.4275 70.609 52.9012 67.6028C53.3844 66.1802 54.3314 64.9605 55.5906 64.1387C56.8284 63.0705 58.0967 61.9565 58.2495 60.7815C58.4634 59.1334 55.0558 51.6254 51.4954 47.551C49.6464 45.3993 48.5615 45.0636 48.0725 45.0483L47.9808 44.9415Z" fill="#1D1D1B"/>
            <path d="M53.9403 63.8792L43.4577 48.1308L44.0689 47.7493L54.5362 63.4977L53.9403 63.8792Z" fill="#1D1D1B"/>
            <path d="M87.4968 92.3394L72.4758 82.8323L72.8578 82.2219L87.8788 91.7442L87.4968 92.3394Z" fill="#1D1D1B"/>
            <path d="M30.1329 56.9817C29.4692 54.501 29.817 51.8586 31.1001 49.6334C32.3832 47.4081 34.497 45.7814 36.9787 45.1094L37.162 45.7961C34.8618 46.418 32.9024 47.9256 31.7136 49.9881C30.5248 52.0507 30.2037 54.4999 30.8205 56.7986L30.1329 56.9817Z" fill="#1D1D1B"/>
            <path d="M24.2651 58.8893C23.1758 54.8321 23.7415 50.5092 25.8381 46.8679C27.9348 43.2266 31.3915 40.5638 35.4506 39.4631L35.6493 40.1498C31.771 41.2007 28.4677 43.7435 26.4629 47.2215C24.458 50.6995 23.915 54.8292 24.9527 58.7061L24.2651 58.8893Z" fill="#1D1D1B"/>
            <path d="M18.7481 60.4458C17.2637 54.9153 18.0395 49.0224 20.9051 44.0631C23.7707 39.1037 28.4913 35.484 34.0288 34L34.2122 34.6867C31.5591 35.3949 29.0718 36.6187 26.8927 38.2879C24.7137 39.9571 22.8856 42.0391 21.5132 44.4146C20.1407 46.7902 19.2508 49.4127 18.8943 52.1321C18.5378 54.8515 18.7218 57.6144 19.4357 60.2627L18.7481 60.4458Z" fill="#1D1D1B"/>
            <path d="M79.5508 97.2836C72.1091 97.2836 58.9371 89.4704 51.9385 82.115C44.4051 74.195 38.8582 61.8343 38.3692 57.6989C38.2753 56.1907 38.4987 54.6797 39.025 53.263C39.5514 51.8464 40.3691 50.5555 41.4254 49.4737C42.1143 48.6118 42.9699 47.8974 43.9413 47.373C44.9127 46.8487 45.9799 46.5251 47.0793 46.4216C48.2406 46.4216 49.6617 47.4593 51.3273 49.3974C54.3835 52.8919 57.4396 58.7365 57.1646 60.5372C56.9812 61.9106 55.6365 63.0094 54.3682 64.0776C53.0999 65.1458 52.2594 65.8478 52.1066 66.7634C51.7093 68.8235 52.672 70.5631 54.8266 73.432C56.5052 75.541 58.3944 77.4737 60.4652 79.2004C63.6894 82.115 67.0359 83.7784 69.6336 83.8852C70.7339 83.8852 71.5437 82.9391 72.4911 81.7946C73.3364 80.5563 74.5114 79.5785 75.8835 78.9715C76.999 78.59 80.6663 80.8637 82.7598 82.2524C83.0348 82.4355 89.468 86.7389 89.5597 88.2191C89.3347 90.41 88.3945 92.4663 86.8841 94.0711C85.3738 95.676 83.3769 96.7404 81.2012 97.1005C80.6576 97.2104 80.1053 97.2717 79.5508 97.2836ZM47.0334 47.1389C45.0529 47.3995 43.2508 48.4169 42.0061 49.9772C41.0079 50.9719 40.2307 52.1655 39.7252 53.4801C39.2197 54.7948 38.9972 56.201 39.0722 57.6073C39.5459 61.5139 45.1845 73.8746 52.4581 81.5657C59.7317 89.2568 74.4929 97.6804 81.0636 96.368C83.0636 96.0246 84.9003 95.0489 86.3033 93.5846C87.7063 92.1203 88.6014 90.2448 88.8568 88.2343C88.8568 87.7308 86.198 85.3197 82.011 82.5728C78.3437 80.177 76.4794 79.5208 76.1127 79.6124C74.8781 80.1786 73.8215 81.0702 73.0565 82.1913C72.048 83.4122 71.07 84.6024 69.6336 84.5414C66.8678 84.5414 63.3533 82.6949 60.0068 79.6734C57.8856 77.9108 55.9548 75.9315 54.2459 73.7678C52.2747 71.143 50.9147 69.0829 51.3884 66.5497C51.6024 65.39 52.7484 64.4591 53.9556 63.4977C55.1628 62.5363 56.3547 61.5291 56.5075 60.4457C56.6909 58.996 53.8639 53.3802 50.8383 49.8552C49.3103 48.1308 48.0267 47.1694 47.0945 47.1389H47.0334Z" fill="#1D1D1B"/>
        </g>
    </g>
    <defs>
        <clipPath id="clip0">
            <rect x="18" y="34" width="86" height="66" fill="white"/>
        </clipPath>
    </defs>
</svg>
