<svg width="152" height="328" viewBox="0 0 152 328" fill="none" xmlns="http://www.w3.org/2000/svg">
    <g filter="url(#filter0_d)">
        <rect x="20" y="16" width="112" height="288" rx="10" fill="#101116"/>
    </g>
    <rect x="28" y="72" width="96" height="24" rx="4" fill="#191A1E"/>
    <rect x="28" y="104" width="96" height="24" rx="4" fill="#191A1E"/>
    <rect x="28" y="136" width="96" height="24" rx="4" fill="#191A1E"/>
    <rect x="28" y="168" width="96" height="24" rx="4" fill="#191A1E"/>
    <rect x="28" y="200" width="96" height="24" rx="4" fill="#191A1E"/>
    <rect x="28" y="232" width="96" height="24" rx="4" fill="#191A1E"/>
    <rect x="28" y="264" width="96" height="24" rx="4" fill="#191A1E"/>
    <path fill-rule="evenodd" clip-rule="evenodd" d="M83.4258 81.0039C83.6169 81.1973 83.6169 81.5108 83.4258 81.7042L74.6152 90.6168C74.5216 90.7115 74.394 90.7638 74.2616 90.7618C74.1293 90.7598 74.0034 90.7036 73.9126 90.606L69.9968 86.3973C69.8115 86.1982 69.8209 85.8848 70.0178 85.6974C70.2146 85.5099 70.5244 85.5194 70.7097 85.7186L74.2797 89.5557L82.7335 81.0039C82.9247 80.8105 83.2346 80.8105 83.4258 81.0039Z" fill="#15E9E9" stroke="#15E9E9"/>
    <path fill-rule="evenodd" clip-rule="evenodd" d="M83.4258 110.683C83.6169 110.877 83.6169 111.19 83.4258 111.384L74.6152 120.296C74.5216 120.391 74.394 120.443 74.2616 120.441C74.1293 120.439 74.0034 120.383 73.9126 120.285L69.9968 116.077C69.8115 115.878 69.8209 115.564 70.0178 115.377C70.2146 115.189 70.5244 115.199 70.7097 115.398L74.2797 119.235L82.7335 110.683C82.9247 110.49 83.2346 110.49 83.4258 110.683Z" fill="#15E9E9" stroke="#15E9E9"/>
    <rect x="69" y="242" width="15.35" height="1.63399" rx="0.816994" fill="#7B8C8E"/>
    <rect x="69" y="211" width="15.35" height="1.63399" rx="0.816994" fill="#7B8C8E"/>
    <rect x="68" y="147" width="15.35" height="1.63399" rx="0.816994" fill="#7B8C8E"/>
    <rect x="69" y="276" width="15.35" height="1.63399" rx="0.816994" fill="#7B8C8E"/>
    <path d="M35.3661 42.1882C38.7912 42.1882 40.4467 40.4499 40.4467 38.1448C40.4467 33.4402 33.1587 34.7817 33.1587 32.7789C33.1587 32.0231 33.8057 31.5129 34.9665 31.5129C36.2604 31.5129 37.6305 31.9475 38.658 32.8922L40.1613 30.9272C38.9054 29.7747 37.2309 29.17 35.2138 29.17C32.2263 29.17 30.3996 30.9083 30.3996 33.0056C30.3996 37.7481 37.7066 36.2176 37.7066 38.4471C37.7066 39.1651 36.9835 39.8453 35.4993 39.8453C33.7486 39.8453 32.3595 39.0707 31.4652 38.1448L30 40.1854C31.1798 41.3758 32.9304 42.1882 35.3661 42.1882Z" fill="#15E9E9"/>
    <path d="M43.4077 31.853C44.2069 31.853 44.8539 31.2106 44.8539 30.4171C44.8539 29.6235 44.2069 29 43.4077 29C42.6275 29 41.9615 29.6235 41.9615 30.4171C41.9615 31.2106 42.6275 31.853 43.4077 31.853ZM44.6255 41.9615V32.8355H42.2089V41.9615H44.6255Z" fill="#15E9E9"/>
    <path d="M60.8556 41.9615V35.3674C60.8556 33.4968 59.8471 32.6088 58.1535 32.6088C56.7454 32.6088 55.5276 33.4402 54.9948 34.2715C54.6523 33.2323 53.796 32.6088 52.4449 32.6088C51.0368 32.6088 49.819 33.4779 49.4384 34.0259V32.8355H47.0218V41.9615H49.4384V35.8208C49.8 35.3107 50.504 34.7439 51.3413 34.7439C52.3308 34.7439 52.7113 35.3485 52.7113 36.1987V41.9615H55.147V35.8019C55.4895 35.3107 56.1936 34.7439 57.0499 34.7439C58.0394 34.7439 58.4199 35.3485 58.4199 36.1987V41.9615H60.8556Z" fill="#15E9E9"/>
    <path d="M68.4777 42.1882C70.8373 42.1882 72.5498 40.431 72.5498 37.3891C72.5498 34.3471 70.8373 32.6088 68.4777 32.6088C67.355 32.6088 66.3465 33.1001 65.6425 33.9881V32.8355H63.2258V45.438H65.6425V40.79C66.3846 41.7347 67.3931 42.1882 68.4777 42.1882ZM67.7166 40.0532C66.9364 40.0532 66.0421 39.5808 65.6425 39.014V35.783C66.0421 35.1973 66.9364 34.7439 67.7166 34.7439C69.1057 34.7439 70.0381 35.8208 70.0381 37.3891C70.0381 38.9762 69.1057 40.0532 67.7166 40.0532Z" fill="#15E9E9"/>
    <path d="M76.7363 41.9615V29.359H74.3196V41.9615H76.7363Z" fill="#15E9E9"/>
    <path d="M83.452 42.1882C84.8792 42.1882 86.3253 41.7536 87.2387 40.9223L86.1731 39.373C85.5832 39.9398 84.4986 40.2799 83.7184 40.2799C82.1581 40.2799 81.2257 39.3163 81.0734 38.1637H87.9047V37.6347C87.9047 34.6494 86.0399 32.6088 83.2998 32.6088C80.5026 32.6088 78.5426 34.7439 78.5426 37.3891C78.5426 40.3177 80.6548 42.1882 83.452 42.1882ZM85.5642 36.5388H81.0354C81.1496 35.6319 81.7965 34.5171 83.2998 34.5171C84.8982 34.5171 85.5071 35.6697 85.5642 36.5388Z" fill="#15E9E9"/>
    <path d="M35.1256 60.3311V58.2023H36.318V57.2828H35.1256V51.9294H33.6794L30.0513 57.3332V58.2023H34.0726V60.3311H35.1256ZM34.0726 57.2828H31.1042L34.0726 52.8993V57.2828Z" fill="#00A0A0"/>
    <path d="M40.0935 60.4822C41.9583 60.4822 43.0873 59.4619 43.0873 58.0638C43.0873 56.716 41.9076 56.061 41.1337 55.998C41.9329 55.8594 42.9605 55.2548 42.9605 54.0456C42.9605 52.6222 41.7173 51.8035 40.0935 51.8035C38.7869 51.8035 37.8101 52.3703 37.2012 53.1009L37.7847 53.7559C38.4063 53.0883 39.0913 52.7356 40.0174 52.7356C41.0449 52.7356 41.9076 53.2394 41.9076 54.1715C41.9076 55.1415 41.0069 55.5571 39.9413 55.5571C39.5988 55.5571 39.2055 55.5571 39.066 55.5445V56.5018C39.1928 56.4892 39.5861 56.4892 39.9413 56.4892C41.1845 56.4892 42.0471 56.9301 42.0471 57.9756C42.0471 58.9455 41.2986 59.5501 40.0681 59.5501C39.066 59.5501 38.2033 59.0967 37.7086 58.4417L37.087 59.0967C37.6071 59.8524 38.66 60.4822 40.0935 60.4822Z" fill="#00A0A0"/>
    <path d="M50.9329 60.4822C53.2417 60.4822 54.1677 58.1771 54.1677 56.1366C54.1677 54.0834 53.2417 51.8035 50.9329 51.8035C48.6114 51.8035 47.698 54.0834 47.698 56.1366C47.698 58.1771 48.6114 60.4822 50.9329 60.4822ZM50.9329 59.5501C49.3218 59.5501 48.7763 57.8118 48.7763 56.1366C48.7763 54.4613 49.3218 52.7356 50.9329 52.7356C52.5439 52.7356 53.0894 54.4613 53.0894 56.1366C53.0894 57.8118 52.5439 59.5501 50.9329 59.5501Z" fill="#00A0A0"/>
    <path d="M58.7004 60.4822C61.0092 60.4822 61.9352 58.1771 61.9352 56.1366C61.9352 54.0834 61.0092 51.8035 58.7004 51.8035C56.3789 51.8035 55.4655 54.0834 55.4655 56.1366C55.4655 58.1771 56.3789 60.4822 58.7004 60.4822ZM58.7004 59.5501C57.0893 59.5501 56.5438 57.8118 56.5438 56.1366C56.5438 54.4613 57.0893 52.7356 58.7004 52.7356C60.3115 52.7356 60.8569 54.4613 60.8569 56.1366C60.8569 57.8118 60.3115 59.5501 58.7004 59.5501Z" fill="#00A0A0"/>
    <path d="M66.4679 60.4822C68.7767 60.4822 69.7028 58.1771 69.7028 56.1366C69.7028 54.0834 68.7767 51.8035 66.4679 51.8035C64.1464 51.8035 63.233 54.0834 63.233 56.1366C63.233 58.1771 64.1464 60.4822 66.4679 60.4822ZM66.4679 59.5501C64.8568 59.5501 64.3113 57.8118 64.3113 56.1366C64.3113 54.4613 64.8568 52.7356 66.4679 52.7356C68.079 52.7356 68.6245 54.4613 68.6245 56.1366C68.6245 57.8118 68.079 59.5501 66.4679 59.5501Z" fill="#00A0A0"/>
    <path d="M74.8546 60.3311V58.618H73.751V57.7992H74.8546V56.6782H73.751V55.7209H74.8546V51.3374H77.2396C78.3475 51.3374 79.1678 51.5599 79.7006 52.005C80.2418 52.4501 80.5125 53.0967 80.5125 53.9448C80.5125 54.8014 80.2207 55.4732 79.6372 55.9602C79.0536 56.4389 78.1952 56.6782 77.062 56.6782H75.9964V57.7992H78.0895V58.618H75.9964V60.3311H74.8546ZM75.9964 55.7209H76.897C77.6666 55.7209 78.2629 55.5949 78.6857 55.343C79.1171 55.0911 79.3327 54.6376 79.3327 53.9826C79.3327 53.4116 79.1551 52.9875 78.7999 52.7104C78.4447 52.4333 77.8908 52.2947 77.1381 52.2947H75.9964V55.7209Z" fill="#00A0A0"/>
    <path d="M67.5011 182.876V176H66.2013L64 178.175L64.8491 179.052L66.0126 177.887V182.876H67.5011Z" fill="#15E9E9"/>
    <path d="M77.522 182.876V177.897H75.761L74.5345 180.866L73.2872 177.897H71.5366V182.876H72.8679V179.639L74.2306 182.876H74.8385L76.1907 179.639V182.876H77.522Z" fill="#15E9E9"/>
    <path d="M81.225 183C82.0111 183 82.8078 182.763 83.3109 182.309L82.7239 181.464C82.399 181.773 81.8015 181.959 81.3717 181.959C80.5122 181.959 79.9986 181.433 79.9147 180.804H83.6778V180.515C83.6778 178.887 82.6506 177.773 81.1411 177.773C79.6002 177.773 78.5206 178.938 78.5206 180.381C78.5206 181.979 79.6841 183 81.225 183ZM82.3885 179.918H79.8937C79.9566 179.423 80.313 178.814 81.1411 178.814C82.0216 178.814 82.3571 179.443 82.3885 179.918Z" fill="#15E9E9"/>
    <path d="M86.9979 183C88.0356 183 88.6646 182.557 89 182.093L88.13 181.299C87.8889 181.629 87.522 181.835 87.0608 181.835C86.2537 181.835 85.6876 181.247 85.6876 180.381C85.6876 179.515 86.2537 178.938 87.0608 178.938C87.522 178.938 87.8889 179.124 88.13 179.474L89 178.67C88.6646 178.216 88.0356 177.773 86.9979 177.773C85.436 177.773 84.3144 178.856 84.3144 180.381C84.3144 181.918 85.436 183 86.9979 183Z" fill="#15E9E9"/>
    <defs>
        <filter id="filter0_d" x="0" y="0" width="152" height="328" filterUnits="userSpaceOnUse" color-interpolation-filters="sRGB">
            <feFlood flood-opacity="0" result="BackgroundImageFix"/>
            <feColorMatrix in="SourceAlpha" type="matrix" values="0 0 0 0 0 0 0 0 0 0 0 0 0 0 0 0 0 0 127 0"/>
            <feOffset dy="4"/>
            <feGaussianBlur stdDeviation="10"/>
            <feColorMatrix type="matrix" values="0 0 0 0 0 0 0 0 0 0 0 0 0 0 0 0 0 0 0.25 0"/>
            <feBlend mode="normal" in2="BackgroundImageFix" result="effect1_dropShadow"/>
            <feBlend mode="normal" in="SourceGraphic" in2="effect1_dropShadow" result="shape"/>
        </filter>
    </defs>
</svg>
