<svg width="215" height="210" viewBox="0 0 215 210" fill="none" xmlns="http://www.w3.org/2000/svg">
    <rect x="9.48535" y="6.26866" width="205.515" height="203.731" rx="18" fill="#10C5C5"/>
    <rect width="205.515" height="203.731" rx="18" fill="#15E9E9"/>
    <g opacity="0.7">
        <path d="M134.555 89.2432L133.972 89.3621V91.0986C134.44 91.0159 134.915 90.9814 135.39 90.9955H137.438C138.832 90.9955 139.982 90.3532 139.982 88.2838C139.993 87.4602 139.812 86.6455 139.454 85.9051L138.28 86.254C138.563 86.7803 138.715 87.3682 138.722 87.9666C138.722 88.926 138.28 89.1005 137.934 89.1005H137.863C137.863 86.9041 137.138 85.4611 135.618 85.4611C135.367 85.4657 135.12 85.522 134.891 85.6264C134.662 85.7308 134.457 85.8812 134.288 86.0683C134.119 86.2554 133.99 86.4753 133.908 86.7145C133.827 86.9537 133.795 87.2071 133.814 87.4592C133.803 87.7926 133.864 88.1245 133.991 88.4324C134.119 88.7402 134.311 89.0168 134.555 89.2432ZM135.823 87.364C136.516 87.364 136.745 88.1569 136.745 89.1639H136.13C136.025 89.176 135.92 89.176 135.815 89.1639C135.616 89.0852 135.446 88.9476 135.326 88.7692C135.206 88.5908 135.144 88.38 135.146 88.1648C135.126 88.0643 135.13 87.9607 135.156 87.8618C135.183 87.763 135.231 87.6715 135.298 87.5943C135.365 87.5171 135.448 87.4562 135.542 87.4163C135.636 87.3764 135.737 87.3585 135.839 87.364H135.823ZM140.754 53.2693L136.185 48.6864C136.122 48.6202 136.046 48.5675 135.962 48.5316C135.878 48.4956 135.788 48.477 135.697 48.477C135.606 48.477 135.515 48.4956 135.432 48.5316C135.348 48.5675 135.272 48.6202 135.209 48.6864L130.616 53.2614L131.609 54.2367L135.697 50.1136L139.801 54.2367L140.754 53.2693ZM142.164 78.2298H134.019C133.932 78.924 133.893 79.6234 133.901 80.3231C133.901 82.0199 134.169 83.0586 134.689 83.685C134.896 83.9628 135.165 84.188 135.474 84.3422C135.783 84.4964 136.124 84.5755 136.469 84.573C136.951 84.5701 137.416 84.3983 137.786 84.0872C138.155 83.776 138.405 83.345 138.493 82.8683C138.597 83.2636 138.824 83.6147 139.142 83.8691C139.46 84.1235 139.852 84.2675 140.258 84.2796C140.598 84.2843 140.933 84.1913 141.223 84.0116C141.513 83.8319 141.747 83.5729 141.896 83.2647C142.272 82.4756 142.432 81.5998 142.361 80.7274C142.361 79.8916 142.3 79.0568 142.179 78.2298H142.164ZM137.642 80.7988C137.642 81.7661 137.312 82.5432 136.485 82.5432C135.658 82.5432 135.279 81.7503 135.279 80.894C135.265 80.6431 135.265 80.3916 135.279 80.1407H137.642V80.7988ZM140.005 82.337C139.383 82.337 138.982 81.8058 138.982 80.7512V80.1169H140.911C140.95 80.3793 140.969 80.6445 140.966 80.9098C140.99 81.8454 140.651 82.337 140.068 82.337H140.005ZM131.404 129.562C131.404 130.346 131.635 131.113 132.068 131.765C132.501 132.417 133.116 132.925 133.835 133.225C134.555 133.525 135.347 133.603 136.111 133.45C136.875 133.297 137.577 132.92 138.127 132.365C138.678 131.811 139.053 131.105 139.205 130.336C139.357 129.567 139.279 128.769 138.981 128.045C138.683 127.321 138.178 126.701 137.531 126.266C136.883 125.83 136.121 125.598 135.342 125.598C134.298 125.598 133.296 126.015 132.558 126.759C131.819 127.502 131.404 128.511 131.404 129.562ZM135.342 126.192C136.005 126.192 136.652 126.39 137.202 126.76C137.753 127.131 138.182 127.657 138.435 128.273C138.689 128.888 138.755 129.566 138.626 130.22C138.497 130.873 138.178 131.474 137.71 131.945C137.241 132.416 136.645 132.737 135.996 132.867C135.346 132.997 134.673 132.93 134.061 132.675C133.45 132.42 132.927 131.988 132.559 131.434C132.191 130.88 131.995 130.229 131.995 129.562C131.997 128.669 132.35 127.813 132.978 127.182C133.605 126.55 134.455 126.194 135.342 126.192ZM148.095 137.594H141.163V138.189H148.095V137.594ZM136.989 115.639C137.4 115.652 137.809 115.578 138.19 115.422C138.57 115.265 138.914 115.03 139.198 114.73C139.482 114.431 139.7 114.075 139.838 113.685C139.975 113.295 140.03 112.88 139.998 112.467C139.998 110.461 138.785 109.137 136.847 109.137C136.436 109.126 136.027 109.202 135.647 109.359C135.267 109.516 134.923 109.752 134.639 110.05C134.354 110.349 134.134 110.704 133.994 111.093C133.853 111.482 133.795 111.896 133.822 112.309C133.781 112.744 133.833 113.183 133.976 113.597C134.118 114.01 134.348 114.387 134.648 114.703C134.949 115.019 135.313 115.267 135.717 115.428C136.121 115.589 136.555 115.661 136.989 115.639ZM136.918 111.143C137.784 111.143 138.682 111.5 138.682 112.42C138.682 113.339 137.792 113.649 136.934 113.649C135.862 113.649 135.153 113.181 135.153 112.42C135.153 111.658 135.917 111.143 136.918 111.143ZM151.096 136.008H146.37V136.603H151.096V136.008ZM151.096 139.18H138.28V139.775H151.096V139.18ZM136.13 75.2485V72.0769L143.117 74.0592V69.9995L133.098 66.3046V70.1977L128.253 68.7071L136.13 75.2485ZM139.045 118.604L140.053 117.994V115.837L137.091 117.899L134.027 115.789V117.907L135.106 118.493C135.405 118.644 135.697 118.81 136.02 118.961V119.001C135.713 119.151 135.405 119.302 135.106 119.484L134.027 120.103V122.291L137.178 120.222L140.053 122.26V120.166L139.068 119.619C138.769 119.461 138.477 119.302 138.139 119.143C138.399 118.953 138.69 118.787 139.005 118.604H139.045ZM122.976 132.876V133.527C123.94 133.42 124.831 132.959 125.478 132.231C126.126 131.504 126.484 130.562 126.484 129.586C126.484 128.61 126.126 127.668 125.478 126.94C124.831 126.213 123.94 125.752 122.976 125.645V126.24C123.818 126.298 124.607 126.676 125.183 127.297C125.759 127.918 126.079 128.736 126.079 129.586C126.079 130.436 125.759 131.254 125.183 131.875C124.607 132.496 123.818 132.874 122.976 132.932V132.876ZM165.187 53.2693L160.603 48.6864C160.54 48.6202 160.464 48.5675 160.38 48.5316C160.296 48.4956 160.206 48.477 160.115 48.477C160.024 48.477 159.933 48.4956 159.849 48.5316C159.765 48.5675 159.69 48.6202 159.626 48.6864L155.034 53.2614L156.027 54.2367L160.115 50.1136L164.218 54.2367L165.187 53.2693ZM122.937 78.8166H127.371V77.429H122.937V78.8166ZM135.484 52.1038L132.901 54.7124L133.31 55.1327L135.673 52.754L138.036 55.1327L138.454 54.7124L135.87 52.1196C135.819 52.07 135.751 52.041 135.68 52.0381C135.609 52.0352 135.539 52.0585 135.484 52.1038ZM138.635 91.8994V92.6923H136.17C135.526 92.6275 134.883 92.8213 134.382 93.2315C134.025 93.6303 133.838 94.1543 133.862 94.6904C133.852 95.111 133.905 95.5306 134.019 95.9353H135.437C135.401 95.7472 135.386 95.5558 135.39 95.3644C135.39 94.7935 135.721 94.5715 136.453 94.5715H138.635V95.9511H140.013V94.619H141.644L141.132 92.724H140.013V91.9311L138.635 91.8994ZM159.902 52.1038L157.318 54.7124L157.728 55.1327L160.091 52.754L162.454 55.1327L162.872 54.7124L160.288 52.1196C160.237 52.07 160.169 52.041 160.098 52.0381C160.027 52.0352 159.957 52.0585 159.902 52.1038ZM136.429 108.154C136.913 108.16 137.384 107.996 137.76 107.691C138.137 107.386 138.396 106.958 138.493 106.481C138.597 106.876 138.824 107.227 139.142 107.482C139.46 107.736 139.852 107.88 140.258 107.892C140.598 107.897 140.933 107.804 141.223 107.624C141.513 107.444 141.747 107.185 141.896 106.877C142.271 106.085 142.432 105.207 142.361 104.332C142.363 103.496 142.305 102.662 142.187 101.834H134.019C133.932 102.529 133.893 103.228 133.901 103.928C133.901 105.632 134.169 106.671 134.689 107.29C134.893 107.559 135.156 107.777 135.458 107.927C135.76 108.077 136.093 108.155 136.429 108.154ZM139.005 103.729H140.935C140.974 103.992 140.993 104.257 140.99 104.522C140.99 105.395 140.651 105.894 140.029 105.894C139.407 105.894 139.005 105.355 139.005 104.308V103.729ZM135.319 103.729H137.682V104.388C137.682 105.355 137.351 106.124 136.524 106.124C135.697 106.124 135.319 105.331 135.319 104.475C135.313 104.234 135.321 103.993 135.342 103.753L135.319 103.729ZM134.019 100.558H135.437C135.401 100.37 135.386 100.178 135.39 99.987C135.39 99.4161 135.721 99.1941 136.453 99.1941H138.635V100.574H140.013V99.2734H141.644L141.132 97.3783H140.013V96.5854H138.635V97.3783H136.17C135.526 97.3135 134.883 97.5073 134.382 97.9175C134.025 98.3163 133.838 98.8403 133.862 99.3764C133.852 99.797 133.905 100.217 134.019 100.621V100.558ZM145.882 77.3656V78.8166H151.293C151.658 78.8166 152.009 78.6704 152.267 78.4102C152.526 78.1499 152.671 77.797 152.671 77.429V75.4388H155.152C155.94 75.4388 156.531 74.0512 156.531 74.0512V66.8438C156.531 66.4758 156.386 66.1228 156.127 65.8626C155.869 65.6024 155.518 65.4562 155.152 65.4562H152.789H152.687V63.6325C152.687 63.2645 152.542 62.9116 152.283 62.6514C152.025 62.3912 151.674 62.245 151.309 62.245H145.897V63.6325H151.309V77.429L145.882 77.3656ZM152.671 66.8438H155.152V74.0592H152.671V66.8438ZM147.945 145.523H141.463V146.118H147.945V145.523ZM130.199 136.603H137.13V136.008H130.199V136.603ZM124.315 138.189H132.444V137.594H124.315V138.189ZM140.005 137.594H133.074V138.189H140.005V137.594ZM122.937 153.349C122.937 153.717 123.082 154.07 123.34 154.33C123.599 154.59 123.949 154.737 124.315 154.737H151.096C151.461 154.737 151.812 154.59 152.071 154.33C152.329 154.07 152.474 153.717 152.474 153.349V150.97C152.474 150.602 152.329 150.249 152.071 149.989C151.812 149.729 151.461 149.583 151.096 149.583H124.315C123.949 149.583 123.599 149.729 123.34 149.989C123.082 150.249 122.937 150.602 122.937 150.97V153.349ZM124.315 150.97H151.096V153.349H124.315V150.97ZM146.37 140.766V141.36H148.56V140.766H146.37ZM145.212 140.766H138.28V141.36H145.212V140.766ZM122.937 63.6325H127.371V62.245H122.937V63.6325ZM149.276 142.352H138.249V142.946H149.276V142.352ZM122.937 159.692H166.849C167.058 159.692 167.259 159.609 167.406 159.46C167.554 159.311 167.637 159.11 167.637 158.899V155.101C167.598 154.711 167.454 154.339 167.221 154.025C166.988 153.711 166.674 153.466 166.314 153.317C165.479 153.072 162.753 151.732 162.753 145.388C162.753 139.045 165.471 137.729 166.298 137.459C166.663 137.307 166.981 137.057 167.216 136.738C167.452 136.418 167.598 136.04 167.637 135.644V47.1006C167.637 46.8903 167.554 46.6886 167.406 46.5399C167.259 46.3912 167.058 46.3077 166.849 46.3077H122.937V47.1006H166.613V135.691C166.573 135.918 166.48 136.132 166.344 136.316C166.207 136.5 166.03 136.65 165.825 136.754C164.864 137.047 161.958 138.538 161.958 145.42C161.958 152.302 164.88 153.793 165.841 154.079C166.043 154.175 166.22 154.317 166.357 154.495C166.494 154.673 166.587 154.881 166.629 155.101V158.899H122.937V159.692ZM132.255 146.118V145.523H124.315V146.118H132.255ZM138.28 136.603H145.212V136.008H138.28V136.603ZM144.007 129.562C144.007 130.346 144.238 131.113 144.671 131.765C145.103 132.417 145.718 132.925 146.438 133.225C147.158 133.525 147.95 133.603 148.714 133.45C149.478 133.297 150.179 132.92 150.73 132.365C151.281 131.811 151.656 131.105 151.808 130.336C151.96 129.567 151.882 128.769 151.584 128.045C151.286 127.321 150.781 126.701 150.133 126.266C149.486 125.83 148.724 125.598 147.945 125.598C146.901 125.598 145.899 126.015 145.16 126.759C144.422 127.502 144.007 128.511 144.007 129.562ZM147.945 126.192C148.607 126.192 149.255 126.39 149.805 126.76C150.356 127.131 150.785 127.657 151.038 128.273C151.291 128.888 151.358 129.566 151.228 130.22C151.099 130.873 150.78 131.474 150.312 131.945C149.844 132.416 149.248 132.737 148.598 132.867C147.949 132.997 147.276 132.93 146.664 132.675C146.052 132.42 145.53 131.988 145.162 131.434C144.794 130.88 144.598 130.229 144.598 129.562C144.6 128.669 144.953 127.813 145.58 127.182C146.208 126.55 147.058 126.194 147.945 126.192ZM124.315 136.603H129.041V136.008H124.315V136.603ZM170 135.691V47.1006C170 46.2594 169.668 45.4527 169.077 44.8579C168.486 44.2631 167.685 43.929 166.849 43.929H122.889C122.921 44.1921 122.937 44.4569 122.937 44.7219V45.3166H166.849C167.082 45.3166 167.313 45.3627 167.528 45.4524C167.743 45.542 167.938 45.6734 168.102 45.8391C168.267 46.0048 168.398 46.2014 168.487 46.4179C168.576 46.6343 168.622 46.8663 168.622 47.1006V135.691C168.583 136.301 168.369 136.887 168.007 137.378C167.646 137.869 167.15 138.244 166.582 138.458C166.109 138.601 163.738 139.624 163.738 145.42C163.738 151.081 165.92 152.168 166.589 152.366C167.156 152.573 167.65 152.942 168.011 153.428C168.372 153.914 168.584 154.496 168.622 155.101V158.899C168.622 159.134 168.576 159.366 168.487 159.582C168.398 159.799 168.267 159.995 168.102 160.161C167.938 160.327 167.743 160.458 167.528 160.548C167.313 160.637 167.082 160.683 166.849 160.683H122.937V161.278C122.937 161.543 122.921 161.808 122.889 162.071H166.849C167.685 162.071 168.486 161.737 169.077 161.142C169.668 160.547 170 159.741 170 158.899V155.101C169.996 154.835 169.965 154.569 169.905 154.309V136.484C169.965 136.224 169.996 135.958 170 135.691ZM168.527 151.954C168.079 151.529 167.54 151.215 166.952 151.034C166.952 151.034 165.093 150.487 165.093 145.42C165.093 140.353 166.96 139.783 166.96 139.783C167.55 139.602 168.089 139.284 168.535 138.855L168.527 151.954ZM124.315 139.775H129.041V139.18H124.315V139.775ZM137.13 139.18H130.199V139.775H137.13V139.18ZM130.199 141.36H137.13V140.766H130.199V141.36ZM124.315 142.946H137.13V142.352H124.315V142.946ZM124.315 141.36H129.041V140.766H124.315V141.36ZM145.212 147.109H138.28V147.704H145.212V147.109ZM124.315 147.704H129.041V147.109H124.315V147.704ZM140.336 145.523H133.405V146.118H140.336V145.523ZM130.199 144.532H137.13V143.937H130.199V144.532ZM145.212 143.937H138.28V144.532H145.212V143.937ZM137.13 147.109H130.199V147.704H137.13V147.109ZM124.315 144.532H129.041V143.937H124.315V144.532Z" fill="black"/>
        <path d="M97.9202 163.982H79.8038C79.6742 163.982 79.55 164.034 79.4584 164.126C79.3669 164.218 79.3154 164.343 79.3154 164.473C79.3154 164.538 79.3281 164.601 79.3527 164.66C79.3774 164.72 79.4135 164.773 79.4589 164.818C79.5044 164.863 79.5583 164.899 79.6175 164.923C79.6767 164.946 79.74 164.958 79.8038 164.957H97.9202C97.984 164.958 98.0473 164.946 98.1065 164.923C98.1657 164.899 98.2196 164.863 98.2651 164.818C98.3105 164.773 98.3466 164.72 98.3713 164.66C98.3959 164.601 98.4086 164.538 98.4086 164.473C98.4086 164.343 98.3571 164.218 98.2655 164.126C98.1739 164.034 98.0497 163.982 97.9202 163.982ZM115.651 36H63.6644C61.3664 36 59.1626 36.9189 57.5377 38.5546C55.9129 40.1903 55 42.4087 55 44.7219V161.278C55 163.591 55.9129 165.81 57.5377 167.445C59.1626 169.081 61.3664 170 63.6644 170H115.651C117.949 170 120.152 169.081 121.777 167.445C123.402 165.81 124.315 163.591 124.315 161.278V44.7219C124.315 42.4087 123.402 40.1903 121.777 38.5546C120.152 36.9189 117.949 36 115.651 36V36ZM122.937 161.278C122.935 163.223 122.166 165.087 120.8 166.462C119.434 167.837 117.582 168.61 115.651 168.612H63.6644C61.7327 168.61 59.8807 167.837 58.5147 166.462C57.1488 165.087 56.3805 163.223 56.3784 161.278V44.7219C56.3805 42.7774 57.1488 40.9131 58.5147 39.5381C59.8807 38.1631 61.7327 37.3897 63.6644 37.3876H115.651C117.582 37.3897 119.434 38.1631 120.8 39.5381C122.166 40.9131 122.935 42.7774 122.937 44.7219V161.278ZM115.651 38.3787H63.6644C61.9932 38.3787 60.3904 39.047 59.2086 40.2366C58.0269 41.4262 57.363 43.0396 57.363 44.7219V161.278C57.363 162.96 58.0269 164.574 59.2086 165.763C60.3904 166.953 61.9932 167.621 63.6644 167.621H115.651C117.322 167.621 118.925 166.953 120.106 165.763C121.288 164.574 121.952 162.96 121.952 161.278V44.7219C121.952 43.0396 121.288 41.4262 120.106 40.2366C118.925 39.047 117.322 38.3787 115.651 38.3787ZM72.951 39.1716H104.765V40.0993C104.765 41.6851 103.922 43.2154 102.032 43.2154H75.6842C74.1089 43.2154 72.951 41.9309 72.951 40.0993V39.1716ZM121.164 161.278C121.164 162.75 120.583 164.162 119.549 165.203C118.515 166.244 117.113 166.828 115.651 166.828H63.6644C62.2021 166.828 60.7996 166.244 59.7656 165.203C58.7316 164.162 58.1507 162.75 58.1507 161.278V44.7219C58.1507 43.2499 58.7316 41.8381 59.7656 40.7972C60.7996 39.7564 62.2021 39.1716 63.6644 39.1716H72.3997V40.02C72.3997 42.2798 73.9041 43.929 75.889 43.929H101.827C103.883 43.929 105.324 42.3432 105.324 40.02V39.1716H115.651C117.113 39.1716 118.515 39.7564 119.549 40.7972C120.583 41.8381 121.164 43.2499 121.164 44.7219V161.278ZM83.5531 111.92H95.762V106.766H83.5531V111.92ZM84.1438 107.361H95.1712V111.325H84.1438V107.361ZM82.5685 120.642H96.7466C97.1122 120.642 97.4628 120.496 97.7213 120.236C97.9798 119.975 98.125 119.622 98.125 119.254V93.0888C98.125 92.7208 97.9798 92.3678 97.7213 92.1076C97.4628 91.8474 97.1122 91.7012 96.7466 91.7012H94.9507C94.9589 91.6354 94.9589 91.5688 94.9507 91.503V88.3314C94.9507 87.9674 94.8088 87.6181 94.5553 87.3585C94.3019 87.099 93.9574 86.95 93.5959 86.9438H85.7192C85.3536 86.9438 85.003 87.09 84.7445 87.3502C84.486 87.6104 84.3408 87.9634 84.3408 88.3314V91.503C84.3325 91.5688 84.3325 91.6354 84.3408 91.7012H82.5685C82.2029 91.7012 81.8523 91.8474 81.5938 92.1076C81.3353 92.3678 81.1901 92.7208 81.1901 93.0888V119.254C81.1901 119.622 81.3353 119.975 81.5938 120.236C81.8523 120.496 82.2029 120.642 82.5685 120.642ZM85.7192 88.3314H93.5959V91.503H85.7192V88.3314ZM82.5685 93.0888H96.7466V119.254H82.5685V93.0888ZM83.5531 118.263H95.762V113.109H83.5531V118.263ZM84.1438 113.704H95.1712V117.669H84.1438V113.704Z" fill="black"/>
    </g>
</svg>
