<svg width="215" height="210" viewBox="0 0 215 210" fill="none" xmlns="http://www.w3.org/2000/svg">
    <rect x="9.48535" y="6.26866" width="205.515" height="203.731" rx="18" fill="#10C5C5"/>
    <rect width="205.515" height="203.731" rx="18" fill="#15E9E9"/>
    <g opacity="0.7">
        <path d="M163.1 38H41.6909C39.1207 38 36.6558 39.021 34.8384 40.8384C33.021 42.6558 32 45.1207 32 47.6909V140.036C32 142.606 33.021 145.071 34.8384 146.889C36.6558 148.706 39.1207 149.727 41.6909 149.727H156.22L154.678 148.185H41.6909C39.5335 148.185 37.4643 147.329 35.9379 145.804C34.4115 144.28 33.5529 142.211 33.5505 140.054V47.6909C33.5494 46.6211 33.7591 45.5617 34.1677 44.573C34.5762 43.5844 35.1757 42.6859 35.9317 41.9291C36.6877 41.1723 37.5855 40.5719 38.5737 40.1622C39.5619 39.7526 40.6211 39.5417 41.6909 39.5417H163.1C164.17 39.5417 165.229 39.7526 166.217 40.1622C167.205 40.5719 168.103 41.1723 168.859 41.9291C169.615 42.6859 170.215 43.5844 170.623 44.573C171.032 45.5617 171.242 46.6211 171.24 47.6909V140.036C171.239 141.304 170.942 142.554 170.371 143.686C169.8 144.818 168.973 145.801 167.954 146.556L169.047 147.648C170.206 146.745 171.144 145.591 171.791 144.272C172.438 142.954 172.777 141.505 172.782 140.036V47.6909C172.782 45.1222 171.762 42.6586 169.947 40.8415C168.131 39.0244 165.669 38.0023 163.1 38V38ZM80.5425 73.3189L63.8037 86.9918L68.3584 110.453L73.7501 106.4L73.5915 105.695L68.8077 109.29L64.5261 87.2649L79.0801 75.3716C79.5734 74.6756 80.0316 73.9884 80.5425 73.3189ZM112.478 135.667L111.166 139.464L126.019 144.6L129.305 135.129L124.266 133.367C123.931 133.49 123.596 133.596 123.253 133.711L128.46 135.473L125.614 143.701L112.011 139.05L113.192 135.649L112.478 135.667ZM94.5943 61.8396C95.3344 61.4872 96.0832 61.1612 96.8496 60.8529L104.444 54.6859L107.466 58.2628L108.276 58.2011L104.532 53.7345L94.5943 61.8396ZM54.4388 94.6476L54.6502 94.9031C57.4166 98.3214 60.7731 102.506 64.5966 107.334L65.4776 108.391L61.6453 88.7626L54.4388 94.6476ZM55.3727 94.7445L61.2048 89.9784L64.2883 105.836C60.8877 101.599 57.8923 97.9073 55.3727 94.7445ZM132.547 129.174C135.243 129.385 137.992 129.552 140.758 129.711L141.384 129.086C138.741 128.936 136.027 128.768 133.402 128.575C133.12 128.742 132.838 128.98 132.547 129.174ZM154.572 134.371L155.03 134.838C155.449 134.487 155.846 134.11 156.22 133.711C156.998 132.619 157.442 131.324 157.497 129.984L157.55 129.623H157.18C154.651 129.623 152.141 129.535 149.639 129.456L150.335 130.143C152.475 130.204 154.634 130.257 156.792 130.284C156.715 131.364 156.343 132.403 155.717 133.288C155.346 133.669 154.955 134.031 154.546 134.371H154.572ZM170.139 47.6909C170.135 45.9115 169.459 44.1995 168.245 42.8983C167.174 41.6832 165.688 40.9106 164.078 40.7311C163.754 40.6791 163.428 40.6497 163.1 40.643H41.6909C39.8217 40.643 38.029 41.3855 36.7073 42.7073C35.3855 44.029 34.643 45.8217 34.643 47.6909V140.036C34.643 141.905 35.3855 143.698 36.7073 145.02C38.029 146.342 39.8217 147.084 41.6909 147.084H153.577L152.775 146.291H145.551C147.145 145.084 148.59 143.974 149.903 142.97L149.603 142.362C148.079 143.543 146.37 144.846 144.458 146.291H140.362C143.375 144.036 145.956 142.071 148.132 140.397L147.656 139.931C145.342 141.692 142.544 143.813 139.26 146.291H90.8853L72.8515 124.707L72.6401 124.452L64.949 130.883L77.8115 146.274H41.6028C40.6735 146.272 39.7566 146.06 38.9206 145.655C38.0846 145.249 37.3511 144.659 36.775 143.93L68.7989 119.932C71.6093 120.549 76.2521 121.527 82.2693 122.628C82.0314 122.364 81.8112 122.099 81.5821 121.835C75.8645 120.769 71.4595 119.844 68.7901 119.254H68.6404L36.4049 143.41C35.7748 142.424 35.4387 141.278 35.4359 140.107V135.2L65.6009 112.532L65.3895 112.267C60.7026 106.365 49.4172 92.1809 45.6642 87.8993C43.2414 85.1329 41.2592 83.4943 38.2903 83.4943C37.3277 83.514 36.3703 83.6411 35.4359 83.8731V81.4152C36.3824 81.2081 37.3478 81.0989 38.3167 81.0892C41.6292 81.0892 44.2898 82.5869 47.5142 86.2782C48.589 87.5028 50.3246 89.5908 52.6856 92.4452L52.8883 92.7006L61.0727 86.0227L57.2404 66.0507C57.1945 65.8866 57.1832 65.7148 57.2071 65.546C57.2311 65.3773 57.2897 65.2154 57.3793 65.0705C57.4689 64.9256 57.5875 64.8008 57.7278 64.704C57.868 64.6072 58.0268 64.5405 58.1941 64.5082C58.3614 64.4758 58.5336 64.4785 58.6998 64.516C58.866 64.5535 59.0226 64.625 59.1598 64.7261C59.297 64.8271 59.4118 64.9555 59.4969 65.1031C59.582 65.2508 59.6356 65.4144 59.6543 65.5838L63.2751 84.252L82.7098 68.3941L70.0764 54.0781C69.9646 53.9569 69.8785 53.8144 69.8232 53.6592C69.7678 53.5039 69.7444 53.3391 69.7542 53.1746C69.7641 53.01 69.8071 52.8492 69.8806 52.7017C69.9541 52.5542 70.0567 52.423 70.1821 52.3161C70.432 52.1015 70.7556 51.9925 71.0845 52.0123C71.4133 52.032 71.7216 52.1789 71.9441 52.4218L84.6127 66.8172L102.946 51.8403L94.2155 41.4359H97.4311L104.849 50.2458L108.725 47.083L104.62 41.4359H107.659L111.395 46.6161C111.582 46.8693 111.664 47.1853 111.623 47.4975C111.582 47.8097 111.421 48.0938 111.175 48.29L106.435 52.1663L111.395 58.0778H112.276L107.369 52.2368L111.597 48.7833C111.972 48.4789 112.215 48.0424 112.278 47.5638C112.34 47.0852 112.216 46.601 111.932 46.2108L108.47 41.4359H115.518L132.521 61.4167L130.222 63.1787L130.847 63.5399L133.49 61.5577L116.372 41.4359H125.746L139.181 57.2232L160.193 41.4359H163.179C164.206 41.4377 165.216 41.6956 166.117 42.1864C167.019 42.6771 167.783 43.3851 168.342 44.2462L136.838 67.9536L137.331 68.403L168.677 44.8189C169.115 45.6815 169.345 46.6351 169.346 47.6028V47.9111L139.234 70.2971C139.384 70.4557 139.542 70.6142 139.692 70.7816L169.346 48.7569V59.5754L144.767 77.8472C144.881 78.041 144.996 78.2348 145.101 78.4286L169.346 60.3948V68.3237L147.894 85.0096L148.106 85.688L169.346 69.1606V96.8061L145.26 115.016C145.002 115.504 144.737 115.979 144.467 116.443L169.346 97.6342V102.039C166.254 104.215 163.805 106.039 161.858 107.607C157.576 111.078 157.083 116.743 157.021 121.844C151.674 121.782 146.361 121.588 141.163 121.298C140.996 121.509 140.82 121.72 140.644 121.923C146.123 122.24 151.718 122.443 157.382 122.505H157.717V122.17C157.761 117.13 158.158 111.483 162.316 108.074C164.14 106.594 166.421 104.885 169.276 102.876V105.924C167.109 107.475 165.338 108.814 163.858 110.012C160.536 112.699 160.219 117.694 160.175 122.161L160.316 122.496H169.276V134.319C169.082 132.971 168.897 131.526 168.721 129.914V129.623H160.052V129.922C159.955 130.977 159.739 132.017 159.409 133.024L159.285 133.376L169.337 135.385V137.895L158.378 135.702C158.292 135.692 158.209 135.668 158.131 135.631L157.929 135.543L157.77 135.702L157.356 136.089L157.876 136.354L157.955 136.433L158.087 136.318H158.246L169.443 138.556V140.063C169.44 141.071 169.189 142.064 168.713 142.953C168.237 143.843 167.55 144.602 166.712 145.164L167.258 145.71C168.177 145.065 168.927 144.21 169.445 143.214C169.963 142.219 170.235 141.114 170.236 139.992L170.139 47.6909ZM65.8829 130.962L72.5255 125.385L89.9603 146.238H78.6925L65.8829 130.962ZM35.4359 105.59L41.3913 113.897L35.4359 118.302V105.59ZM35.4359 119.157L42.3076 114.047L35.4359 104.453V93.0002L37.0657 91.8285L54.3595 115.924L35.4359 130.019V119.157ZM38.2903 84.1903C40.7218 84.1903 42.4573 85.2387 45.162 88.3309C48.8533 92.5421 59.8569 106.365 64.6583 112.408L35.4359 134.609V130.83L55.2757 116.064L37.2243 90.8594L35.4623 92.1456V84.5955C36.3861 84.3514 37.3351 84.2154 38.2903 84.1903ZM35.4359 47.6028C35.4359 45.9672 36.0856 44.3986 37.2421 43.2421C38.3986 42.0856 39.9672 41.4359 41.6028 41.4359H51.047L35.4359 54.0781V47.6028ZM35.4359 54.9238L52.1042 41.4359H68.5346L35.7794 67.8656L35.4359 67.4427V54.9238ZM102.012 51.7522L84.692 65.9009L72.411 52.0077C72.0716 51.6529 71.6107 51.4394 71.1206 51.41C70.6305 51.3806 70.1474 51.5375 69.768 51.8492C69.3933 52.1797 69.1652 52.6455 69.1337 53.1442C69.1041 53.6472 69.2752 54.1415 69.6094 54.5186L81.7583 68.2972L63.7156 83.045L60.2974 65.4252C60.2028 64.9334 59.9166 64.4993 59.5019 64.2184C59.0872 63.9375 58.5779 63.8329 58.0861 63.9275C57.5943 64.0222 57.1602 64.3083 56.8793 64.723C56.5984 65.1377 56.4938 65.647 56.5884 66.1388L60.3855 85.7232L52.9852 91.7668C50.7298 89.0093 49.056 87.0006 48.0164 85.8025C44.651 81.9614 41.8495 80.3932 38.3255 80.3932C37.3576 80.4042 36.393 80.5075 35.4447 80.7016V68.4822L35.6913 68.7818L69.5918 41.4711H93.3785L102.012 51.7522ZM107.827 46.9949L104.937 49.356L98.2857 41.427H103.809L107.827 46.9949ZM139.287 56.3246L126.618 41.4359H159.092L139.287 56.3246ZM160.061 132.891C160.306 132.044 160.48 131.178 160.58 130.301H168.069C168.236 131.852 168.421 133.27 168.606 134.601L160.061 132.891ZM169.346 121.835H160.81C160.81 117.606 161.215 112.972 164.245 110.523C165.646 109.387 167.329 108.118 169.346 106.664V121.835ZM149.542 100.867L154.933 96.7884L149.039 89.5379C149.128 89.9872 149.207 90.4189 149.277 90.877L153.991 96.6739L149.586 99.9864C149.586 100.277 149.577 100.55 149.542 100.867Z" fill="black"/>
        <path d="M133.543 68.0417L77.1596 110.435L77.4151 111.069L134.107 68.4646L133.543 68.0417ZM101.722 79.6708L92.6209 65.4428L92.0571 65.7776L100.867 79.5122L74.6488 99.1847C74.6488 99.449 74.6488 99.7133 74.7104 99.9688L101.475 79.8558L101.722 79.6708ZM78.0229 112.505C91.2378 115.087 111.994 118.672 136.107 121.148C136.3 120.954 136.494 120.751 136.679 120.54C112.091 118.038 90.9383 114.373 77.697 111.73C77.8115 112.003 77.9084 112.259 78.0229 112.505ZM104.558 77.5388L124.196 62.7822L123.464 62.5003L104.726 76.5962L96.374 63.5487L95.7573 63.8218L104.365 77.2745L104.558 77.5388ZM130.213 76.7459L137.349 71.46L136.882 70.9843L129.288 76.6314L147.551 100.876C147.551 100.541 147.604 100.215 147.63 99.8807L130.213 76.7459ZM87.5993 124.945C97.1669 126.636 108.866 128.469 121.958 130.099C122.416 129.94 122.839 129.773 123.323 129.596C109.228 127.887 96.7175 125.896 86.6566 124.099C86.9562 124.393 87.2704 124.675 87.5993 124.945ZM138.045 121.35H138.388L138.917 120.734H138.591L138.045 121.35ZM125.182 130.504L125.667 130.557C126.063 130.389 126.451 130.213 126.839 130.028L126.38 129.975C125.993 130.152 125.579 130.319 125.182 130.504Z" fill="black"/>
        <path d="M111.166 59.9631C103.865 59.9631 96.7281 62.128 90.6577 66.1841C84.5873 70.2402 79.856 76.0053 77.0621 82.7504C74.2682 89.4954 73.5372 96.9175 74.9615 104.078C76.3859 111.239 79.9015 117.816 85.064 122.978C90.2264 128.141 96.8038 131.656 103.964 133.081C111.125 134.505 118.547 133.774 125.292 130.98C132.037 128.186 137.802 123.455 141.858 117.385C145.914 111.314 148.079 104.177 148.079 96.8765C148.056 87.0936 144.159 77.7181 137.242 70.8005C130.324 63.8829 120.949 59.9863 111.166 59.9631ZM122.46 131.085L122.213 130.354C127.411 128.566 132.132 125.616 136.019 121.73C139.905 117.843 142.855 113.122 144.643 107.924L145.375 108.171C143.599 113.509 140.604 118.359 136.626 122.337C132.648 126.315 127.798 129.31 122.46 131.085ZM144.229 107.087L144.124 107.396C142.382 112.619 139.449 117.365 135.556 121.258C131.663 125.151 126.917 128.084 121.694 129.826L121.376 129.931L121.826 131.297C114.136 133.673 105.871 133.407 98.3501 130.539C90.8291 127.672 84.4848 122.369 80.3288 115.476C76.1727 108.583 74.4444 100.496 75.4193 92.5067C76.3941 84.5169 80.0161 77.0836 85.7077 71.392C91.3992 65.7005 98.8325 62.0785 106.822 61.1036C114.812 60.1288 122.898 61.8571 129.791 66.0131C136.684 70.1692 141.987 76.5135 144.855 84.0344C147.722 91.5554 147.989 99.8199 145.612 107.51L144.229 107.087ZM192.093 168.545L158.863 135.27C158.746 135.154 158.612 135.056 158.466 134.979L156.22 133.852L146.405 124.055C146.262 123.912 146.092 123.798 145.904 123.721C145.717 123.644 145.516 123.605 145.313 123.606C145.111 123.605 144.912 123.644 144.726 123.721C144.54 123.798 144.371 123.912 144.229 124.055L143.524 124.76L141.243 122.505C147.811 114.756 151.134 104.771 150.52 94.6325C149.905 84.4936 145.4 74.9833 137.944 68.0851C130.488 61.187 120.657 57.4335 110.501 57.6077C100.345 57.7818 90.6479 61.87 83.4328 69.0197C76.2176 76.1693 72.0412 85.8284 71.7745 95.9825C71.5078 106.137 75.1715 116.002 82.0014 123.52C88.8313 131.039 98.3001 135.63 108.433 136.337C118.566 137.044 128.581 133.812 136.388 127.315L138.661 129.588L137.965 130.284C137.821 130.426 137.705 130.596 137.627 130.784C137.548 130.971 137.508 131.173 137.508 131.376C137.508 131.579 137.548 131.781 137.627 131.968C137.705 132.156 137.821 132.326 137.965 132.469L147.753 142.256L148.89 144.529C148.962 144.675 149.057 144.809 149.172 144.926L182.403 178.201C182.695 178.486 183.087 178.646 183.495 178.65C183.904 178.65 184.297 178.489 184.587 178.201L192.058 170.721C192.205 170.582 192.323 170.414 192.404 170.229C192.486 170.043 192.529 169.843 192.533 169.64C192.536 169.438 192.499 169.237 192.423 169.049C192.348 168.86 192.236 168.689 192.093 168.545ZM143.991 126.478L144.617 125.843L145.313 125.148L155.268 135.103L150.863 139.508L140.882 129.623L143.991 126.478ZM111.166 134.909C103.648 134.911 96.2976 132.683 90.0453 128.508C83.7931 124.332 78.9192 118.397 76.0401 111.452C73.161 104.507 72.4059 96.864 73.8703 89.4897C75.3347 82.1155 78.9528 75.3411 84.2671 70.0231C89.5815 64.705 96.3534 61.0822 103.727 59.6127C111.1 58.1432 118.743 58.893 125.69 61.7673C132.637 64.6415 138.576 69.5112 142.756 75.7606C146.935 82.01 149.168 89.3583 149.172 96.8765C149.206 101.878 148.246 106.837 146.348 111.465C144.451 116.093 141.653 120.298 138.117 123.836C134.582 127.374 130.379 130.174 125.752 132.075C121.125 133.976 116.167 134.939 111.166 134.909ZM137.595 126.319C138.523 125.485 139.404 124.604 140.238 123.676L142.414 125.861L139.771 128.504L137.595 126.319ZM149.048 141.349L139.084 131.385L139.789 130.689L149.744 140.644L149.048 141.349ZM149.365 141.966L155.902 135.437L157.145 136.063L149.991 143.217L149.365 141.966ZM183.53 177.108L150.299 143.833L150.995 143.129L184.235 176.403L183.53 177.108ZM185.292 175.346L152.079 142.036L157.761 136.354L190.992 169.62L185.292 175.346Z" fill="black"/>
    </g>
</svg>
