<svg width="215" height="210" viewBox="0 0 215 210" fill="none" xmlns="http://www.w3.org/2000/svg">
    <rect x="9.48535" y="6.26866" width="205.515" height="203.731" rx="18" fill="#10C5C5"/>
    <rect width="205.515" height="203.731" rx="18" fill="#15E9E9"/>
    <g opacity="0.7">
        <path d="M128.741 135.062C129.638 134.745 130.42 134.167 130.987 133.403C131.553 132.638 131.878 131.722 131.92 130.771V33.8849C131.92 33.0044 131.57 32.16 130.948 31.5373C130.325 30.9147 129.48 30.5649 128.6 30.5649H69.67C68.7895 30.5649 67.945 30.9147 67.3224 31.5373C66.6998 32.16 66.35 33.0044 66.35 33.8849V130.763C66.3915 131.709 66.718 132.622 67.2867 133.38C67.8554 134.138 68.6398 134.707 69.5372 135.012C69.5372 135.012 71.413 135.56 71.413 141.229C71.413 146.898 69.6202 147.18 69.6202 147.18C68.7193 147.375 67.9089 147.864 67.3167 148.57C66.7246 149.277 66.3845 150.16 66.35 151.081V155.032C66.35 155.912 66.6998 156.757 67.3224 157.379C67.945 158.002 68.7895 158.352 69.67 158.352H128.6C129.48 158.352 130.325 158.002 130.948 157.379C131.57 156.757 131.92 155.912 131.92 155.032V151.056C131.878 150.108 131.551 149.195 130.983 148.436C130.414 147.676 129.63 147.106 128.733 146.798C128.733 146.798 126.774 146.225 126.774 140.922C126.774 135.618 128.741 135.062 128.741 135.062ZM125.321 140.955C125.321 146.881 127.621 148.018 128.326 148.226C128.923 148.443 129.444 148.829 129.824 149.338C130.204 149.847 130.428 150.455 130.467 151.089V155.065C130.467 155.56 130.271 156.035 129.92 156.385C129.57 156.736 129.095 156.932 128.6 156.932H69.67C69.1747 156.932 68.6997 156.736 68.3495 156.385C67.9992 156.035 67.8025 155.56 67.8025 155.065V151.114C67.8273 150.53 68.0429 149.971 68.4161 149.521C68.7894 149.071 69.2998 148.756 69.8692 148.624C70.7739 148.458 72.8655 147.421 72.8655 141.204C72.8655 134.987 70.6328 133.792 69.9439 133.593C69.3476 133.377 68.8272 132.992 68.4467 132.485C68.0663 131.978 67.8424 131.37 67.8025 130.738V33.8849C67.8025 33.3896 67.9992 32.9146 68.3495 32.5644C68.6997 32.2142 69.1747 32.0174 69.67 32.0174H128.6C129.095 32.0174 129.57 32.2142 129.92 32.5644C130.271 32.9146 130.467 33.3896 130.467 33.8849V130.771C130.426 131.41 130.202 132.023 129.82 132.537C129.439 133.051 128.917 133.443 128.318 133.668C127.82 133.817 125.321 134.888 125.321 140.955ZM129.471 130.771V33.8849C129.471 33.6648 129.384 33.4537 129.228 33.298C129.073 33.1424 128.862 33.0549 128.641 33.0549H69.67C69.4498 33.0549 69.2387 33.1424 69.0831 33.298C68.9274 33.4537 68.84 33.6648 68.84 33.8849V130.763C68.8802 131.17 69.0315 131.559 69.2773 131.887C69.5232 132.215 69.8542 132.469 70.2344 132.622C71.3383 132.945 73.903 134.431 73.903 141.229C73.903 148.027 71.4877 149.413 70.0518 149.67C69.7272 149.759 69.4374 149.945 69.221 150.203C69.0045 150.461 68.8717 150.779 68.84 151.114V155.065C68.84 155.285 68.9274 155.496 69.0831 155.652C69.2387 155.807 69.4498 155.895 69.67 155.895H128.6C128.82 155.895 129.031 155.807 129.187 155.652C129.343 155.496 129.43 155.285 129.43 155.065V151.089C129.389 150.681 129.237 150.291 128.991 149.962C128.746 149.634 128.415 149.378 128.036 149.222C127.156 148.964 124.284 147.562 124.284 140.922C124.284 134.282 127.147 132.904 128.019 132.622C128.397 132.466 128.727 132.212 128.975 131.887C129.223 131.562 129.38 131.177 129.43 130.771H129.471ZM128.641 130.771C128.599 131.008 128.502 131.232 128.358 131.425C128.214 131.618 128.027 131.775 127.811 131.883C126.799 132.19 123.661 133.751 123.661 140.955C123.661 148.159 126.824 149.72 127.811 150.019C128.024 150.119 128.211 150.268 128.355 150.454C128.499 150.64 128.597 150.858 128.641 151.089V155.065H69.67V151.114C69.6959 150.972 69.7585 150.839 69.8517 150.728C69.9449 150.617 70.0653 150.533 70.2012 150.483C71.8612 150.185 74.65 148.583 74.65 141.229C74.65 134.132 72.0604 132.29 70.5 131.825C70.288 131.725 70.1025 131.577 69.9583 131.393C69.8141 131.208 69.7154 130.992 69.67 130.763V33.8849H128.6L128.641 130.771Z" fill="black"/>
        <path d="M131.895 131.825H130.443V149.255H131.895V131.825Z" fill="black"/>
        <path d="M67.9353 131.825H66.4828V150.533H67.9353V131.825Z" fill="black"/>
        <path d="M118.764 50.6094H116.274H116.167V48.7004C116.167 48.3152 116.014 47.9458 115.741 47.6734C115.469 47.401 115.099 47.2479 114.714 47.2479H108.995V48.7004H114.697V63.1424H108.995V64.5949H114.697C115.083 64.5949 115.452 64.4419 115.725 64.1695C115.997 63.8971 116.15 63.5277 116.15 63.1424V61.0591H118.764C119.594 61.0591 120.217 59.6066 120.217 59.6066V52.0619C120.217 51.6767 120.064 51.3073 119.792 51.0349C119.519 50.7625 119.15 50.6094 118.764 50.6094ZM118.764 59.6149H116.15V52.0619H118.764V59.6149ZM82.95 48.7004V63.1424C82.95 63.5277 83.103 63.8971 83.3754 64.1695C83.6478 64.4419 84.0172 64.5949 84.4025 64.5949H89.4903V63.1424H84.4025V48.7004H89.4903V47.2479H84.4025C84.0172 47.2479 83.6478 47.401 83.3754 47.6734C83.103 47.9458 82.95 48.3152 82.95 48.7004ZM95.5245 55.5728L90.42 54.0124L98.72 60.8599V57.5399L106.082 59.6149V55.3653L95.5245 51.4975V55.5728Z" fill="black"/>
        <path d="M104.854 63.8978C105.004 64.9367 105.079 65.9853 105.078 67.0352C105.172 68.1303 104.962 69.2302 104.472 70.2141C104.274 70.6031 103.97 70.9286 103.596 71.1532C103.222 71.3778 102.792 71.4924 102.355 71.484C101.838 71.4708 101.339 71.292 100.931 70.9737C100.523 70.6554 100.228 70.2146 100.089 69.7161C99.9651 70.3194 99.6361 70.8613 99.1582 71.25C98.6802 71.6387 98.0827 71.8504 97.4667 71.8492C97.025 71.8524 96.5886 71.7537 96.1912 71.5608C95.7939 71.368 95.4465 71.086 95.1759 70.737C94.5534 69.9568 94.2048 68.6537 94.2048 66.5206C94.1987 65.6437 94.2514 64.7675 94.3625 63.8978H104.854ZM95.9976 66.3048C95.9976 66.5372 95.9976 66.8277 95.9976 67.2427C95.9976 68.3383 96.4209 69.3011 97.5497 69.3011C98.6785 69.3011 99.0437 68.3383 99.0437 67.1265V66.2965L95.9976 66.3048ZM100.753 66.3048V67.0933C100.753 68.3798 101.276 69.0521 102.073 69.0521C102.87 69.0521 103.31 68.4296 103.31 67.334C103.314 66.99 103.295 66.6461 103.252 66.3048H100.753Z" fill="black"/>
        <path d="M96.1636 79.9499C95.5358 79.9307 94.9076 79.9724 94.2878 80.0744V77.8915L95.0597 77.7421V77.7006C94.746 77.4222 94.4982 77.0773 94.3346 76.6911C94.1709 76.3049 94.0954 75.887 94.1135 75.4679C94.0977 75.1459 94.1477 74.824 94.2604 74.5218C94.3732 74.2197 94.5463 73.9438 94.7692 73.7108C94.9921 73.4777 95.2601 73.2926 95.5569 73.1666C95.8538 73.0406 96.1732 72.9764 96.4956 72.9779C98.5125 72.9779 99.467 74.7873 99.467 77.5429H99.55C99.9816 77.5429 100.571 77.3188 100.571 76.1236C100.562 75.371 100.359 74.6333 99.9816 73.9822L101.542 73.534C102.018 74.469 102.257 75.5063 102.239 76.5552C102.239 79.1448 100.712 79.9582 98.8694 79.9582L96.1636 79.9499ZM97.9564 77.6093C97.9564 76.3394 97.6493 75.3517 96.7363 75.3517C96.6097 75.3427 96.4827 75.3613 96.3641 75.4065C96.2455 75.4516 96.1382 75.5221 96.0497 75.613C95.9612 75.7039 95.8936 75.813 95.8516 75.9327C95.8096 76.0525 95.7943 76.18 95.8067 76.3062C95.8072 76.5824 95.8939 76.8515 96.0545 77.0762C96.2152 77.3008 96.4419 77.4698 96.7031 77.5595C96.836 77.5935 96.9727 77.6102 97.1098 77.6093H97.9564Z" fill="black"/>
        <path d="M104.156 84.4403H102.04V86.1666H100.28V84.4403H97.4667C96.5288 84.4403 96.0972 84.6726 96.0972 85.3864C96.0888 85.629 96.1111 85.8716 96.1636 86.1085H94.3293C94.1821 85.6018 94.1122 85.0758 94.1218 84.5481C94.0982 83.8749 94.3396 83.2193 94.7941 82.7221C95.4377 82.2218 96.2486 81.9872 97.06 82.0665H100.247V81.0372H102.04V82.0665H103.484L104.156 84.4403Z" fill="black"/>
        <path d="M104.157 90.2669H102.04V92.0015H100.28V90.2669H97.4667C96.5288 90.2669 96.0972 90.5076 96.0972 91.2214C96.0888 91.4611 96.1111 91.701 96.1636 91.9352H94.3293C94.1814 91.4314 94.1114 90.908 94.1218 90.3831C94.0964 89.7096 94.3381 89.0533 94.7941 88.5571C95.4378 88.0567 96.2486 87.8221 97.06 87.9014H100.247V86.8721H102.04V87.9014H103.484L104.157 90.2669Z" fill="black"/>
        <path d="M104.854 93.479C105.004 94.5152 105.079 95.561 105.078 96.608C105.172 97.7033 104.963 98.8033 104.472 99.7869C104.274 100.177 103.971 100.504 103.597 100.73C103.223 100.956 102.792 101.072 102.355 101.065C101.838 101.052 101.339 100.873 100.931 100.555C100.523 100.237 100.228 99.7958 100.089 99.2972C99.9637 99.8999 99.6343 100.441 99.1567 100.829C98.679 101.218 98.0823 101.43 97.4667 101.43C97.025 101.434 96.5886 101.335 96.1912 101.142C95.7939 100.949 95.4465 100.667 95.1759 100.318C94.5534 99.5379 94.2048 98.2348 94.2048 96.1017C94.1987 95.2249 94.2514 94.3487 94.3625 93.479H104.854ZM95.9976 95.8777C95.9976 96.1184 95.9976 96.4088 95.9976 96.8155C95.9976 97.9111 96.4209 98.8822 97.5497 98.8822C98.6785 98.8822 99.0437 97.9111 99.0437 96.7077V95.8777H95.9976ZM100.753 95.8777V96.7077C100.753 97.9941 101.276 98.6664 102.073 98.6664C102.87 98.6664 103.31 98.0439 103.31 96.9484C103.314 96.6016 103.295 96.255 103.252 95.9109L100.753 95.8777Z" fill="black"/>
        <path d="M98.2552 110.776C97.7007 110.813 97.1448 110.731 96.6247 110.535C96.1045 110.339 95.6322 110.035 95.2393 109.642C94.8463 109.249 94.5419 108.777 94.3463 108.257C94.1507 107.737 94.0685 107.181 94.1052 106.626C94.0753 106.092 94.1583 105.558 94.3485 105.058C94.5388 104.558 94.8321 104.104 95.2095 103.725C95.5869 103.346 96.0398 103.051 96.5388 102.859C97.0378 102.666 97.5717 102.581 98.1058 102.609C98.6606 102.571 99.2171 102.652 99.7379 102.847C100.259 103.042 100.732 103.347 101.125 103.74C101.518 104.133 101.822 104.606 102.017 105.127C102.213 105.648 102.294 106.204 102.256 106.759C102.29 107.294 102.209 107.83 102.021 108.331C101.832 108.833 101.539 109.289 101.16 109.669C100.782 110.048 100.328 110.344 99.8267 110.534C99.3259 110.725 98.7902 110.808 98.2552 110.776ZM98.1805 105.149C96.8442 105.149 95.8399 105.705 95.8399 106.734C95.8399 107.763 96.7778 108.278 98.1971 108.278C99.3425 108.278 100.513 107.83 100.513 106.734C100.513 105.638 99.3259 105.149 98.1805 105.149Z" fill="black"/>
        <path d="M102.04 113.731L100.737 114.495L99.5749 115.125C100.006 115.333 100.405 115.524 100.77 115.731L102.04 116.47V119.093L98.3382 116.536L94.2712 119.126V116.395L95.6656 115.615C96.0474 115.391 96.4458 115.2 96.8442 115.009V114.959C96.4292 114.768 96.0142 114.569 95.6656 114.378L94.2712 113.64V110.992L98.222 113.631L102.04 111.05V113.731Z" fill="black"/>
        <path d="M125.828 41.3715L121.503 37.0472L117.196 41.3632L116.15 40.334L120.972 35.5117C121.039 35.4425 121.119 35.3873 121.207 35.3497C121.296 35.312 121.391 35.2926 121.487 35.2926C121.583 35.2926 121.678 35.312 121.767 35.3497C121.855 35.3873 121.935 35.4425 122.001 35.5117L126.832 40.3423L125.828 41.3715Z" fill="black"/>
        <path d="M118.989 42.2928L118.557 41.8529L121.279 39.1222C121.308 39.0929 121.342 39.0695 121.38 39.0536C121.418 39.0377 121.458 39.0295 121.499 39.0295C121.54 39.0295 121.581 39.0377 121.619 39.0536C121.656 39.0695 121.691 39.0929 121.719 39.1222L124.45 41.8363L124.01 42.2762L121.52 39.7862L118.989 42.2928Z" fill="black"/>
        <path d="M103.418 41.3715L99.0935 37.0472L94.7858 41.3632L93.74 40.334L98.5623 35.5117C98.6289 35.4425 98.7088 35.3873 98.7972 35.3497C98.8857 35.312 98.9808 35.2926 99.0769 35.2926C99.173 35.2926 99.2681 35.312 99.3566 35.3497C99.445 35.3873 99.5249 35.4425 99.5915 35.5117L104.422 40.3423L103.418 41.3715Z" fill="black"/>
        <path d="M96.5786 42.2928L96.147 41.8529L98.8694 39.1222C98.898 39.0929 98.9322 39.0695 98.97 39.0536C99.0077 39.0377 99.0483 39.0295 99.0893 39.0295C99.1303 39.0295 99.1709 39.0377 99.2087 39.0536C99.2465 39.0695 99.2807 39.0929 99.3093 39.1222L102.04 41.8363L101.6 42.2762L99.1101 39.7862L96.5786 42.2928Z" fill="black"/>
        <path d="M81.0078 41.3715L76.6835 37.0472L72.3758 41.3632L71.33 40.334L76.1523 35.5117C76.2189 35.4425 76.2988 35.3873 76.3872 35.3497C76.4757 35.312 76.5708 35.2926 76.6669 35.2926C76.763 35.2926 76.8581 35.312 76.9465 35.3497C77.035 35.3873 77.1149 35.4425 77.1815 35.5117L82.0121 40.3423L81.0078 41.3715Z" fill="black"/>
        <path d="M74.1686 42.2928L73.737 41.8529L76.4594 39.1222C76.488 39.0929 76.5222 39.0695 76.56 39.0536C76.5977 39.0377 76.6383 39.0295 76.6793 39.0295C76.7203 39.0295 76.7609 39.0377 76.7987 39.0536C76.8365 39.0695 76.8707 39.0929 76.8993 39.1222L79.63 41.8363L79.1901 42.2762L76.7001 39.7862L74.1686 42.2928Z" fill="black"/>
        <path d="M116.15 149.255V151.745H82.12V149.255H116.15ZM116.15 147.802H82.12C81.7348 147.802 81.3653 147.955 81.0929 148.228C80.8205 148.5 80.6675 148.87 80.6675 149.255V151.745C80.6675 152.13 80.8205 152.5 81.0929 152.772C81.3653 153.044 81.7348 153.197 82.12 153.197H116.15C116.535 153.197 116.905 153.044 117.177 152.772C117.449 152.5 117.602 152.13 117.602 151.745V149.255C117.602 148.87 117.449 148.5 117.177 148.228C116.905 147.955 116.535 147.802 116.15 147.802Z" fill="black"/>
        <path d="M98.7199 123.317C99.4176 123.317 100.1 123.524 100.68 123.912C101.26 124.3 101.712 124.85 101.979 125.495C102.246 126.14 102.316 126.849 102.18 127.533C102.044 128.217 101.708 128.846 101.214 129.339C100.721 129.833 100.092 130.169 99.4081 130.305C98.7239 130.441 98.0146 130.371 97.37 130.104C96.7255 129.837 96.1745 129.385 95.7869 128.805C95.3993 128.225 95.1924 127.543 95.1924 126.845C95.1946 125.91 95.567 125.014 96.228 124.353C96.8891 123.692 97.7851 123.32 98.7199 123.317ZM98.7199 122.695C97.8992 122.695 97.0968 122.938 96.4143 123.394C95.7319 123.85 95.1999 124.498 94.8858 125.257C94.5717 126.015 94.4896 126.85 94.6497 127.655C94.8098 128.46 95.2051 129.199 95.7854 129.779C96.3658 130.36 97.1053 130.755 97.9103 130.915C98.7153 131.075 99.5498 130.993 100.308 130.679C101.066 130.365 101.715 129.833 102.171 129.151C102.627 128.468 102.87 127.666 102.87 126.845C102.87 125.744 102.433 124.689 101.654 123.91C100.876 123.132 99.8206 122.695 98.7199 122.695Z" fill="black"/>
        <path d="M85.44 123.317C86.1377 123.317 86.8197 123.524 87.3998 123.912C87.9799 124.3 88.432 124.85 88.699 125.495C88.966 126.14 89.0358 126.849 88.8997 127.533C88.7636 128.217 88.4276 128.846 87.9343 129.339C87.441 129.833 86.8124 130.169 86.1282 130.305C85.4439 130.441 84.7346 130.371 84.0901 130.104C83.4455 129.837 82.8946 129.385 82.507 128.805C82.1194 128.225 81.9125 127.543 81.9125 126.845C81.9147 125.91 82.287 125.014 82.9481 124.353C83.6091 123.692 84.5051 123.32 85.44 123.317ZM85.44 122.695C84.6192 122.695 83.8168 122.938 83.1344 123.394C82.4519 123.85 81.92 124.498 81.6059 125.257C81.2918 126.015 81.2096 126.85 81.3697 127.655C81.5298 128.46 81.9251 129.199 82.5055 129.779C83.0859 130.36 83.8253 130.755 84.6304 130.915C85.4354 131.075 86.2698 130.993 87.0281 130.679C87.7864 130.365 88.4346 129.833 88.8906 129.151C89.3466 128.468 89.59 127.666 89.59 126.845C89.59 125.744 89.1528 124.689 88.3745 123.91C87.5962 123.132 86.5406 122.695 85.44 122.695Z" fill="black"/>
        <path d="M112 123.317C112.698 123.317 113.38 123.524 113.96 123.912C114.54 124.3 114.992 124.85 115.259 125.495C115.526 126.14 115.596 126.849 115.46 127.533C115.324 128.217 114.988 128.846 114.494 129.339C114.001 129.833 113.372 130.169 112.688 130.305C112.004 130.441 111.295 130.371 110.65 130.104C110.005 129.837 109.455 129.385 109.067 128.805C108.679 128.225 108.472 127.543 108.472 126.845C108.475 125.91 108.847 125.014 109.508 124.353C110.169 123.692 111.065 123.32 112 123.317ZM112 122.695C111.179 122.695 110.377 122.938 109.694 123.394C109.012 123.85 108.48 124.498 108.166 125.257C107.852 126.015 107.77 126.85 107.93 127.655C108.09 128.46 108.485 129.199 109.065 129.779C109.646 130.36 110.385 130.755 111.19 130.915C111.995 131.075 112.83 130.993 113.588 130.679C114.346 130.365 114.995 129.833 115.451 129.151C115.907 128.468 116.15 127.666 116.15 126.845C116.15 125.744 115.713 124.689 114.934 123.91C114.156 123.132 113.101 122.695 112 122.695Z" fill="black"/>
        <path d="M61.2621 116.237C61.2621 113.042 63.2043 111.905 65.022 111.905H67.18V110.452H65.022C62.4241 110.452 59.8096 112.237 59.8096 116.262C59.8096 120.288 62.7727 122.678 65.52 122.678H67.5701V121.201H65.52C63.4616 121.201 61.2621 119.201 61.2621 116.237ZM67.2298 106.983H58.3156C56.3983 106.983 52.8874 104.667 52.8874 100.891C52.8543 100.151 52.9734 99.4129 53.2374 98.7214C53.5014 98.0299 53.9047 97.4 54.4222 96.8708C54.9397 96.3416 55.5605 95.9244 56.2459 95.645C56.9314 95.3657 57.6669 95.2301 58.4069 95.2468H66.9559V93.786H58.4069C57.4748 93.7709 56.5492 93.9452 55.6864 94.2983C54.8236 94.6514 54.0414 95.176 53.3872 95.8402C52.7331 96.5045 52.2205 97.2946 51.8807 98.1627C51.5408 99.0308 51.3807 99.9589 51.41 100.891C51.41 105.506 55.4853 108.444 58.2907 108.444H67.2298V106.983ZM126.309 137.859C128.746 144.695 132.448 151.011 137.224 156.476C137.293 156.547 137.376 156.603 137.467 156.641C137.558 156.68 137.656 156.7 137.755 156.7C137.94 156.704 138.118 156.635 138.253 156.509C138.389 156.372 138.465 156.187 138.465 155.994C138.465 155.802 138.389 155.617 138.253 155.48C133.624 150.15 130.027 144.006 127.646 137.361C125.182 130.658 123.28 123.762 121.96 116.744V116.586L121.869 116.453C121.545 115.98 113.66 104.759 91.1587 96.9566C89.2486 96.2054 87.5205 95.0559 86.0894 93.5847C84.6582 92.1135 83.5569 90.3542 82.8587 88.4242C82.2451 86.8613 81.9625 85.1882 82.0287 83.5106C82.7558 84.1201 83.527 84.675 84.3361 85.1706C86.6219 86.6756 89.2714 87.5358 92.0053 87.6606C92.5885 87.6725 93.1709 87.614 93.74 87.4863C94.2838 87.3734 94.7985 87.1502 95.2525 86.8304C95.7065 86.5106 96.0901 86.101 96.3794 85.6271C96.6597 85.0689 96.8688 84.4777 97.0019 83.8675C101.061 85.0295 104.746 85.7101 107.394 86.233C108.713 86.4372 110.014 86.7424 111.286 87.146C112.116 87.5693 115.528 89.636 119.453 92.0596C131.256 99.2972 134.319 101.065 135.057 101.065C136.228 101.065 136.925 99.8948 137.888 98.2763C138.336 97.521 138.842 96.6661 139.49 95.7863C140.588 94.2485 141.892 92.8689 143.366 91.6861C143.458 91.639 143.54 91.5724 143.604 91.4909C143.669 91.4095 143.715 91.315 143.74 91.2141C143.765 91.1131 143.767 91.008 143.748 90.9059C143.728 90.8039 143.687 90.7072 143.626 90.6226C143.566 90.538 143.488 90.4675 143.398 90.4158C143.307 90.3641 143.207 90.3325 143.104 90.3232C143 90.3138 142.896 90.3269 142.798 90.3616C142.7 90.3963 142.61 90.4517 142.536 90.5241C140.949 91.7906 139.552 93.2775 138.386 94.9397C137.705 95.8942 137.174 96.774 136.726 97.5542C136.278 98.3344 135.547 99.5379 135.19 99.6292C133.987 99.2391 125.77 94.201 120.3 90.8478C116.15 88.3578 112.93 86.3243 112 85.8678C110.614 85.3857 109.186 85.0355 107.734 84.822C102.982 84.0036 98.2982 82.8272 93.7234 81.3028C91.9804 80.6886 90.4947 80.0993 89.175 79.5764C85.274 78.0243 82.9168 77.0864 81.7797 79.1116C80.2359 81.8423 80.1197 85.3781 81.4975 88.9554C83.1575 93.3627 86.685 96.9649 90.6773 98.351C111.427 105.547 119.669 115.93 120.557 117.167C121.916 124.208 123.839 131.127 126.309 137.859ZM96.7861 83.8011C96.7512 83.818 96.7129 83.8267 96.6741 83.8267C96.6353 83.8267 96.597 83.818 96.562 83.8011C96.5149 83.7792 96.4747 83.7447 96.4458 83.7015L96.7861 83.8011ZM82.9915 79.8005C83.4895 78.9705 85.1578 79.5432 88.5857 80.9044C89.9137 81.4356 91.4243 82.0332 93.1922 82.6557C94.2795 83.0458 95.3585 83.3778 96.4126 83.6932C96.3061 84.271 96.116 84.8302 95.8482 85.3532C95.6022 85.7551 95.2751 86.1015 94.8878 86.3701C94.5006 86.6388 94.0616 86.8239 93.5989 86.9136C91.2168 87.5195 87.7889 86.6729 84.61 84.7141C83.6969 84.143 82.8334 83.4961 82.0287 82.7802C82.1557 81.7344 82.4826 80.7228 82.9915 79.8005ZM183.82 156.741L173.262 140.922C173.132 140.723 172.955 140.561 172.746 140.448C172.538 140.335 172.304 140.275 172.067 140.274C171.771 140.268 171.481 140.355 171.237 140.523L170.689 140.88C166.664 127.467 161.136 108.444 159.957 101.372C157.941 89.2376 154.197 85.4694 148.005 82.7636C141.814 80.0578 132.235 76.3892 132.136 76.3477L131.613 77.7089C131.713 77.7089 141.357 81.4356 147.383 84.0916C153.11 86.5816 156.571 90.1257 158.488 101.605C159.708 108.933 165.336 128.281 169.378 141.727L129.247 168.503C126.1 165.081 123.212 161.43 120.607 157.58L119.395 158.41C121.997 162.263 124.88 165.919 128.019 169.349L127.496 169.698C127.18 169.91 126.959 170.238 126.882 170.611C126.844 170.797 126.844 170.989 126.881 171.176C126.918 171.363 126.992 171.54 127.098 171.698L137.73 187.493C137.861 187.69 138.038 187.852 138.247 187.963C138.456 188.075 138.689 188.133 138.925 188.132C139.22 188.141 139.511 188.057 139.755 187.891L183.455 158.733C183.612 158.629 183.747 158.495 183.853 158.338C183.958 158.181 184.032 158.006 184.069 157.82C184.132 157.442 184.042 157.054 183.82 156.741ZM138.925 186.696L128.368 170.868L129.123 170.37L130.36 169.54L169.893 143.171L171.162 142.341L172.075 141.735L182.633 157.555L138.925 186.696ZM63.9347 91.1549H67.5618V89.6775H63.9347C60.6147 89.6775 57.0872 87.1875 57.0872 83.3778C57.0872 79.5681 61.702 77.8583 63.1628 77.8583H67.1219V76.3809H63.1628C61.0214 76.3809 55.6347 78.4642 55.6347 83.3778C55.6347 88.0341 59.9258 91.1549 63.9347 91.1549ZM141.515 169.308C140.516 169.31 139.546 169.645 138.76 170.261C137.974 170.877 137.415 171.737 137.174 172.707C136.933 173.676 137.022 174.698 137.428 175.611C137.834 176.523 138.533 177.274 139.414 177.744C140.295 178.214 141.308 178.377 142.292 178.205C143.276 178.034 144.175 177.538 144.845 176.798C145.516 176.058 145.92 175.115 145.993 174.118C146.066 173.122 145.805 172.13 145.25 171.3C144.841 170.685 144.285 170.181 143.633 169.833C142.982 169.485 142.254 169.305 141.515 169.308ZM143.665 176.993C143.03 177.419 142.284 177.647 141.52 177.648C140.756 177.649 140.009 177.423 139.374 176.999C138.738 176.575 138.243 175.972 137.95 175.267C137.657 174.561 137.581 173.785 137.729 173.036C137.878 172.286 138.246 171.598 138.786 171.058C139.327 170.518 140.015 170.151 140.764 170.002C141.514 169.854 142.29 169.931 142.995 170.224C143.701 170.517 144.303 171.013 144.727 171.648C145.011 172.068 145.208 172.54 145.308 173.037C145.409 173.534 145.409 174.045 145.311 174.542C145.212 175.039 145.015 175.512 144.733 175.933C144.45 176.353 144.087 176.714 143.665 176.993Z" fill="black"/>
        <path d="M84.1798 79.0628L93.7086 82.2742L101.967 84.8434L110.5 86.5L135 100.901V151C132.671 148.217 126.996 138.668 122.93 122.739C122.065 118.657 121.705 116.864 121.593 116.233C118.103 111.9 105.089 101.553 96 99C84.5654 95.7885 81.5 88.5 82.274 81.6319C82.7823 79.0628 83.7563 78.8487 84.1798 79.0628Z" fill="#15E9E9"/>
    </g>
</svg>
